<svg width="33" height="30" viewBox="0 0 33 30" fill="none" xmlns="http://www.w3.org/2000/svg">
<ellipse cx="16.4094" cy="16.1919" rx="13.4954" ry="13.1098" fill="white"/>
<path fill-rule="evenodd" clip-rule="evenodd" d="M10.4461 3.74984L7.94827 5.40425L4.88275 8.49249L3.17969 12.6837V18.3087L5.67752 23.1616L7.33322 24.3411L7.15351 19.191L6.8129 12.1322L9.08365 8.49249L12.7169 5.73514L18.9614 6.3969L21.7999 9.81602L22.1405 11.5807L27.9309 13.2351L28.7257 14.8895L27.9309 17.9778L22.5946 18.7498L23.6784 24.7795C24.2647 24.5329 24.672 24.3748 24.7519 24.3748C25.0243 24.3748 27.4389 21.1395 28.6121 19.5219L29.1798 13.7866L26.4549 7.05867L22.027 3.74984L14.9876 2.97778L10.4461 3.74984ZM23.1623 7.72043L22.9353 6.94837L23.73 7.49984L23.8436 8.60278L23.1623 7.72043ZM23.1623 8.3822L24.0706 9.48514H23.5256L23.1623 8.3822Z" fill="#FFB800"/>
<path d="M23.1617 7.72059L22.9346 6.94853L23.7294 7.5L23.8429 8.60294L23.1617 7.72059Z" fill="#131313"/>
<path d="M23.1617 8.38235L24.07 9.48529H23.525L23.1617 8.38235Z" fill="#131313"/>
<path d="M15.2141 12.7941L16.1224 13.125L16.463 13.4559V15.1103L14.8734 15.3309L14.1922 14.4485L14.4193 13.2353L15.2141 12.7941Z" fill="#131313"/>
<path d="M12.035 12.5735L11.6944 13.0147V13.6765L12.2621 13.0147L12.035 12.5735Z" fill="#131313"/>
<path d="M12.3756 24.1544V23.3824L12.8298 24.0441L12.9433 25.0368L12.3756 24.1544Z" fill="#131313"/>
<path d="M13.3975 24.1544L13.6813 24.7059L15.6682 24.1544L14.249 23.6029L13.3975 24.1544Z" fill="#131313"/>
<path fill-rule="evenodd" clip-rule="evenodd" d="M12.1485 0H17.939L24.5241 2.09559L30.9958 9.04412L32.3583 17.3162L28.498 25.9191L19.9826 30L10.3319 29.5588L3.40613 25.2574L1.13538 19.8529L0 12.9044L4.08736 4.85294L12.1485 0ZM7.94764 5.40441L10.4455 3.75L14.987 2.97794L22.0263 3.75L26.4543 7.05882L29.1792 13.7868L28.6115 19.5221C27.4383 21.1397 25.0237 24.375 24.7512 24.375C24.6713 24.375 24.2641 24.533 23.6778 24.7796L22.594 18.75L27.9303 17.9779L28.725 14.8897L27.9303 13.2353L22.1399 11.5809L21.7992 9.81618L18.9608 6.39706L12.7162 5.73529L9.08302 8.49265L6.81226 12.1324L7.15288 19.1912L7.33259 24.3413L5.67689 23.1618L3.17906 18.3088V12.6838L4.88212 8.49265L7.94764 5.40441ZM10.5304 26.5003L11.4673 27.1324H18.3931C19.1547 26.7834 20.2152 26.302 21.2527 25.8389L20.8909 22.5L20.0962 16.875L26.1137 15.7721L25.8866 14.2279L20.0962 13.7868L18.5066 9.48529L13.511 8.82353L9.76424 11.5809L10.1049 18.75L10.5304 26.5003Z" fill="#131313"/>
</svg>
