<svg width="100" height="133" viewBox="0 0 100 133" fill="none" xmlns="http://www.w3.org/2000/svg">
<path d="M37.7386 76.076C37.6121 76.0477 37.4706 76.0161 37.3059 75.9844L37.3072 75.9806C37.3039 75.9821 37.2958 75.9882 37.2838 75.9972C37.2249 76.0414 37.0726 76.1557 36.9411 76.1355C36.1537 76.0141 36.0646 76.5712 36.0086 77.1085C35.956 77.5988 35.9717 78.0976 35.9872 78.5907L35.9884 78.6282C35.9994 78.9752 36.0199 79.3219 36.0405 79.6685C36.0638 80.0618 36.0872 80.4554 36.0965 80.8496C36.1014 81.0637 36.0947 81.2785 36.0881 81.4932C36.0683 82.1323 36.0485 82.77 36.3324 83.3815C36.4117 83.5526 36.4294 83.7704 36.4215 83.9655C36.3749 85.0668 36.3231 86.1682 36.2712 87.2697C36.2434 87.8599 36.2156 88.4502 36.1886 89.0405C36.1844 89.1493 36.1884 89.2588 36.1925 89.3681C36.195 89.4352 36.1975 89.5023 36.198 89.5691C36.2007 89.8883 36.2011 90.2077 36.2015 90.5272C36.2023 91.2378 36.2031 91.9489 36.2295 92.6583C36.2589 93.4266 36.3069 94.2013 36.4429 94.9538C36.5299 95.4296 36.8805 95.8442 37.4217 95.7378C38.0848 95.6078 38.6058 95.839 39.1588 96.1234C39.8161 96.4603 40.317 96.2765 40.7533 95.7064C40.9993 95.3863 41.2861 95.0562 41.6274 94.8604C42.5162 94.3512 43.0522 93.5976 43.3732 92.6436C43.4197 92.5064 43.5591 92.3903 43.6802 92.2894L43.6924 92.2793C43.7522 92.2295 43.8243 92.1908 43.8956 92.1525C43.9997 92.0966 44.102 92.0417 44.1619 91.9549C44.3122 91.7371 44.443 91.5037 44.5739 91.2704C44.9233 90.6471 45.2727 90.0237 45.9922 89.6976C46.0774 89.6596 46.1265 89.5429 46.1764 89.4245C46.2021 89.3634 46.2279 89.3019 46.2591 89.2505C46.32 89.1492 46.383 89.0489 46.4459 88.9487C46.5343 88.808 46.6228 88.6671 46.7058 88.523C46.8906 88.2022 47.0734 87.88 47.2562 87.5579C47.4608 87.1972 47.6655 86.8365 47.873 86.4776C47.9569 86.3325 48.0496 86.1819 48.1699 86.0689C48.2619 85.9831 48.3648 85.9065 48.4673 85.8302C48.6341 85.7061 48.7997 85.5828 48.9153 85.422C48.984 85.326 49.0355 85.2114 49.0865 85.098C49.2333 84.7714 49.376 84.4539 49.9138 84.6141C49.9454 84.6234 50.0216 84.5378 50.0526 84.4834C50.128 84.3501 50.2091 84.2187 50.2903 84.0872C50.4852 83.7713 50.6804 83.4552 50.7965 83.1129C51.0483 82.3627 51.3227 82.1879 52.1614 82.5993L52.1757 82.5296C52.2822 82.0096 52.3816 81.5242 52.4866 81.007C52.2814 81.0144 52.0747 81.0466 51.8736 81.078C51.1704 81.1877 50.5357 81.2867 50.2713 80.272L49.6237 80.7165C49.5928 80.6561 49.5628 80.5974 49.5331 80.5392L49.466 80.4076C49.3796 80.2383 49.2914 80.0653 49.185 79.8581C49.1033 79.9302 49.023 79.9937 48.9469 80.0538C48.7961 80.173 48.6617 80.2791 48.5666 80.4128C48.1446 81.0041 47.7299 81.6013 47.3151 82.1986C46.9785 82.6834 46.6418 83.1683 46.3011 83.6501C46.2392 83.7365 46.1382 83.796 46.0386 83.8546C46.0023 83.876 45.966 83.8973 45.9321 83.9197C45.2347 84.3798 44.6916 84.9375 44.5648 85.8306C44.4952 86.3223 44.3185 86.7733 43.7276 86.8953C43.5829 86.9251 43.3913 87.0971 43.3565 87.2364C43.1949 87.8859 42.7788 88.3505 42.3617 88.8162C42.2663 88.9227 42.1709 89.0292 42.0785 89.138C41.9604 89.2765 41.8507 89.4224 41.7409 89.5685C41.632 89.7132 41.5229 89.8583 41.4057 89.9962C41.1609 90.2842 40.8979 90.5561 40.6329 90.8259C40.5653 90.8954 40.4848 90.9524 40.4044 91.0093C40.3837 91.024 40.363 91.0387 40.3425 91.0535C40.3272 91.0646 40.3121 91.0758 40.2972 91.0872C40.2766 91.043 40.2495 90.9983 40.2224 90.9536C40.1629 90.8555 40.1035 90.7575 40.1128 90.6656C40.1295 90.4975 40.1694 90.329 40.2091 90.1612C40.2678 89.9131 40.3262 89.6665 40.3089 89.4248C40.2638 88.7905 40.1928 88.1585 40.1218 87.5266C40.052 86.9056 39.9823 86.2847 39.9371 85.6618C39.9173 85.3867 39.8463 85.1287 39.7748 84.8686C39.6716 84.4935 39.5671 84.1139 39.6131 83.6718C39.669 83.1288 39.6803 82.581 39.6917 82.0315C39.7053 81.3688 39.7191 80.7035 39.8112 80.0408C39.8828 79.5229 39.9232 78.7699 39.6332 78.4875C39.1695 78.037 39.1679 77.5772 39.1662 77.0685L39.166 77.0178C39.1634 76.4323 38.942 76.2015 38.353 76.1788C38.1648 76.1711 37.9786 76.1295 37.7386 76.076Z" fill="#131313"/>
<path fill-rule="evenodd" clip-rule="evenodd" d="M40.8218 0.761447L40.2036 0.550801C40.1029 0.608595 40.0038 0.670428 39.9047 0.732217C39.6558 0.887429 39.4072 1.04242 39.1375 1.13232C39.0588 1.15822 38.9434 1.05464 38.8213 0.945052C38.7472 0.878511 38.6706 0.809758 38.5983 0.766438C38.559 0.742892 38.5171 0.715355 38.474 0.687051C38.3135 0.581594 38.1368 0.465501 38.0193 0.505612C37.6113 0.644466 37.2201 0.836122 36.8293 1.02762C36.7136 1.0843 36.5979 1.14097 36.4819 1.19625C36.4302 1.22066 36.3786 1.25933 36.328 1.29729C36.2441 1.36013 36.1629 1.42106 36.088 1.41227C35.3563 1.32323 35.0835 1.79403 34.8125 2.26187C34.7158 2.42883 34.6193 2.59542 34.5023 2.73605C34.1465 3.16277 33.8085 3.61104 33.5089 4.0809C33.2741 4.45098 33.0731 4.84324 32.8723 5.23495C32.8204 5.3361 32.7686 5.43721 32.7162 5.53789C32.6943 5.58025 32.6899 5.63871 32.6858 5.69428C32.6807 5.76155 32.676 5.8246 32.6409 5.84975C32.0726 6.253 31.7901 6.84368 31.5075 7.43462C31.4056 7.64755 31.3038 7.86061 31.1885 8.06484C31.008 8.38427 30.8168 8.69853 30.6256 9.0128C30.2944 9.55714 29.9631 10.1016 29.6874 10.6729C29.4806 11.1015 29.3446 11.5652 29.2085 12.0296C29.1323 12.2892 29.0562 12.549 28.9675 12.8029C28.9305 12.9094 28.8597 13.0038 28.7886 13.0987C28.7451 13.1567 28.7015 13.2149 28.6654 13.2761C28.3837 13.7506 28.1057 14.2264 27.8322 14.7052C27.6887 14.955 27.5495 15.207 27.4102 15.4592C27.3421 15.5824 27.2739 15.7058 27.2053 15.8289C27.1128 15.7988 27.0191 15.7683 26.927 15.7369C26.9281 15.6003 26.9192 15.4606 26.9103 15.3209C26.8906 15.0112 26.8709 14.7016 26.9596 14.4262C27.3025 13.3582 26.9091 12.5096 25.8679 12.1549C25.573 12.0544 25.2957 11.9047 25.0178 11.7546C24.8257 11.6508 24.6333 11.5469 24.4345 11.4589C24.2983 11.3984 24.0271 11.3879 23.9613 11.4714C23.5735 11.9601 23.3483 11.6757 23.1358 11.4072C23.1052 11.3685 23.0748 11.3302 23.0443 11.2945C22.3635 10.4991 21.5286 10.1582 20.5041 10.4333C19.9207 10.5904 19.4928 10.5547 19.0809 10.002C18.6152 9.3745 18.1061 9.50045 17.8349 10.2468C17.7661 10.4367 17.7349 10.6398 17.7037 10.8433C17.6752 11.0291 17.6466 11.2152 17.5893 11.3918C17.5158 11.6182 17.4119 11.8349 17.3081 12.0517C17.2352 12.2037 17.1623 12.3558 17.0998 12.5115C17.0058 12.7435 16.9283 12.9883 16.8932 13.2347C16.8834 13.3066 16.9103 13.3833 16.9372 13.4597C16.9644 13.5369 16.9914 13.6138 16.9805 13.6853C16.9469 13.904 16.9169 14.1241 16.8868 14.3444C16.7938 15.0269 16.7005 15.7113 16.4999 16.3614C16.3267 16.9209 16.2537 17.4101 16.3688 17.9746C16.4222 18.2386 16.3684 18.61 16.2127 18.8153C15.9071 19.2168 15.943 19.5651 16.0017 20.0384C16.0842 20.6992 16.0709 21.4459 15.8463 22.0628C15.7779 22.2504 15.708 22.4372 15.6382 22.6237C15.1968 23.8033 14.7596 24.9717 14.7333 26.2675C14.7243 26.7597 14.6407 27.2521 14.5573 27.743C14.5316 27.8945 14.5059 28.0459 14.4824 28.1971C14.4601 28.3406 14.3783 28.4836 14.2938 28.6059C13.5737 29.6443 13.2581 30.7667 13.4748 32.0339C13.5168 32.2826 13.456 32.6333 13.303 32.8184C12.9848 33.2 13.0027 33.5153 13.2492 33.8973C13.5575 34.3752 13.5119 34.8369 13.3133 35.3977C13.1397 35.888 13.0848 36.4219 13.0302 36.9538C13.0106 37.1437 12.9911 37.3333 12.9663 37.5205C12.9469 37.6658 12.9482 37.8215 12.9495 37.9761C12.9518 38.2585 12.9541 38.5372 12.8306 38.7425C12.2991 39.6294 12.1866 40.6016 12.0744 41.5699C12.0374 41.8896 12.0005 42.2088 11.9485 42.5245C11.7876 43.5036 11.6816 44.4914 11.5755 45.4795C11.5166 46.0286 11.4577 46.5777 11.3893 47.1254C11.3526 47.4197 11.3007 47.7125 11.2488 48.0053C11.1819 48.3825 11.115 48.7597 11.0805 49.1399C11.0298 49.7069 10.9954 50.2755 10.961 50.844C10.9196 51.5286 10.8782 52.2133 10.8083 52.8953C10.7526 53.4398 10.6016 53.9913 10.3969 54.5006C9.74777 56.111 9.49681 57.7709 9.536 59.5C9.54171 59.7471 9.40861 59.9963 9.2741 60.2481C9.20017 60.3865 9.12581 60.5257 9.07385 60.6658C8.97362 60.9367 8.88573 61.2202 8.84487 61.5043C8.80203 61.8066 8.78197 62.111 8.76189 62.4158C8.75352 62.5429 8.74514 62.6701 8.7351 62.7971C8.72785 62.8895 8.71771 62.9818 8.70759 63.0741C8.68619 63.2692 8.66481 63.4641 8.67067 63.6578C8.68801 64.2368 8.71742 64.8156 8.74682 65.3942C8.75863 65.6266 8.77047 65.8596 8.78149 66.092C8.78274 66.1218 8.78912 66.1549 8.79547 66.1879C8.80775 66.2518 8.81992 66.3151 8.79456 66.3521C8.26038 67.1153 8.28557 67.9521 8.31074 68.7881C8.32377 69.221 8.33679 69.6537 8.27215 70.0759C8.25215 70.2056 8.21884 70.3338 8.18545 70.4622C8.16289 70.549 8.14028 70.636 8.12174 70.7237C8.04636 71.0747 7.97684 71.4273 7.90734 71.7797C7.75411 72.5566 7.601 73.333 7.38543 74.0922C7.19515 74.7638 7.2257 75.4262 7.25621 76.0877C7.27186 76.4269 7.2875 76.7658 7.27333 77.1057C7.25901 77.4453 7.16531 77.7838 7.07224 78.1201C7.0463 78.2138 7.02036 78.3075 6.99625 78.4008C6.94771 78.5898 6.8945 78.7759 6.8414 78.9617C6.68132 79.5218 6.52218 80.0786 6.49472 80.697C6.45046 81.7019 6.16729 82.7091 5.89077 83.6928L5.85894 83.8061C5.56664 84.8475 5.34316 85.8743 5.2971 86.9671C5.2772 87.454 5.14843 87.9352 5.01934 88.4175C4.91911 88.792 4.81869 89.1672 4.76885 89.5465C4.67867 90.2331 4.6313 90.925 4.58391 91.6171C4.5507 92.1022 4.51748 92.5874 4.46951 93.071C4.43088 93.4589 4.33596 93.8572 4.18155 94.2141C4.10354 94.3947 4.01824 94.5728 3.93307 94.7506C3.56702 95.5149 3.2034 96.274 3.43097 97.1993C3.46408 97.3315 3.39275 97.4899 3.32083 97.6496C3.28517 97.7287 3.24937 97.8082 3.22607 97.885C3.17203 98.0616 3.11126 98.2375 3.05047 98.4134C2.91006 98.8198 2.76948 99.2266 2.71106 99.6442C2.62842 100.237 2.57689 100.834 2.52536 101.431C2.47134 102.056 2.41732 102.682 2.32749 103.302C2.29 103.564 2.16976 103.812 2.04892 104.061C1.94681 104.271 1.84428 104.483 1.79087 104.704C1.74566 104.891 1.69235 105.077 1.63895 105.263C1.43851 105.962 1.23685 106.666 1.4576 107.42C1.51625 107.62 1.493 107.852 1.46911 108.065C1.45474 108.201 1.42252 108.339 1.39046 108.476C1.3338 108.718 1.27764 108.959 1.32127 109.18C1.44727 109.824 1.2869 110.425 1.12799 111.021C1.00701 111.475 0.886889 111.925 0.894591 112.389C0.9104 113.336 1.06713 114.297 1.30466 115.213C1.46543 115.831 2.10045 115.911 2.54702 115.433C2.77334 115.19 2.96395 114.914 3.15854 114.632C3.24502 114.507 3.33263 114.38 3.42418 114.255L3.45027 114.267C4.33886 114.702 4.37095 114.718 5.14626 113.891C5.63364 113.371 6.08023 113.363 6.66365 113.681C6.8636 113.79 7.10719 113.819 7.35102 113.848C7.46382 113.861 7.57689 113.875 7.6855 113.896C7.73831 113.907 7.79207 113.915 7.84584 113.923C7.98274 113.944 8.11966 113.965 8.24097 114.022C8.72836 114.25 9.21652 114.484 9.68098 114.755C10.2162 115.068 10.7371 115.404 11.2582 115.74L11.2611 115.742L11.2632 115.743C11.3718 115.814 11.4805 115.884 11.5892 115.953C11.6225 115.975 11.6468 116.013 11.6705 116.05C11.6972 116.092 11.7232 116.132 11.7607 116.147C12.1155 116.293 12.4721 116.434 12.8288 116.575C13.3163 116.768 13.8038 116.961 14.2868 117.165C14.6896 117.335 15.0835 117.528 15.4775 117.72L15.4788 117.721L15.4799 117.721C15.6228 117.791 15.7658 117.861 15.9092 117.929C15.9467 117.947 15.9837 117.976 16.02 118.004C16.0787 118.049 16.1358 118.093 16.1901 118.087C16.6812 118.035 17.0844 118.243 17.4866 118.451C17.7624 118.593 18.0376 118.735 18.3403 118.793C18.445 118.813 18.5542 118.808 18.6638 118.803C18.7464 118.799 18.8292 118.795 18.9103 118.802C18.9305 118.804 18.9521 118.806 18.9743 118.807C19.1052 118.816 19.2608 118.827 19.3138 118.902C19.6844 119.425 20.1668 119.533 20.7604 119.403C20.921 119.367 21.1225 119.399 21.2736 119.469C21.4368 119.544 21.6008 119.618 21.765 119.692C22.371 119.964 22.9777 120.237 23.5398 120.582C23.8309 120.76 24.0625 121.039 24.2931 121.317C24.3865 121.43 24.4799 121.543 24.5768 121.648C24.609 121.683 24.6303 121.734 24.6508 121.784C24.6769 121.847 24.7016 121.906 24.7458 121.923C24.9728 122.008 25.1953 122.11 25.4186 122.213C26.0285 122.493 26.6442 122.775 27.3741 122.717C27.3755 122.515 27.3762 122.342 27.377 122.165C27.3775 122.048 27.3781 121.929 27.3788 121.799C27.9148 121.917 28.269 122.145 28.6828 122.443C28.8078 122.532 28.9269 122.651 29.0497 122.772C29.4455 123.165 29.8786 123.594 30.6629 123.225C31.005 123.063 31.9082 122.737 32.2175 123.71C32.2876 123.931 32.5826 124.084 32.8591 124.227C32.94 124.269 33.0193 124.31 33.0909 124.351C33.1823 124.405 33.3874 124.369 33.4801 124.296C34.0009 123.886 35.0524 124.014 35.4622 124.573C35.9016 125.172 36.4055 125.445 37.1954 125.248C38.1915 125 38.2253 125.054 38.7012 125.825L38.7073 125.835C38.7323 125.876 38.7586 125.918 38.7862 125.963C38.9707 126.261 39.356 126.504 39.6994 126.613C39.8228 126.652 39.9452 126.688 40.0665 126.724C40.7249 126.919 41.3506 127.104 41.9306 127.661C42.523 128.23 43.4295 128.687 44.4627 128.419C45.4925 128.153 46.386 128.587 47.0958 129.227C47.1724 129.15 47.2537 129.055 47.3321 128.963C47.4941 128.773 47.6433 128.599 47.7106 128.626C47.9409 128.721 48.1336 128.91 48.3253 129.098C48.388 129.159 48.451 129.221 48.5147 129.279C48.5787 129.337 48.6394 129.411 48.6997 129.484C48.8172 129.627 48.9331 129.768 49.0683 129.786C49.5721 129.855 50.0841 129.866 50.5959 129.877C50.7607 129.88 50.9255 129.884 51.09 129.889C51.4167 129.9 51.7432 129.905 52.0796 129.91L52.0811 129.91L52.0948 129.91C52.217 129.912 52.3405 129.914 52.4659 129.916C52.6713 129.503 53.3866 129.309 53.8984 129.592L53.9067 129.597C54.198 129.759 54.4189 129.882 54.7746 129.611C55.1445 129.33 55.6118 129.454 55.8682 129.848C56.1397 130.263 56.3883 130.72 56.5181 131.196C56.7104 131.897 57.143 132.271 57.6572 132.449C57.8073 132.307 57.9526 132.173 58.0937 132.043C58.4148 131.747 58.7134 131.471 58.9935 131.177C59.2628 130.895 59.427 130.991 59.6292 131.234C59.9501 131.622 60.2119 131.815 60.3885 131.086C60.4136 130.983 60.4641 130.887 60.5145 130.791C60.626 130.578 60.7365 130.368 60.5672 130.089C60.5324 130.032 60.6411 129.831 60.7326 129.757C61.5036 129.138 61.6524 128.263 61.8069 127.354L61.8079 127.349C61.8319 127.207 61.8503 127.062 61.8688 126.916C61.9605 126.192 62.0545 125.451 62.8522 125.04C62.9346 124.997 63.0079 124.793 62.9803 124.695C62.8772 124.328 63.0481 124.184 63.3476 124.038C63.4626 123.981 63.5214 123.734 63.5423 123.566C63.5536 123.475 63.5389 123.379 63.5243 123.284C63.5082 123.179 63.4921 123.074 63.5111 122.975C63.5269 122.893 63.5397 122.808 63.5524 122.724C63.6288 122.217 63.7054 121.708 64.4576 121.658C64.7257 121.641 64.9361 121.458 64.7575 121.032C64.6525 120.781 64.7246 120.437 64.7907 120.123C64.8022 120.068 64.8136 120.014 64.8238 119.961C64.8549 119.8 64.9114 119.641 64.9678 119.484C65.0404 119.28 65.1127 119.078 65.1299 118.871C65.1795 118.275 65.2679 117.777 65.9721 117.657C66.0954 117.636 66.3042 117.41 66.2883 117.379C66.0035 116.833 66.2593 116.435 66.5156 116.037C66.6777 115.785 66.8401 115.533 66.866 115.243C66.9274 114.555 67.3808 114.171 68.0264 113.958C68.1338 113.924 68.1805 113.516 68.155 113.292C68.143 113.189 68.0668 113.066 67.9995 112.958C67.9298 112.845 67.8697 112.748 67.9007 112.705C68.0775 112.456 68.3165 112.25 68.5536 112.045C68.6121 111.995 68.6709 111.944 68.7282 111.893C68.7644 111.862 68.8204 111.854 68.8846 111.845C68.918 111.84 68.9536 111.835 68.9898 111.826C68.8862 111.199 68.8121 110.607 69.6027 110.38C69.6857 110.356 69.7315 110.037 69.7238 109.859C69.6921 109.122 69.7984 108.469 70.4053 107.94C70.5313 107.83 70.5775 107.627 70.624 107.422C70.6469 107.322 70.6698 107.221 70.7023 107.131C70.7134 107.099 70.7244 107.067 70.7354 107.036C70.7925 106.872 70.8497 106.707 70.9285 106.554C70.9603 106.492 70.9934 106.43 71.0265 106.368C71.2833 105.888 71.5364 105.415 71.1771 104.839C70.9819 104.527 71.1348 104.314 71.4652 104.277C72.3701 104.174 72.9915 103.848 72.8874 102.756C72.8573 102.448 72.9562 102.103 73.0792 101.81C73.1587 101.621 73.289 101.452 73.4342 101.265C73.5019 101.177 73.5729 101.086 73.6434 100.986L73.5692 100.847C73.5427 100.797 73.5114 100.738 73.479 100.677C74.2086 100.526 74.2229 100.318 74.2714 99.6117L74.2777 99.5214C74.3358 98.7038 74.4897 97.649 75.0169 97.1748C75.4917 96.7491 75.8212 96.2401 75.884 95.8096C76.0203 94.8802 76.4726 94.259 77.0115 93.5501C77.2549 93.2303 77.3023 92.7641 77.3505 92.2913C77.3771 92.0297 77.404 91.7661 77.4644 91.524C77.5508 91.1751 77.6659 90.7256 77.9204 90.544C78.335 90.2485 78.4669 89.8198 78.5978 89.3941C78.6946 89.0793 78.7908 88.7663 79.0005 88.51C79.146 88.3321 79.2566 88.1259 79.3612 87.9309C79.4066 87.8461 79.4509 87.7635 79.4965 87.6862C79.5132 87.5784 79.5263 87.4688 79.5394 87.3588C79.5694 87.1075 79.5997 86.854 79.6743 86.6142C79.7747 86.2925 79.9189 85.9848 80.0626 85.6781C80.1025 85.5931 80.1424 85.5079 80.1812 85.4228C80.1961 85.3907 80.211 85.355 80.2264 85.3183C80.2852 85.178 80.3504 85.0223 80.445 84.993C81.0463 84.8063 80.9399 84.435 80.8199 84.016L80.818 84.0097C80.8114 83.9865 80.8047 83.9632 80.7982 83.9398C80.6004 83.2383 80.7599 82.9481 81.458 82.7722C81.8273 82.6777 81.9789 82.5006 81.9579 82.1249C81.9013 81.1264 82.4532 80.4122 83.0051 79.6981C83.0828 79.5976 83.1604 79.4971 83.2364 79.3958L83.2483 79.3802C83.2574 79.3684 83.2667 79.3565 83.276 79.3445C83.3418 79.2603 83.4104 79.1725 83.4349 79.0765C83.5053 78.7955 83.5704 78.513 83.6355 78.2306C83.7331 77.807 83.8307 77.3834 83.9462 76.9644C83.9791 76.8441 84.0839 76.7425 84.1877 76.642C84.2072 76.623 84.2267 76.6042 84.2457 76.5852C84.2666 76.5643 84.2869 76.5433 84.3058 76.5221C84.3337 76.4908 84.3754 76.4589 84.4152 76.4284C84.4774 76.3807 84.535 76.3366 84.5283 76.3041C84.4044 75.7022 84.7193 75.329 85.0363 74.9533C85.1711 74.7935 85.3064 74.6332 85.4083 74.4547C85.5632 74.1828 85.6162 73.8547 85.6697 73.5238C85.7016 73.3265 85.7337 73.1281 85.7876 72.9401L85.7955 72.9126C85.9041 72.5364 86.0179 72.1421 86.2296 71.8255C86.3537 71.6399 86.483 71.4579 86.6122 71.276C87.0403 70.6733 87.4674 70.0719 87.6998 69.3495C87.7076 69.3253 87.7187 69.2998 87.7298 69.274C87.7562 69.2131 87.783 69.1512 87.7677 69.1043C87.4594 68.1478 87.9929 67.6022 88.6851 67.108C88.7824 67.0381 88.8602 66.7638 88.8062 66.6776C88.5918 66.3393 88.7271 66.0993 88.8829 65.8231C88.9038 65.7861 88.925 65.7484 88.9458 65.7098C89.296 65.0608 89.6188 64.3961 89.9416 63.7315L89.9426 63.7293C90.0502 63.5079 90.1577 63.2865 90.2662 63.0657C90.3519 62.8918 90.4345 62.7166 90.517 62.5415C90.6664 62.2245 90.8159 61.9074 90.9829 61.5997C91.0125 61.5451 91.0429 61.4908 91.0732 61.4366L91.0737 61.4356C91.3203 60.9948 91.5628 60.5614 91.3671 60.0134C91.3485 59.9619 91.3751 59.8467 91.4119 59.8281C91.9761 59.5542 92.1357 59.024 92.2959 58.4918C92.4385 58.0179 92.5817 57.5424 93.0113 57.2451C93.0814 57.1967 93.0872 57.0651 93.0935 56.924C93.0982 56.817 93.1031 56.7045 93.1365 56.6184C93.3081 56.1779 93.4973 55.7442 93.6864 55.3107L93.6867 55.31C93.7469 55.172 93.8071 55.034 93.8667 54.8958C93.8876 54.8483 93.9203 54.7965 93.9525 54.7454C94.0134 54.6487 94.0728 54.5546 94.0478 54.4972C93.8359 54.0073 94.0709 53.6665 94.3049 53.3271C94.4523 53.1134 94.5992 52.9002 94.634 52.6507C94.6438 52.5797 94.6628 52.5094 94.6818 52.4391C94.7033 52.3597 94.7247 52.2803 94.7328 52.2C94.7382 52.1525 94.7247 52.1003 94.7115 52.0495C94.6956 51.9882 94.6802 51.9289 94.6992 51.882C95.0708 50.9707 95.4541 50.0662 95.8414 49.1616C95.8743 49.0853 95.9412 49.0149 96.0091 48.966C96.4541 48.6497 96.5912 48.2539 96.4203 47.7787C96.6059 47.6365 96.7968 47.4912 97.005 47.3327L97.3357 47.0808C96.954 46.7375 97.0404 46.4379 97.3277 46.0614C97.4558 45.8933 97.5102 45.6698 97.5651 45.4437C97.5981 45.3079 97.6313 45.1711 97.6809 45.0449C97.8095 44.7188 97.9503 44.3979 98.0912 44.0768L98.0924 44.074C98.1689 43.8996 98.2454 43.7252 98.3201 43.5497C98.3314 43.5235 98.346 43.4942 98.3609 43.464C98.4064 43.3724 98.4556 43.2733 98.4279 43.232C98.1522 42.8266 98.2679 42.4507 98.3856 42.0682C98.428 41.9304 98.4706 41.7919 98.4953 41.6508C98.7212 40.3551 98.9289 39.0518 99.0342 37.7433C99.0852 37.1107 98.6347 36.7777 98.1917 36.4502C98.064 36.3557 97.9368 36.2618 97.8225 36.1612C97.6654 36.0229 97.5081 35.8648 97.4056 35.6844C97.3805 35.6404 97.3561 35.5956 97.3319 35.551C97.1209 35.1625 96.919 34.7908 96.3259 35.1118C96.2559 35.1508 96.1201 35.0824 96.0123 35.0281L95.992 35.0179L95.9737 35.0088C95.9387 34.9916 95.9063 34.9512 95.8766 34.9141C95.8426 34.8717 95.812 34.8335 95.7845 34.8384C95.2041 34.9366 94.7992 34.6404 94.3942 34.3441C94.231 34.2248 94.0678 34.1054 93.8931 34.0118C93.5008 33.8019 93.0927 33.7122 92.8795 34.2751C92.244 34.0049 91.6818 33.9602 91.0308 34.2185C90.4106 34.4634 90.3943 34.7854 90.5207 35.0756C90.3655 35.3 90.2162 35.5144 90.0717 35.722C89.7319 36.2101 89.4181 36.6609 89.1134 37.1169C88.8093 37.5728 88.5135 38.0344 88.2129 38.5036L88.2125 38.5043C88.0862 38.7014 87.9589 38.9001 87.8299 39.1C87.7459 38.9563 87.6724 38.8173 87.6023 38.6849C87.4549 38.4063 87.3229 38.1567 87.1408 37.953C86.5724 37.3173 86.2611 36.6111 86.2107 35.7452C86.1993 35.5523 86.0824 35.3674 85.9651 35.1817C85.9089 35.0927 85.8525 35.0034 85.8075 34.913C85.7764 34.8509 85.7404 34.7892 85.7044 34.7275C85.616 34.5761 85.5273 34.4241 85.5089 34.2634C85.4798 34.0075 85.4241 33.753 85.3684 33.4983C85.2279 32.8567 85.0871 32.2136 85.3703 31.5429C85.4216 31.4205 85.4333 31.2141 85.3657 31.1191C84.9601 30.5516 84.534 29.9997 84.0961 29.4579C84.0115 29.3514 83.8328 29.2439 83.712 29.2607C83.2376 29.3245 82.971 29.0517 82.7043 28.7789C82.5851 28.657 82.4659 28.5351 82.3282 28.4432L82.3001 28.4242L82.2683 28.4024C82.0878 28.2789 81.8722 28.1313 81.7044 28.1629C81.3054 28.2388 81.1905 28.1234 81.1792 27.7396C81.135 26.2828 80.4145 25.351 79.0918 24.7831C78.2595 24.4261 77.6341 23.7456 77.068 23.0175C76.7658 22.6278 76.3727 22.2976 75.9725 22.0087C75.8119 21.8933 75.51 21.9034 75.2939 21.9555C74.4858 22.149 74.0594 21.9416 73.7819 21.1889C73.7228 21.0276 73.6304 20.7927 73.5072 20.7592C72.977 20.6154 72.7053 20.2144 72.435 19.8156C72.2693 19.5712 72.1042 19.3275 71.8804 19.1444C71.7373 19.027 71.5539 18.9592 71.3703 18.8913C71.2894 18.8614 71.2084 18.8315 71.1309 18.7973C71.1222 18.7936 71.1095 18.7956 71.0975 18.7975C71.0843 18.7996 71.0722 18.8015 71.0677 18.7955C70.7666 18.4063 70.3151 18.2066 69.8633 18.0067C69.2133 17.7193 68.5625 17.4315 68.3574 16.5785C68.1374 15.6659 67.4283 15.4321 66.7179 15.1979C66.5348 15.1376 66.3517 15.0772 66.1768 15.0052C65.7359 14.8239 65.3105 14.6013 64.8905 14.3749C64.8254 14.34 64.7709 14.2783 64.7173 14.2177C64.6518 14.1437 64.5878 14.0713 64.5077 14.051C64.2132 13.9749 63.9137 13.9193 63.6141 13.8638C63.4075 13.8254 63.2009 13.7871 62.9958 13.742C62.8385 13.7068 62.6626 13.6483 62.5502 13.5422C62.0211 13.0442 62.0057 13.0404 61.7261 13.6356C61.5143 13.5394 61.2908 13.4567 61.0674 13.374C60.5703 13.19 60.0739 13.0063 59.7096 12.6746C59.117 12.1345 58.527 12.1934 57.9208 12.254C57.6867 12.2774 57.4501 12.301 57.2101 12.2904C57.0788 12.2849 56.9356 12.2938 56.7869 12.3031C56.239 12.3375 55.6169 12.3764 55.24 11.7082C55.155 11.5578 54.6874 11.5495 54.4192 11.6036C53.8893 11.7105 53.3654 11.8519 52.8415 11.9933C52.632 12.0499 52.4223 12.1065 52.2124 12.1608L52.1982 12.1645C52.1589 12.1749 52.1146 12.1866 52.0828 12.1745C50.9266 11.7171 49.7898 11.9468 48.6566 12.305C48.5997 12.3231 48.5381 12.3357 48.4767 12.3482C48.3487 12.3744 48.2212 12.4004 48.1363 12.4765C47.5221 13.0312 47.1371 13.1104 46.4841 12.6055C46.1774 12.3683 45.9874 12.3925 45.6828 12.5542C45.6489 12.5721 45.6151 12.5904 45.5813 12.6087C45.1597 12.837 44.7356 13.0667 44.3223 12.4409C44.2561 12.3401 44.056 12.3453 43.8381 12.3509C43.6706 12.3553 43.4926 12.3599 43.357 12.3167C42.9596 12.1912 42.7796 12.329 42.5495 12.6432C42.4598 12.7642 42.2709 12.8113 42.0822 12.8584C41.9967 12.8798 41.9112 12.9011 41.8349 12.9293C41.8347 12.85 41.8359 12.7706 41.8371 12.6913C41.8397 12.5232 41.8423 12.3549 41.8311 12.188C41.7928 11.5967 42.1149 11.1929 42.4368 10.7894C42.6329 10.5435 42.829 10.2977 42.9435 10.0096C43.0414 9.76195 43.1638 9.52403 43.3997 9.32763C43.3722 9.16039 43.345 8.99386 43.3182 8.82997L43.2746 8.56339C43.7739 8.25047 43.9808 7.7778 44.1904 7.29906C44.2589 7.14241 44.3278 6.98504 44.4073 6.83247C44.5655 6.52942 44.5216 6.27312 44.4794 6.02616C44.4496 5.85201 44.4206 5.6825 44.4638 5.5045C44.4923 5.38647 44.5274 5.26744 44.5626 5.14816C44.6543 4.83756 44.7465 4.52527 44.7232 4.2245C44.6919 3.81526 44.5822 3.41245 44.4576 2.95508C44.4004 2.74482 44.34 2.523 44.2826 2.28375C44.0883 2.42169 43.9305 2.5339 43.7877 2.63544C43.5988 2.76981 43.4357 2.88576 43.2495 3.01771C43.1926 2.92933 43.1321 2.83337 43.0687 2.73272C42.9388 2.5265 42.7961 2.30008 42.6464 2.07932C42.4022 1.71932 42.1158 1.56949 41.6415 1.71575C41.009 1.91119 40.6632 1.47422 40.8218 0.761447ZM87.4602 52.2822L87.4595 52.2821L87.4604 52.2795L87.4602 52.2822ZM87.4723 52.284C87.5211 51.9636 87.5715 51.6464 87.6227 51.3308C87.5999 51.3225 87.5772 51.3141 87.5545 51.3055C87.5162 51.291 87.478 51.2763 87.4398 51.2615L87.4382 51.2609C87.5009 51.2257 87.5633 51.1904 87.6257 51.155L87.6279 51.1538C87.6893 51.119 87.7507 51.0842 87.8125 51.0495C87.6049 50.291 87.9097 49.5688 88.5923 49.3198C88.3256 49.0383 88.2412 48.7553 88.4863 48.5197C88.5161 48.3577 88.5412 48.1941 88.5663 48.0305C88.623 47.6614 88.6799 47.2916 88.7905 46.94C89.0041 46.2573 88.7599 45.6191 88.1156 45.3135C88.0164 45.2666 87.9453 45.1614 87.8596 45.0345C87.8151 44.9686 87.7667 44.8969 87.7084 44.8245C87.8006 44.7086 87.8994 44.5951 87.9987 44.4812C88.2326 44.2126 88.4689 43.9412 88.6273 43.6294C88.7385 43.4107 88.7504 43.141 88.7629 42.8571C88.7688 42.7254 88.7747 42.5906 88.7908 42.4565C88.9373 42.4132 89.1811 42.3409 89.4608 42.2569C89.1863 41.4912 89.3946 41.0326 90.165 40.8601C90.266 40.8366 90.361 40.5936 90.3879 40.4404C90.5117 39.7525 90.7791 39.1771 91.447 38.8694C91.5243 38.8336 91.6586 38.7692 91.6561 38.7274C91.6151 38.085 92.0128 37.853 92.4149 37.6184C92.5947 37.5135 92.7755 37.408 92.9183 37.2651C93.2879 37.771 93.6366 38.2484 93.973 38.709C94.8376 38.3611 95.5936 38.767 95.9352 39.7603C96.2069 40.5505 96.3951 41.3701 96.043 42.2034C96.0339 42.2253 96.0248 42.2477 96.0156 42.2703C95.9495 42.4328 95.8784 42.6076 95.7568 42.7074C95.0378 43.2961 94.7686 44.122 94.4962 44.9574L94.4855 44.9899C94.3991 45.257 94.2939 45.5671 94.0964 45.7399C93.5349 46.2335 93.4438 46.8577 93.3479 47.5495C93.2628 48.1644 93.101 48.769 92.9392 49.3735C92.8739 49.6173 92.8085 49.8615 92.7483 50.106C92.7343 50.1676 92.6963 50.2634 92.6542 50.273C91.9223 50.4482 91.7546 51.0084 91.5873 51.5676C91.5108 51.8233 91.4343 52.0787 91.3041 52.297C91.0033 52.8006 90.7164 53.3129 90.4295 53.8251L90.4289 53.8263C90.2962 54.0632 90.1636 54.3 90.0295 54.536C90.0069 54.5764 89.9821 54.6161 89.9573 54.6558C89.913 54.7269 89.8686 54.7981 89.8358 54.8739C89.768 55.0307 89.7085 55.1911 89.649 55.3517C89.6235 55.4203 89.5979 55.4893 89.5718 55.5578C89.5428 55.5354 89.5136 55.5133 89.4843 55.4912C89.4484 55.4643 89.4123 55.4375 89.3763 55.4107C89.2452 55.3133 89.1142 55.216 88.991 55.11C88.3815 54.5832 88.0433 53.944 88.2317 53.086L87.7018 52.9055C87.912 52.8369 88.1 52.7749 88.2797 52.7155C88.3842 52.6811 88.4859 52.6475 88.5875 52.6141C88.5827 52.5588 88.5791 52.504 88.5743 52.4487C88.254 52.4016 87.9332 52.3534 87.6131 52.3052L87.6068 52.3042L87.4723 52.284ZM87.4591 52.308C87.3202 52.3984 87.1813 52.4887 87.0427 52.5779L87.1965 52.6811C87.1617 52.7455 87.1241 52.809 87.0864 52.8724C87.002 53.0145 86.9176 53.1566 86.8665 53.31C86.7973 53.5138 86.7263 53.7763 86.7969 53.9528C86.85 54.0848 86.9758 54.1855 87.127 54.3063C87.2007 54.3653 87.2805 54.4291 87.3608 54.5037L87.405 53.5163C87.4243 53.0865 87.4418 52.6966 87.4591 52.308ZM55.455 92.991C55.3439 92.9912 55.2345 92.9907 55.1234 92.9909L55.1221 92.9905C55.0695 92.8307 55.0173 92.6706 54.9651 92.5105C54.9129 92.3505 54.8607 92.1904 54.8081 92.0306L54.6123 92.0062C54.5786 92.1685 54.5361 92.331 54.4936 92.4935C54.4006 92.8487 54.3075 93.2042 54.3063 93.5585C54.3032 94.7252 53.9119 95.6412 52.9575 96.3271C52.7668 96.4641 52.6518 96.7497 52.566 96.9902C52.3456 97.6113 51.479 98.337 50.9049 98.2826C50.796 98.2729 50.6959 98.1784 50.5805 98.0695C50.5233 98.0155 50.4623 97.958 50.3945 97.9054C50.3461 97.9987 50.3045 98.0977 50.2636 98.1952C50.1725 98.4122 50.0845 98.6218 49.9304 98.7457C49.7122 98.9212 49.4098 98.9962 49.1188 99.0683L49.1167 99.0688C49.0647 99.0817 49.0131 99.0945 48.9624 99.1078C48.8883 99.1279 48.8004 99.0879 48.7121 99.0479C48.6711 99.0293 48.63 99.0106 48.5903 98.998C48.0524 98.8246 47.5542 98.7466 47.4516 99.6832C47.2003 99.3561 47.0386 99.1457 46.9778 99.0671C46.7929 99.0835 46.6239 99.0986 46.465 99.1128C46.318 99.126 46.1796 99.1385 46.0454 99.1506L46.0368 99.1514L45.6753 99.1839L45.7445 99.2583C45.6561 99.3153 45.5695 99.3802 45.483 99.4452C45.2859 99.5931 45.0888 99.741 44.8699 99.7949C44.7459 99.8253 44.617 99.8353 44.4886 99.8453C44.1751 99.8697 43.864 99.8938 43.6316 100.213C43.5877 100.273 43.3505 100.273 43.2729 100.211C42.5895 99.6697 41.8508 99.7712 41.1131 99.8725C40.8177 99.9131 40.5226 99.9536 40.2312 99.9529C40.1585 99.9526 40.0841 99.9615 40.0101 99.9704C39.8836 99.9856 39.7583 100.001 39.6455 99.9694C39.4901 99.9254 39.3321 99.8849 39.1737 99.8443L39.1729 99.8441C38.6607 99.7128 38.1445 99.5805 37.6985 99.3272C37.2428 99.068 36.8406 98.7125 36.4332 98.3525C36.254 98.1942 36.0739 98.035 35.8877 97.8827C35.4758 98.2998 35.3614 98.022 35.2372 97.7204C35.167 97.5498 35.0937 97.3717 34.9616 97.3073C34.8899 97.4228 34.8198 97.5362 34.7393 97.6665L34.6058 97.8826C34.5514 97.9704 34.4916 98.0671 34.424 98.1762C34.1974 97.5963 34.022 97.1481 33.8554 96.7228C33.7979 96.7605 33.7426 96.7987 33.6884 96.8362C33.5664 96.9205 33.4499 97.0011 33.325 97.0632C33.1985 97.1261 33.0635 97.1723 32.9119 97.2242C32.8414 97.2483 32.7672 97.2737 32.6887 97.3025C32.6425 97.2211 32.5819 97.1153 32.5106 96.9908C32.4546 96.8931 32.392 96.7838 32.3246 96.6659C31.8293 96.9151 31.4377 96.8014 31.184 96.2688C31.1388 96.1729 30.9766 96.0865 30.8656 96.0826C30.1621 96.0618 30.0194 95.5825 29.9693 95.0062C29.9236 94.4865 29.8507 93.9857 29.2387 93.8097C29.1437 93.7829 29.0091 93.5987 29.0271 93.5173C29.1769 92.8522 28.8348 92.4099 28.4926 91.9675C28.3084 91.7295 28.1243 91.4914 28.0168 91.2186C27.9356 91.0122 27.8416 90.8125 27.7481 90.6138C27.4758 90.0356 27.2073 89.4653 27.2696 88.7582C27.3044 88.3528 27.2768 87.9438 27.2493 87.5343C27.2355 87.3298 27.2217 87.1253 27.2157 86.921C27.2145 86.8805 27.2111 86.837 27.2076 86.7925C27.1959 86.6427 27.1835 86.483 27.2524 86.3997C27.7105 85.8501 27.5882 85.2891 27.4662 84.7296C27.4124 84.4829 27.3587 84.2365 27.3548 83.9915C27.3544 83.9648 27.3468 83.9359 27.3393 83.9077C27.3282 83.8655 27.3175 83.8249 27.3323 83.796C27.5966 83.2942 27.5944 82.7376 27.5922 82.1888C27.59 81.6115 27.5877 81.043 27.8958 80.5565C27.994 80.4016 28.099 80.252 28.203 80.104C28.6558 79.4592 29.0888 78.8425 28.8489 77.9397C28.8397 77.9054 29.0871 77.7285 29.1788 77.7527C29.2809 77.779 29.3723 77.9513 29.4109 78.0789C29.4489 78.2045 29.4615 78.3389 29.4741 78.473C29.4795 78.5305 29.4849 78.5879 29.4923 78.6447C29.566 78.6443 29.6409 78.6444 29.7145 78.6441C29.7324 78.4994 29.7493 78.3546 29.7662 78.2098C29.8041 77.8857 29.842 77.5619 29.89 77.2395C29.9158 77.066 29.9263 76.8765 29.9368 76.6864C29.9622 76.2299 29.9877 75.7702 30.2256 75.5222C30.3227 75.4208 30.4148 75.2978 30.5096 75.1711C30.8406 74.7288 31.2046 74.2425 31.9316 74.4781C31.9606 74.3143 31.9883 74.1588 32.0151 74.0079C32.0514 73.8043 32.0861 73.6093 32.1205 73.4141C32.3759 73.4688 32.6318 73.5223 32.9799 73.5952L32.9837 73.596L32.9847 73.5962L33.0751 73.6151C33.1307 73.5835 33.1922 73.553 33.2562 73.5212C33.6525 73.3248 34.1436 73.0813 33.9316 72.2236C33.9652 72.2344 33.9993 72.245 34.0334 72.2555C34.0676 72.2661 34.1023 72.2768 34.1361 72.2877C34.2247 72.3727 34.3133 72.4581 34.4085 72.55C34.5045 72.6425 34.6073 72.7417 34.7239 72.8537C34.7468 72.7958 34.7705 72.7411 34.7934 72.6881C34.8391 72.5827 34.8817 72.4841 34.9091 72.3816C35.0539 71.8321 35.4 71.6465 35.9421 71.7012C36.0842 71.7158 36.3466 71.5806 36.379 71.4646C36.5593 70.8228 36.8876 70.7468 37.4076 71.1612C37.5386 70.9192 37.7792 70.8654 38.0203 70.8116C38.3054 70.7478 38.5911 70.684 38.6975 70.3086C38.7022 70.2904 39.0488 70.2997 39.1518 70.3928C39.2903 70.5162 39.3938 70.7266 39.4268 70.9157C39.4443 71.0169 39.4504 71.12 39.4567 71.2263C39.4669 71.399 39.4776 71.5798 39.5384 71.7728C39.8137 71.1662 40.2339 71.13 40.7815 71.0991C40.8975 71.0927 41.0187 71.08 41.141 71.0672C41.594 71.0196 42.0615 70.9706 42.331 71.2359C42.5768 71.4772 42.8413 71.4997 43.0933 71.5212C43.2863 71.5377 43.472 71.5535 43.6364 71.6665C43.9014 71.2866 44.0217 71.2838 45.1174 71.5922C45.2613 71.4463 45.3993 71.3055 45.5373 71.1647C45.5811 71.2115 45.6308 71.2561 45.6805 71.3007C45.789 71.398 45.8976 71.4954 45.9457 71.6174C46.1925 72.2437 46.6267 72.3916 47.255 72.3148C47.5059 72.2831 47.8662 72.4072 48.0332 72.5941C48.6941 73.3333 49.4173 73.7336 50.4464 73.4573C50.6722 73.3972 51.0603 73.5704 51.2259 73.7652C51.7936 74.4359 52.5414 74.7472 53.3283 75.0294C53.5758 75.118 53.8558 75.2741 53.9934 75.4862C54.0657 75.5974 54.1388 75.7084 54.212 75.8194C54.9924 77.0028 55.7773 78.1931 55.4958 79.7743C55.4772 79.8823 55.5378 80.0555 55.6216 80.1236C56.3906 80.7502 56.4472 81.6043 56.5037 82.4586C56.5203 82.7093 56.5369 82.9602 56.5716 83.2052C56.5788 83.2553 56.582 83.3122 56.5853 83.3699C56.5936 83.517 56.6023 83.6688 56.6776 83.7229C57.1352 84.0553 57.1027 84.4538 57.0067 84.9534C56.9264 85.368 56.8809 85.789 56.8355 86.21C56.7942 86.5922 56.7529 86.9745 56.6855 87.352C56.6414 87.5948 56.5336 87.8261 56.4256 88.0578C56.3692 88.1789 56.3126 88.3003 56.2652 88.4233C56.2292 88.5169 56.2089 88.6258 56.2154 88.7255C56.224 88.8581 56.2455 88.9933 56.267 89.1282C56.3088 89.3911 56.3505 89.653 56.2963 89.894C56.1292 90.6371 55.9182 91.3703 55.7073 92.1034C55.6223 92.399 55.5372 92.6947 55.455 92.991ZM38.1177 35.4942C38.0858 35.4821 38.0542 35.4701 38.0222 35.4592L38.0218 35.4604C37.9532 35.5028 37.8844 35.5451 37.8155 35.5873C37.7468 35.6295 37.6781 35.6717 37.6096 35.714L37.4679 35.653C37.4882 35.5932 37.5035 35.5219 37.5188 35.4507C37.5516 35.2972 37.5844 35.144 37.6672 35.1066C38.3236 34.813 38.3096 34.2683 38.2955 33.7217C38.2942 33.6729 38.293 33.6242 38.2922 33.5755C38.2915 33.5323 38.2488 33.4925 38.2037 33.4505C38.1673 33.4166 38.1294 33.3812 38.1107 33.3414C38.0562 33.2252 38.0166 33.1015 37.9845 33.0016C37.9735 32.9672 37.9633 32.9356 37.9538 32.9081C38.0705 32.8839 38.1861 32.8706 38.2914 32.8585C38.5002 32.8346 38.6686 32.8152 38.7252 32.7247C38.8169 32.5773 38.7968 32.3529 38.7776 32.1396C38.7726 32.0832 38.7676 32.0274 38.7647 31.9742C38.7605 31.8869 38.7401 31.8004 38.7198 31.7139C38.6976 31.6196 38.6755 31.5254 38.6743 31.4307C38.6692 30.9848 38.6745 30.5393 38.6799 30.0935C38.6818 29.9385 38.6836 29.7834 38.685 29.6282C38.6888 29.1917 39.5639 28.089 39.9554 28.0233C39.7882 26.3565 39.867 24.7212 40.5951 23.1645C40.6424 23.0637 40.6641 22.9512 40.6858 22.8385C40.7009 22.7605 40.7159 22.6824 40.7395 22.6079C40.8103 22.3822 40.897 22.16 40.9836 21.938C41.2704 21.2033 41.5565 20.4699 41.2629 19.6173C41.1584 19.312 41.1794 18.8941 41.2983 18.5886C41.3469 18.4632 41.3777 18.3218 41.4088 18.1788C41.5076 17.7257 41.6098 17.2567 42.2901 17.2319C42.3455 17.2297 42.3987 17.1474 42.452 17.0649C42.4773 17.0257 42.5026 16.9865 42.5282 16.9558C42.9665 16.4287 43.2458 16.4236 43.7623 16.8891C43.8424 16.961 43.9558 16.9957 44.0826 17.0346C44.1444 17.0535 44.2094 17.0735 44.2753 17.0991L44.2494 17.1893C44.1963 17.3742 44.1393 17.5729 44.058 17.8583C44.13 17.8156 44.1967 17.7835 44.2539 17.756C44.3553 17.7072 44.4272 17.6727 44.4475 17.6182C44.6338 17.1182 44.8836 17.0692 45.4457 17.0771C46.4593 17.092 47.2306 17.424 47.8249 18.1673C48.0812 18.4877 48.3185 18.4796 48.6095 18.3867C49.1327 18.2189 49.6909 18.21 49.942 18.7051C50.2053 19.2255 50.0108 19.7538 49.6199 20.2801C49.2721 20.749 49.0947 21.3946 48.9865 21.9876C48.8978 22.4717 48.8474 22.9672 48.7971 23.4615C48.7116 24.3014 48.6265 25.1382 48.3546 25.9114C48.2964 26.0767 48.2417 26.2462 48.1865 26.4174C47.9158 27.2572 47.6312 28.1398 46.8483 28.7761C46.5091 29.0517 46.4337 29.8874 46.5126 30.4241C46.6598 31.4218 46.3184 32.0638 45.6829 32.816C45.3526 33.2067 45.2343 33.7811 45.116 34.3552C45.0633 34.6109 45.0107 34.8666 44.9393 35.106C44.9203 35.1702 44.9036 35.2353 44.8869 35.3005C44.8546 35.4267 44.8222 35.5529 44.7735 35.6723C44.6859 35.8868 44.5853 36.0987 44.4846 36.3105C44.2742 36.7534 44.064 37.196 43.9735 37.662C43.9188 37.9437 43.9035 38.2314 43.8881 38.5196C43.8581 39.0823 43.828 39.6469 43.5047 40.1727C43.3912 40.3575 43.365 40.5987 43.339 40.8385C43.3281 40.9395 43.3172 41.0403 43.2997 41.1365C43.2918 41.1795 43.2929 41.2264 43.294 41.2728C43.2957 41.3426 43.2973 41.4113 43.268 41.4632C42.7251 42.418 42.6076 43.4635 42.4899 44.5112C42.4591 44.7849 42.4283 45.059 42.3899 45.3314C42.3495 45.6165 42.2582 45.8944 42.1669 46.1723C42.0826 46.4287 41.9983 46.6854 41.9538 46.948C41.8567 47.5201 41.7883 48.0969 41.7199 48.6737C41.6738 49.062 41.6277 49.4505 41.5729 49.8374C41.4933 50.4004 41.3942 50.9611 41.2951 51.5221C41.2695 51.6673 41.2438 51.8125 41.2185 51.9578C41.2039 52.0418 41.1777 52.1557 41.1178 52.1974C40.5082 52.6196 40.3542 53.2619 40.2942 53.9376C40.2644 54.2707 40.2532 54.6227 40.3243 54.9449C40.4275 55.4178 40.4195 55.7893 39.9832 56.118C39.7985 56.2577 39.6849 56.5127 39.5804 56.7475C39.5677 56.7758 39.5549 56.8045 39.5425 56.8321C39.3482 57.2615 39.0627 57.3012 38.9176 56.8903C38.6368 56.0984 38.4053 55.2754 38.2739 54.444C38.22 54.1037 38.2024 54.0002 37.8575 53.8798C36.937 53.5578 36.2249 53.0186 35.7139 52.0706C35.1439 51.0142 35.379 50.0982 35.6402 49.0806L35.6614 48.9982C35.7799 48.5344 35.8882 48.0474 35.9651 47.5794C36.0167 47.263 35.9528 46.9316 35.8883 46.5971C35.8404 46.3487 35.7922 46.0988 35.7907 45.8522C35.786 45.1911 35.8738 44.5234 35.9718 43.8662C36.0007 43.6733 36.0893 43.4897 36.1782 43.3057C36.2205 43.218 36.2629 43.1303 36.2989 43.0414C36.6164 42.2571 36.8666 41.4583 36.8498 40.5997C36.849 40.5815 36.8433 40.558 36.838 40.5362C36.8308 40.5063 36.8244 40.4797 36.8324 40.4751C37.4906 40.0748 37.4119 39.4294 37.343 38.8641C37.323 38.6995 37.3037 38.5418 37.3037 38.3988C37.3038 38.121 37.3869 37.8752 37.4683 37.6345C37.5619 37.3576 37.6533 37.0873 37.6133 36.7829C37.5991 36.6733 37.6882 36.5526 37.7805 36.4276C37.8376 36.3502 37.8958 36.2713 37.9317 36.1923C38.0004 36.0408 38.0506 35.8809 38.1006 35.7213C38.1225 35.6516 38.1443 35.5819 38.1677 35.513C38.16 35.5101 38.1523 35.5073 38.1446 35.5044C38.1358 35.501 38.1265 35.4975 38.1177 35.4942ZM72.2646 36.8296L72.2918 36.5257L72.2922 36.5245L72.6213 36.3793C72.6589 36.3628 72.6973 36.3458 72.7367 36.3284C72.7916 36.3041 72.8484 36.2789 72.9076 36.2526C72.6465 35.6179 72.9553 35.1829 73.2636 34.7485C73.3702 34.5984 73.4767 34.4483 73.5596 34.2901C73.6184 34.1767 73.7024 34.0759 73.7861 33.9755C73.8795 33.8633 73.9727 33.7516 74.0302 33.623C74.5207 32.529 75.0984 31.4972 75.9163 30.6123C75.9933 30.5284 76.0558 30.3647 76.0302 30.2642C75.9439 29.9255 75.9049 29.6439 76.3612 29.5833L76.4238 29.5747C76.8145 29.5206 77.189 29.4688 77.3975 29.9689C77.4594 30.1176 77.5577 30.2497 77.6563 30.3822C77.7355 30.4885 77.8148 30.5951 77.8757 30.7108C77.963 30.8761 78.027 31.055 78.0994 31.2576C78.1349 31.3569 78.1724 31.4618 78.2157 31.5737C78.4414 31.6743 78.6768 31.7779 78.9188 31.8845C79.4989 32.1399 80.1173 32.4122 80.729 32.6983C81.3323 32.9815 81.9203 33.2977 82.5058 33.6172C82.5973 33.6667 82.709 33.8446 82.6832 33.9205C82.5916 34.1975 82.5722 34.4974 82.5527 34.7977C82.5143 35.3905 82.4759 35.9845 81.8817 36.4054C81.7555 36.4952 81.7153 36.7568 81.6929 36.9455C81.6799 37.0564 81.6678 37.1676 81.6558 37.2787C81.559 38.1723 81.4624 39.0633 80.8289 39.803C80.7658 39.8761 80.7698 40.0082 80.7738 40.1396C80.7756 40.1986 80.7774 40.2575 80.7731 40.3108C80.7442 40.6865 80.6558 40.9797 80.2175 41.1058C80.0606 41.1504 79.9332 41.3347 79.8141 41.507C79.784 41.5505 79.7545 41.5932 79.7251 41.6328C79.6283 41.7631 79.5451 41.9038 79.4439 42.075C79.3929 42.1613 79.3373 42.2554 79.273 42.3599C79.0894 42.0545 78.9847 41.8804 78.8816 41.7097C78.7824 41.7335 78.6833 41.7556 78.5848 41.7776C78.3474 41.8306 78.1125 41.8831 77.8848 41.9562C77.7583 41.9978 77.6484 42.1213 77.5574 42.2301C77.5327 42.2598 77.5273 42.3155 77.5224 42.3662C77.5175 42.417 77.5131 42.4629 77.4903 42.4728C76.8532 42.7391 76.6898 43.2905 76.5265 43.8418C76.4398 44.1343 76.3532 44.4268 76.1957 44.6767C76.0438 44.9183 75.9632 45.2059 75.8781 45.5096C75.8383 45.6517 75.7975 45.7973 75.7479 45.9433C75.712 45.9915 75.6619 46.0447 75.6073 46.1025C75.4719 46.2459 75.3093 46.4181 75.2702 46.6151C75.1371 47.2773 74.8858 47.8667 74.5336 48.4302L74.5131 48.4631C74.2634 48.864 74.0198 49.2551 74.2138 49.7941C74.297 50.0272 74.337 50.4249 73.8037 50.4014C73.6985 50.3966 73.5093 50.8194 73.4697 51.0629C73.456 51.1466 73.4634 51.2378 73.4706 51.3274C73.4906 51.574 73.5095 51.808 73.0857 51.8387C73.1179 52.0162 72.9797 52.1409 72.8401 52.267C72.6399 52.4478 72.4365 52.6315 72.727 52.9775C72.7445 52.9985 72.6168 53.1452 72.5099 53.2681L72.5093 53.2688C72.4656 53.319 72.4254 53.3652 72.4001 53.3971C72.6083 54.0042 72.274 54.35 71.9149 54.7214L71.9142 54.7221L71.9129 54.7235C71.8792 54.7584 71.8453 54.7935 71.8116 54.8291C71.9488 54.9154 72.0757 54.9953 72.2766 55.1231C72.1928 55.1604 72.115 55.1928 72.042 55.2232C71.893 55.2852 71.7641 55.3389 71.6452 55.4093C71.6244 55.4215 71.6017 55.4346 71.5779 55.4483C71.4021 55.5495 71.1673 55.6847 71.177 55.7751C71.2528 56.4702 70.8473 56.4091 70.4706 56.3524L70.4136 56.3439L69.7629 58.2616C69.3799 58.3966 68.806 58.5993 68.2333 58.8024C68.2128 58.8096 68.1832 58.8192 68.1776 58.8357C67.8755 59.6738 67.1806 59.839 66.4846 60.0045C66.3628 60.0335 66.2409 60.0625 66.1211 60.0951C66.0372 60.1174 65.9349 60.1489 65.8872 60.2117C65.3939 60.8556 64.7676 61.1718 63.9567 61.2754C63.934 61.2783 63.911 61.2811 63.8879 61.2838C63.852 61.288 63.8157 61.292 63.7792 61.2961C63.2527 61.3551 62.6721 61.42 62.3546 62.0217C62.3322 62.0643 62.2201 62.0587 62.0538 62.0504C61.9586 62.0456 61.8458 62.0399 61.7219 62.0419C61.8524 61.9182 61.9497 61.8257 62.0261 61.7531C62.0688 61.7126 62.1049 61.6782 62.1367 61.6481C62.1685 61.6179 62.196 61.5919 62.2213 61.5681C62.1216 60.7575 62.0657 60.0182 62.8747 59.5031C62.9926 59.4289 63.0405 59.2321 63.0863 59.0432C63.1023 58.9777 63.118 58.9131 63.1363 58.855C63.2079 58.6289 63.2758 58.4012 63.3437 58.1736C63.4438 57.8379 63.544 57.5021 63.6563 57.171C63.6799 57.1013 63.7093 57.0336 63.7386 56.9659C63.8091 56.8033 63.8797 56.6404 63.872 56.4494L63.9495 56.2015C64.0275 55.9519 64.1055 55.7019 64.1875 55.454L64.2187 55.3589L64.2792 55.1742C64.425 54.728 64.5707 54.282 64.7367 53.8434C64.7715 53.7515 64.8343 53.6706 64.8972 53.5895C64.9576 53.5117 65.0181 53.4337 65.0541 53.3457C65.0657 53.3177 65.0779 53.2889 65.0903 53.2596C65.1796 53.0486 65.28 52.8115 65.2348 52.625L65.2166 52.5506C65.1324 52.2075 65.0891 52.031 65.1561 51.9243C65.2271 51.8113 65.422 51.7765 65.8232 51.705L65.8275 51.7042C65.8812 51.4798 65.9348 51.2546 65.9886 51.0288L65.9891 51.0268C66.1708 50.2639 66.3541 49.4944 66.5447 48.7275C66.5621 48.657 66.6053 48.5938 66.6489 48.5302C66.6787 48.4868 66.7086 48.4431 66.7305 48.3968L66.7504 48.354C66.8567 48.1257 66.963 47.8973 67.052 47.6618C67.1749 47.3365 67.2912 47.0061 67.3916 46.6732C67.4176 46.5856 67.4306 46.4932 67.4435 46.401C67.4595 46.2869 67.4755 46.173 67.5162 46.0689C67.5592 45.958 67.6018 45.8467 67.6444 45.7354C67.8532 45.1894 68.0628 44.6415 68.3319 44.1269C68.3415 44.1084 68.3513 44.0892 68.3613 44.0695C68.5183 43.7609 68.7381 43.3287 69.3126 43.7846C69.1888 42.864 69.5651 42.1456 69.9481 41.4142C70.0891 41.1449 70.231 40.8739 70.3492 40.5904L70.5289 40.7044C70.6455 40.7783 70.7621 40.8522 70.911 40.947C70.9337 40.7786 70.9527 40.6096 70.9716 40.4414C71.0891 39.3963 71.2034 38.3799 72.1871 37.6932C72.2096 37.4464 72.2363 37.147 72.2646 36.8296ZM52.6158 56.4864L52.8108 56.5825L52.8067 56.5783C52.7274 55.8918 52.8381 55.2954 53.4136 54.8306C53.5129 54.751 53.531 54.5639 53.5488 54.3793C53.5563 54.3018 53.5638 54.2247 53.5771 54.1562C53.5925 54.0786 53.5986 53.9856 53.6048 53.8932C53.6172 53.7069 53.6294 53.5232 53.7158 53.4734C54.1377 53.2334 54.2313 52.8371 54.3242 52.4438C54.3893 52.1684 54.454 51.8945 54.6308 51.6768C54.7905 51.4798 54.9503 51.2829 55.0891 51.0703C55.1716 50.9417 55.2285 50.7902 55.2675 50.6425C55.2907 50.5541 55.3031 50.4616 55.3154 50.3692C55.3332 50.2367 55.3508 50.1047 55.4001 49.9859C55.895 48.7974 56.4056 47.6157 56.9211 46.4356C56.9855 46.2867 57.0868 46.0741 57.2087 46.0422C57.7556 45.8987 57.8309 45.5067 57.9121 45.0833C57.9286 44.9973 57.9454 44.91 57.9664 44.8232C58.0537 44.4637 58.2298 44.1253 58.4077 43.7834C58.4719 43.6602 58.5362 43.5365 58.5968 43.4112C58.6471 43.3037 58.6969 43.1958 58.7468 43.088C58.8573 42.8488 58.968 42.6095 59.0838 42.3725C59.1576 42.2212 59.2222 42.0591 59.287 41.8967C59.4382 41.5172 59.59 41.1364 59.8601 40.8902C60.0988 40.6731 60.1681 40.3707 60.2365 40.072C60.3259 39.6822 60.4138 39.2986 60.8746 39.119C60.9607 39.085 60.9972 38.9192 61.0347 38.7489C61.0524 38.6687 61.0703 38.5875 61.0936 38.5186C61.1327 38.5059 61.1794 38.4954 61.2298 38.484C61.3545 38.4558 61.5018 38.4225 61.6111 38.3391C61.8967 38.1205 62.108 38.2617 62.3098 38.3966C62.3768 38.4413 62.4429 38.4855 62.5102 38.5155C62.5922 38.5519 62.5844 38.898 62.5462 39.0884C62.4113 39.7683 63.3251 40.6784 63.9917 40.4889C64.0491 40.472 64.0856 40.3762 64.091 40.3425C64.3073 40.3943 64.5186 40.4507 64.7269 40.5063C65.2226 40.6387 65.7012 40.7664 66.1883 40.8165C66.2543 40.8232 66.3185 40.828 66.3811 40.8326C66.7511 40.8599 67.0627 40.8829 67.329 41.2913C67.6521 41.7869 67.6893 42.2458 67.5376 42.7745C67.4915 42.9352 67.4463 43.0962 67.401 43.2571C67.2751 43.7044 67.1492 44.1517 67.0066 44.5932C66.9452 44.782 66.8589 44.9623 66.7725 45.1429C66.7222 45.2482 66.6718 45.3535 66.6262 45.4606C66.4829 45.7973 66.339 46.1352 66.2106 46.477C66.1288 46.6934 66.0674 46.9196 66.0092 47.1441C65.9185 47.4897 65.8314 47.8359 65.737 48.2111C65.6929 48.3862 65.6473 48.5676 65.5989 48.7583C65.0751 48.9074 64.8937 49.4217 65.3517 49.904L65.2849 49.9362C64.7596 50.1888 64.254 50.432 64.4767 51.2313C64.5028 51.3245 64.3531 51.4702 64.1902 51.6289C64.1102 51.7067 64.027 51.7878 63.9599 51.8672C63.996 51.8961 64.0441 51.9356 64.1021 51.9833C64.1301 52.0063 64.1604 52.0313 64.1928 52.0578C64.2248 52.084 64.2587 52.1118 64.2945 52.1408C63.5555 52.2491 63.2995 52.57 63.5216 53.0566C62.8173 53.4267 62.5134 54.3512 62.891 54.8047C62.8438 54.8645 62.8 54.9255 62.757 54.9854C62.6625 55.1171 62.5714 55.2439 62.4563 55.3415C62.3153 55.4607 62.1548 55.5552 61.9765 55.6601L61.9758 55.6605C61.8909 55.7104 61.802 55.7628 61.7093 55.8213C61.8846 55.9714 61.9889 56.0606 62.1452 56.1929C62.049 56.2217 61.9583 56.249 61.8738 56.2744L61.8725 56.2748C61.7543 56.3104 61.6482 56.3422 61.5566 56.3694C61.5592 56.469 61.5619 56.5637 61.5645 56.6581C61.5687 56.8081 61.5728 56.9572 61.5769 57.1234C61.4943 57.1227 61.3898 57.1211 61.2723 57.1193L61.2648 57.1192L61.2628 57.1192L61.0714 57.1164C61.0755 57.2741 61.0796 57.4173 61.0835 57.5536L61.0901 57.7893C60.6643 57.9125 60.549 58.1392 60.7442 58.4693C60.592 58.4532 60.4579 58.4384 60.352 58.4267L60.2572 58.4163L60.1901 58.409L60.1873 58.4149C59.4331 60.0252 58.6959 61.5991 57.3869 62.8752C57.266 62.8714 57.1443 62.75 57.018 62.6239C56.753 62.3594 56.4675 62.0745 56.1254 62.814C55.3279 62.3135 54.3992 62.4617 53.6107 63.166C53.4813 63.2815 53.1552 63.3836 53.0777 63.3135C52.5324 62.8226 52.0808 63.139 51.6987 63.5003C51.3129 63.8645 51.0717 63.7654 50.7761 63.4302C50.6314 63.266 50.4481 63.134 50.2673 63.0038L50.2663 63.0031C50.2409 62.9848 50.2155 62.9665 50.1902 62.9482C49.6558 62.5599 49.6751 61.2885 50.1337 60.7753C50.2832 60.6076 50.3307 60.3476 50.3781 60.0877C50.3996 59.9698 50.4211 59.852 50.4521 59.7428C50.4625 59.7056 50.4704 59.6593 50.4783 59.6132C50.4948 59.517 50.5111 59.4215 50.5492 59.4115C50.8943 59.3229 51.1114 59.1738 51.1266 58.7652C51.1285 58.7143 51.2825 58.6676 51.4351 58.6214C51.504 58.6005 51.5726 58.5797 51.6269 58.5586C51.6691 58.4112 51.7095 58.2608 51.7502 58.109L51.7506 58.1077C51.8549 57.7193 51.9617 57.3213 52.1084 56.9391C52.1577 56.8103 52.295 56.7161 52.4326 56.6217C52.4965 56.5778 52.5605 56.5339 52.6158 56.4864ZM33.1764 25.5328C33.2732 25.3749 33.3636 25.2276 33.4536 25.081L33.454 25.0804C33.566 24.8979 33.6775 24.7165 33.7998 24.5166C33.9678 24.5313 34.146 24.5467 34.3367 24.5631L34.3374 24.5632C34.6207 24.5876 34.9317 24.6144 35.2786 24.6449L35.1938 24.5788C35.0325 24.4532 34.9082 24.3564 34.7152 24.2072C35.5091 24.0628 35.3859 23.6282 35.258 23.1775C35.2348 23.0958 35.2115 23.0136 35.1935 22.9326C35.3312 22.9399 35.4535 22.9463 35.5759 22.9527C35.6983 22.9591 35.8207 22.9655 35.9584 22.9729C35.6797 22.6816 35.8096 21.6075 36.0712 21.3845C36.1605 21.3808 36.2466 21.3776 36.3308 21.3745C36.4244 21.371 36.5159 21.3676 36.607 21.3637C36.6075 21.3563 36.6078 21.349 36.6082 21.3416C36.6085 21.3338 36.6089 21.326 36.6092 21.3182L36.6104 21.2922C36.6107 21.2843 36.6112 21.2765 36.6116 21.2685C36.6118 21.2651 36.6121 21.2616 36.6123 21.2582L36.2976 21.1509C36.4819 20.8888 36.6568 20.6408 36.8372 20.3849L37.023 20.1215C36.5877 19.5397 36.9071 19.0576 37.2312 18.5686C37.2967 18.4698 37.3623 18.3708 37.422 18.2705L37.3936 18.2042C37.3364 18.0706 37.2749 17.9269 37.1869 17.7202L37.4603 17.7011C37.6992 17.6845 37.9244 17.6687 38.1888 17.6506C37.658 16.9252 38.1117 16.5854 38.5541 16.254C38.6268 16.1995 38.6994 16.1452 38.7671 16.0895C38.3815 15.7073 38.5743 15.623 38.7555 15.5438C38.8446 15.5049 38.9309 15.4671 38.9442 15.3957C39.0581 14.914 39.1724 14.4325 39.2883 13.9447L39.2905 13.9351C39.3719 13.5923 39.4541 13.2462 39.5374 12.8949C39.5417 12.8987 39.5293 12.8874 39.5068 12.8669L39.5056 12.8658C39.473 12.8361 39.4204 12.7882 39.368 12.7398L39.4649 12.6217C39.5346 12.6584 39.6041 12.6954 39.6701 12.7305L39.6708 12.7309C39.7551 12.7757 39.8336 12.8174 39.899 12.8515L40.3616 11.4882C40.1372 11.4174 40.0912 11.238 40.3679 10.9297C40.5032 10.7789 40.6094 10.6008 40.7338 10.3921C40.794 10.2911 40.8584 10.1829 40.9325 10.0672C41.4419 10.1195 41.3451 9.82477 41.2424 9.51208C41.198 9.37696 41.1525 9.23849 41.1543 9.12321L41.4362 9.12027C41.5329 9.11922 41.6109 9.11838 41.6612 9.11799C41.7161 8.87065 41.765 8.62699 41.8132 8.38698C41.9237 7.83592 42.0305 7.30392 42.1968 6.79105C42.34 6.34842 42.2682 6.05704 41.9691 5.69528C41.817 5.99226 41.6924 6.23651 41.5263 6.5626C41.3182 6.01016 41.1417 5.5405 40.9734 5.09196L39.2953 4.52021C39.0015 5.26319 38.7213 5.32444 38.165 4.80446C38.0417 4.68904 37.9326 4.5403 37.8631 4.38528C37.6817 3.98316 37.42 3.94059 37.0702 4.16173C37.0495 4.17467 37.0287 4.18837 37.0076 4.2022C36.9156 4.2626 36.8196 4.32557 36.7217 4.33814C35.6921 4.46464 35.1413 5.31493 34.7847 6.05909C34.6168 6.41055 34.5311 6.79886 34.4432 7.19696C34.3455 7.63939 34.2451 8.09391 34.0263 8.52335C33.9651 8.6435 33.9093 8.76425 33.8542 8.88356C33.6478 9.3306 33.4506 9.75761 33.0106 10.0569C32.8894 10.1399 32.7326 10.3689 32.7679 10.4571C33.0247 11.0916 32.6309 11.3338 32.2151 11.5894C32.1897 11.6051 32.1642 11.6208 32.1387 11.6366C31.7446 11.8822 31.6094 12.1906 31.8993 12.6367C32.2351 13.1564 32.0834 13.4521 31.4538 13.6104C30.8513 13.7624 30.7499 13.9835 31.0177 14.5563C31.0444 14.6131 31.0698 14.6711 31.0954 14.7298C31.1115 14.7666 31.1277 14.8037 31.1445 14.841C29.8982 15.3074 29.7096 15.7572 30.1095 17.2576C30.0583 17.2916 30.0024 17.3239 29.9462 17.3563C29.6525 17.526 29.3527 17.6992 29.6961 18.1363C29.612 18.1523 29.518 18.1597 29.4269 18.1668C29.2386 18.1815 29.0629 18.1953 29.0138 18.2823C28.7263 18.7859 28.4954 19.3315 28.3123 19.8834C28.2733 19.9982 28.3517 20.1553 28.4278 20.3079C28.4566 20.3655 28.485 20.4225 28.5066 20.4763C28.5522 20.5902 28.6058 20.7001 28.6592 20.8097C28.6832 20.859 28.7072 20.9083 28.7304 20.9579C28.662 20.973 28.5909 20.9972 28.5198 21.0214C28.3667 21.0734 28.2139 21.1254 28.0886 21.0866C27.5515 20.9191 27.3475 21.0911 27.3546 21.6386C27.3619 22.1692 27.3469 22.6796 26.8494 23.0622C26.671 23.1991 26.5357 23.5286 26.549 23.7592C26.5829 24.3384 26.6056 24.8644 26.0683 25.266C25.997 25.3192 25.9882 25.4568 25.9792 25.5969C25.9746 25.6685 25.97 25.7408 25.957 25.8028C25.9433 25.8671 25.9331 25.9342 25.9229 26.0015C25.8966 26.1739 25.8702 26.3479 25.785 26.4813C25.6386 26.7114 25.4243 26.8972 25.21 27.083C24.7799 27.4557 24.3495 27.8288 24.466 28.5611C24.47 28.588 24.4365 28.6252 24.4083 28.6566L24.3953 28.6712C24.0377 29.0764 24.0464 29.5544 24.0552 30.0373C24.0564 30.1056 24.0577 30.174 24.0579 30.2424C24.0581 30.4585 24.0132 30.6889 23.93 30.8893C23.7365 31.3572 23.8063 32.121 24.0758 32.2551C24.4088 32.4231 24.7388 32.596 25.1142 32.7928C25.2839 32.8817 25.4628 32.9754 25.6555 33.0758C26.6642 32.921 26.7538 32.0068 26.791 31.0422C26.799 30.8388 26.8476 30.5687 26.9816 30.4477C27.3787 30.0873 27.4255 29.6711 27.3561 29.1843C27.3305 29.0061 27.351 28.6883 27.4446 28.6454C28.1322 28.3246 28.2249 27.8182 28.0075 27.1665C27.9829 27.0918 27.9954 26.9647 28.043 26.9104C28.5426 26.3376 28.7506 25.6415 28.9587 24.9454C29.0401 24.673 29.1215 24.4006 29.2204 24.1355C29.3896 23.682 29.6481 23.6726 30.0416 23.8914C30.2356 23.9989 30.4632 24.045 30.6906 24.091C30.789 24.1109 30.8874 24.1308 30.983 24.1557C31.0413 24.1709 31.1 24.1847 31.1588 24.1985C31.2632 24.2231 31.3678 24.2476 31.4694 24.2804C31.7031 24.3553 31.9355 24.4355 32.1926 24.5243C32.3142 24.5663 32.4416 24.6103 32.5769 24.6564C32.6675 24.7883 32.7791 24.9517 32.8977 25.1251L33.1764 25.5328ZM48.375 62.4231C48.4302 62.133 48.484 61.8425 48.5378 61.552C48.679 60.7893 48.8202 60.0263 48.9877 59.2693C49.0261 59.0947 49.1202 58.9334 49.2149 58.7711C49.2841 58.6524 49.3537 58.5332 49.4021 58.4078C49.6748 57.7051 49.6515 56.9711 49.6283 56.2367C49.6044 55.4839 49.5805 54.7308 49.8755 54.0106C49.8768 54.0067 49.8774 54.0026 49.8775 53.9983C49.8777 53.9911 49.8766 53.9834 49.8755 53.9755C49.8741 53.9653 49.8726 53.9549 49.8741 53.9452C49.9994 52.95 50.126 51.9551 50.2555 50.9599C50.2599 50.9278 50.2785 50.8979 50.2972 50.8678C50.3146 50.8396 50.3322 50.8112 50.3386 50.7806C50.3526 50.7095 50.3669 50.6383 50.3811 50.5671C50.4552 50.1965 50.5294 49.8256 50.5839 49.4521C50.6041 49.3139 50.6082 49.1733 50.6122 49.0326C50.6164 48.8884 50.6205 48.744 50.642 48.6019C50.682 48.3371 50.7199 48.0717 50.7578 47.8064C50.8728 47.0008 50.9878 46.1952 51.1626 45.4028C51.3987 44.3309 51.6755 43.2574 52.0588 42.23C52.124 42.055 52.1925 41.8816 52.2607 41.7087C52.6128 40.8169 52.9597 39.9384 52.8306 38.9244C52.7999 38.6843 52.9736 38.3903 53.1129 38.1545L53.1189 38.1443C53.485 37.5234 53.5373 36.862 53.52 36.181C53.1975 36.7613 53.1965 36.7608 52.6651 36.4734C52.6267 36.4527 52.5856 36.4304 52.5413 36.4068L52.4308 36.3479C51.3549 35.7736 50.2636 35.1911 48.9548 35.6396C48.8922 35.6611 48.8156 35.6401 48.739 35.6191C48.6617 35.5979 48.5844 35.5767 48.5216 35.5993C48.4184 35.6357 48.2995 35.6691 48.1782 35.7033C47.8236 35.803 47.4476 35.9088 47.3772 36.1132C47.1912 36.6497 47.123 37.2277 47.0511 37.8361C47.0222 38.0814 46.9926 38.3315 46.9545 38.5859C46.9189 38.6058 46.8624 38.6271 46.7974 38.6515C46.6189 38.7188 46.377 38.8099 46.3318 38.9612C46.1888 39.4331 46.128 39.9306 46.0673 40.4269C46.0493 40.574 46.0313 40.7209 46.0112 40.8671C46.0026 40.9326 46.0148 41.0034 46.0269 41.0733C46.042 41.1608 46.0569 41.2466 46.0302 41.3184C45.9504 41.5322 45.857 41.7418 45.7637 41.9513C45.6247 42.2635 45.4858 42.5754 45.3922 42.9001C45.1598 43.712 44.9862 44.5426 44.8285 45.3714L44.7965 45.5405C44.6306 46.4185 44.4658 47.2904 44.2107 48.1575C44.1805 48.2598 44.1493 48.3623 44.118 48.4651C43.8583 49.3192 43.592 50.1948 43.8034 51.1453C43.8691 51.442 43.7069 51.8099 43.5592 52.1448C43.5319 52.2066 43.5052 52.2672 43.4805 52.326C43.3777 52.57 43.2451 52.8089 43.113 53.0469C42.8701 53.4845 42.629 53.919 42.5783 54.3755C42.5413 54.7089 42.5412 55.0457 42.5411 55.3831C42.541 56.0306 42.5408 56.6805 42.2798 57.3128C42.1739 57.5676 42.1557 57.8665 42.1407 58.148C42.1309 58.3283 42.1834 58.517 42.2344 58.694C42.3737 59.1669 42.5196 59.6377 42.6814 60.1597L42.6817 60.1607C42.7265 60.3055 42.7726 60.4542 42.8201 60.6079C42.873 60.5668 42.9331 60.5298 42.9917 60.4938C43.1152 60.4179 43.2324 60.3458 43.2634 60.2463C43.4399 59.6809 43.7075 59.5631 44.1137 59.998C44.2685 60.1641 44.372 60.3785 44.476 60.5938C44.5339 60.7138 44.592 60.8341 44.6592 60.9464C44.7528 61.104 44.864 61.2549 44.9942 61.3825C45.1972 61.5824 45.4084 61.7732 45.6195 61.9639C45.7003 62.037 45.7813 62.1101 45.8617 62.1837C45.8443 62.2048 45.8273 62.2257 45.8104 62.2466L45.8095 62.2476C45.7922 62.269 45.7749 62.2903 45.7572 62.3119L46.7869 62.3557C47.3378 62.3791 47.8749 62.402 48.375 62.4231ZM57.6323 39.6066C57.5524 39.7996 57.4714 39.9954 57.3873 40.1945L57.3864 40.1971C57.3718 40.1957 57.3512 40.1941 57.3265 40.1922C57.3039 40.1904 57.2779 40.1885 57.2498 40.1864C57.1897 40.1819 57.1198 40.1767 57.0538 40.1713C57.0287 40.6132 57.0048 41.0273 56.9779 41.487C56.3347 41.5135 56.0598 41.8125 56.1301 42.5665C56.1503 42.7828 55.9657 43.0188 55.7789 43.2577C55.686 43.3764 55.5926 43.4958 55.5235 43.6138C55.3854 43.8492 55.2464 44.0871 55.1443 44.339C55.092 44.4676 55.0398 44.5962 54.9877 44.7249C54.519 45.8809 54.0496 47.0389 53.5063 48.1727C52.9918 47.2349 52.9899 46.3163 53.1568 45.3254C53.1742 45.2213 53.188 45.1186 53.2016 45.0178C53.2752 44.4692 53.3414 43.977 53.9428 43.6345C54.0347 43.5822 54.0165 43.355 53.9962 43.1019C53.9812 42.9146 53.965 42.7131 53.9916 42.5581C54.0515 42.2106 54.1368 41.8676 54.2222 41.5245C54.2879 41.2606 54.3537 40.9963 54.4079 40.73C54.4413 40.5677 54.4551 40.401 54.4689 40.2344C54.4843 40.0487 54.4996 39.8631 54.5421 39.6841C54.6123 39.3891 54.7083 39.0998 54.8043 38.8107C54.8554 38.6569 54.9065 38.5032 54.9536 38.3486C54.9963 38.2064 55.0324 38.0591 55.0548 37.9114L55.0961 37.6399C55.1882 37.0349 55.2805 36.4289 55.3585 35.8218C55.3922 35.5595 55.414 35.2958 55.4358 35.0323C55.4528 34.827 55.4698 34.6214 55.4924 34.4171C55.496 34.3842 55.5005 34.3515 55.505 34.3186C55.5281 34.1505 55.5514 33.9807 55.4661 33.791C55.4933 33.7519 55.5305 33.7076 55.5678 33.6631C55.6492 33.5662 55.7309 33.4689 55.7097 33.4249C55.4275 32.8532 55.5943 32.3258 55.7603 31.8009C55.8314 31.5761 55.9024 31.3518 55.9378 31.1246C55.9959 30.7509 56.0888 30.3827 56.1817 30.0145C56.2464 29.7577 56.3113 29.5007 56.3643 29.242C56.5889 28.1422 56.7995 27.039 57.0059 25.9358C57.0594 25.6511 57.1204 25.3666 57.1814 25.082C57.3407 24.3385 57.5001 23.5946 57.5278 22.8473C57.5535 22.1458 57.6812 21.4874 58.002 20.9386C58.2831 20.4584 58.3453 19.9855 58.4106 19.49C58.4219 19.4037 58.4334 19.3165 58.4461 19.2287C58.474 19.0326 58.6072 18.8534 58.7419 18.6723C58.8153 18.5735 58.8892 18.4742 58.9466 18.3712C59.0237 18.2345 59.0849 18.0898 59.1449 17.948L59.1452 17.9473C59.172 17.8841 59.1985 17.8214 59.2261 17.7603C59.3816 17.7814 59.5427 17.7982 59.7069 17.8154C60.1017 17.8567 60.5141 17.8999 60.9088 18.0075C61.3507 18.1284 61.7688 18.3767 62.162 18.6251C62.2294 18.6676 62.2951 18.7157 62.3595 18.763C62.6821 18.9994 62.9748 19.2139 63.3084 18.592C63.3877 18.4439 63.7397 18.3393 63.9319 18.378C64.9062 18.5701 65.67 19.5704 65.6869 20.5717C65.6893 20.7008 65.713 20.8301 65.7366 20.9588C65.7655 21.1163 65.7942 21.273 65.7836 21.4279C65.7444 21.9851 65.6919 22.549 65.5696 23.0934C65.475 23.5143 65.361 23.9314 65.2472 24.3481C65.0888 24.9276 64.9306 25.5065 64.8247 26.0946C64.7202 26.6778 64.6889 27.2732 64.6575 27.8683C64.6432 28.1396 64.6289 28.4112 64.6077 28.6812C64.5982 28.791 64.5879 28.9032 64.5551 29.0079C64.5339 29.076 64.5122 29.1433 64.4906 29.2102C64.3232 29.7291 64.1642 30.222 64.3202 30.8456C64.4163 31.2357 64.2908 31.6868 64.1665 32.1341C64.1178 32.309 64.0694 32.4834 64.0344 32.6532C63.9806 32.9146 63.9169 33.1742 63.8532 33.4337C63.7803 33.7308 63.7072 34.0285 63.6492 34.3281C63.4979 35.1055 63.25 35.2922 62.5302 35.078C62.2789 35.0028 62.025 35.0579 61.7935 35.108C61.649 35.1394 61.5133 35.1688 61.3924 35.1634C60.8901 35.1405 60.5937 35.4527 60.3032 35.7586C60.0208 36.0561 59.7441 36.3476 59.2891 36.3193C59.2207 36.3144 59.1372 36.4925 59.0575 36.6622C59.0268 36.7277 58.9966 36.792 58.9682 36.844C58.8975 36.9744 58.8254 37.104 58.7534 37.2337C58.5614 37.5794 58.3691 37.9254 58.2023 38.2833C58.0018 38.7135 57.8202 39.1524 57.6323 39.6066ZM22.3193 13.8001C22.3565 13.8451 22.3946 13.891 22.4351 13.9367L22.4346 13.938C22.4785 13.9152 22.5221 13.8907 22.5657 13.8661C22.8553 13.7031 23.1424 13.5415 23.4639 13.9271C23.5216 13.9964 23.6695 13.9883 23.8619 13.9778C23.9655 13.9721 24.0819 13.9658 24.2041 13.9703C24.2339 14.3016 24.2659 14.6661 24.3001 15.0568L24.3067 15.1322C24.9515 15.3095 24.9383 15.3813 24.6694 16.1412C24.6263 16.2634 24.5679 16.385 24.5089 16.5078C24.3177 16.9055 24.1202 17.3166 24.4142 17.8096C24.4547 17.8765 24.3855 18.0013 24.3097 18.1382C24.2523 18.2417 24.1912 18.3521 24.1706 18.4496C24.1205 18.689 24.0766 18.9297 24.0327 19.1704C23.8943 19.9291 23.7559 20.6874 23.4233 21.4006C23.3901 21.4711 23.4404 21.581 23.4948 21.6997C23.5212 21.7572 23.5485 21.8167 23.5677 21.8749C23.1204 21.9541 22.9221 22.2071 23.3566 22.6729C22.7156 23.0038 22.5276 23.5131 22.7433 23.8139C22.6879 24.1836 22.6343 24.5399 22.5821 24.887L22.5805 24.8975C22.4637 25.6739 22.3538 26.4044 22.2463 27.1355C22.1557 27.7469 22.0679 28.3587 21.9799 28.9718L21.9798 28.9725C21.933 29.2987 21.8861 29.6252 21.8388 29.9523C21.8053 29.9977 21.7678 30.044 21.7291 30.0917C21.643 30.198 21.5512 30.3114 21.4849 30.4389C21.2168 30.9591 20.7321 31.1074 20.2043 30.8471C20.0519 30.7726 19.7815 30.7271 19.6737 30.8118C19.3143 31.0941 19.1281 30.9453 18.865 30.7351C18.8289 30.7062 18.7912 30.6761 18.7516 30.6459C18.3239 30.3194 17.7751 30.0717 17.2462 29.9903C16.6899 29.9039 16.5645 29.6846 16.5969 29.176C16.6099 28.9674 16.5956 28.7552 16.5813 28.5438C16.561 28.2425 16.5408 27.9428 16.6 27.6576C16.7899 26.7422 17.0293 25.824 17.373 24.9582L17.3869 24.9232C17.5953 24.4009 17.7654 23.9743 17.6817 23.349C17.6188 22.8837 17.7282 22.3957 17.8384 21.9046C17.8992 21.6332 17.9603 21.3609 17.9926 21.091C18.0388 20.7075 18.0668 20.3216 18.0948 19.9357C18.1317 19.4288 18.1685 18.9219 18.2463 18.4209C18.413 17.3484 18.6471 16.2863 18.8809 15.2258L18.9198 15.0493C18.9456 14.9366 19.2067 14.7601 19.2888 14.7923C20.1993 15.1529 20.3998 14.4003 20.5357 13.89C20.5448 13.856 20.5536 13.823 20.5623 13.7915C20.6454 13.4897 20.8561 13.4261 21.053 13.3668C21.2242 13.3151 21.3849 13.2666 21.4422 13.0674C21.5013 13.1105 21.561 13.1528 21.6208 13.1952C21.7749 13.3045 21.9293 13.4139 22.0731 13.5352C22.1629 13.611 22.2393 13.7034 22.3193 13.8001ZM33.0036 45.5761C32.9794 45.5735 32.9552 45.5709 32.931 45.5684L32.9307 45.5654C32.9019 45.3131 32.8734 45.0605 32.8449 44.8078C32.7872 44.2971 32.7295 43.7856 32.6698 43.275C32.6524 43.1251 32.6434 42.9716 32.6343 42.8179C32.6133 42.4619 32.5923 42.1053 32.4678 41.7926C32.1609 41.0201 32.3455 40.5619 33.0088 40.3699C33.0412 40.0902 33.0655 39.8172 33.0894 39.5501C33.1413 38.9687 33.1907 38.4149 33.3155 37.8788C33.5121 37.0335 33.3881 36.6382 32.5843 36.3036C32.566 36.2959 32.547 36.2881 32.5277 36.2803C32.4024 36.2291 32.2632 36.1723 32.2018 36.0731C31.8794 35.5509 31.5847 35.3276 31.0234 35.865C30.7195 36.1555 30.4567 35.8216 30.2543 35.5225C30.2322 35.4899 30.2101 35.4569 30.1879 35.4237L30.187 35.4224C29.9837 35.1191 29.7685 34.798 29.479 34.613C28.7028 34.1155 28.5299 33.3773 29.167 32.6737C29.5396 32.2626 29.8355 31.9059 29.4578 31.3422C29.389 31.2383 29.4208 30.9399 29.5106 30.8674C29.9326 30.5306 29.9211 30.114 29.9092 29.6845C29.9056 29.5561 29.9021 29.4265 29.91 29.2976C29.9307 28.9544 30.1265 28.4633 30.3893 28.3226C30.8961 28.0519 30.9181 27.664 30.8981 27.2321C30.8705 26.6141 30.9704 26.4956 31.5503 26.672C32.0146 26.8131 32.4727 26.975 32.9304 27.1367C33.1163 27.2024 33.3021 27.2681 33.4884 27.3323C33.9652 27.4976 34.3622 27.575 34.8917 27.2413C35.1863 27.0557 35.7798 27.2835 36.2305 27.4566L36.3185 27.4902C36.4818 27.5529 36.5792 27.9448 36.6007 28.1964C36.6489 28.758 36.677 29.3296 36.6215 29.8897C36.5947 30.1634 36.5115 30.4314 36.4281 30.7001C36.3766 30.866 36.3249 31.0323 36.2865 31.2004C36.2452 31.3802 36.2193 31.5636 36.1934 31.7471C36.172 31.8991 36.1505 32.0512 36.1203 32.2015C36.0658 32.4724 35.9877 32.7395 35.9062 33.0041C35.8548 33.17 35.7994 33.3347 35.7439 33.4995C35.6568 33.7584 35.5695 34.0176 35.4978 34.2813C35.4708 34.3809 35.4693 34.4875 35.4679 34.5939C35.4663 34.7071 35.4648 34.8202 35.4324 34.9242C35.279 35.4206 35.1158 35.9141 34.9525 36.4075C34.8301 36.7776 34.7076 37.1479 34.5894 37.5192C34.5356 37.6859 34.5082 37.8728 34.5218 38.0455C34.6102 39.1631 34.3821 40.2381 34.1538 41.3139C34.0854 41.6365 34.0169 41.9591 33.9569 42.283C33.8715 42.7442 33.8185 43.2112 33.7654 43.6783C33.7221 44.0602 33.6787 44.4422 33.6177 44.8209C33.5867 45.0073 33.4972 45.1844 33.4078 45.3613C33.3665 45.443 33.3252 45.5247 33.2898 45.6073C33.2607 45.6043 33.2316 45.6011 33.2024 45.598L33.1104 45.5878C33.0748 45.5839 33.0392 45.58 33.0036 45.5761ZM77.4277 50.5799C77.3227 49.8422 77.85 48.8893 78.4844 48.7496L78.4869 48.7505C78.3761 47.9727 78.5342 47.1836 79.1049 46.8513C79.4728 46.6371 79.9621 46.6391 80.4022 46.6408C80.5827 46.6415 80.7549 46.6422 80.9071 46.6279C81.1018 46.1898 81.2756 45.7969 81.447 45.4096L81.5056 45.277C81.5953 45.2949 81.6867 45.3119 81.7768 45.3285C81.779 45.437 81.7812 45.5453 81.7833 45.6538C81.7869 45.8381 81.7903 46.0228 81.7941 46.2099C82.2401 46.3515 82.5517 46.2444 82.7288 45.8887C82.9142 45.9518 83.0985 46.0135 83.2817 46.0747C83.7057 46.2165 84.1243 46.3565 84.5375 46.5091C84.8716 46.6329 85.2165 46.7617 85.5103 46.9592C85.8668 47.1993 85.7911 47.5591 85.7177 47.9088C85.708 47.9547 85.6984 48.0004 85.6898 48.0456C85.6801 48.0987 85.6907 48.1556 85.7028 48.2208C85.7088 48.2534 85.7153 48.2882 85.7198 48.3255L85.9488 48.3688C86.0824 48.394 86.2149 48.419 86.3548 48.4459C86.1659 48.8068 85.9774 49.1644 85.79 49.5201L85.7884 49.523C85.3178 50.4159 84.8537 51.2966 84.4069 52.1867C84.3172 52.3639 84.2696 52.5619 84.2218 52.7605C84.1864 52.9076 84.1509 53.0549 84.0983 53.1944C84.0553 53.3068 83.9727 53.405 83.8902 53.503C83.8535 53.5467 83.8168 53.5903 83.7836 53.6351C83.7491 53.5827 83.7121 53.5315 83.6751 53.4804C83.5914 53.3647 83.5079 53.2494 83.4545 53.1205C83.4074 53.0097 83.3932 52.8849 83.3771 52.7437C83.3695 52.6766 83.3614 52.6058 83.3492 52.531C82.6739 53.1101 82.477 53.0402 82.2595 52.2699C82.2309 52.169 82.1599 52.081 82.0888 51.9928C82.0564 51.9526 82.0238 51.9122 81.9953 51.8706C81.9631 51.9019 81.9274 51.9315 81.8918 51.9611C81.8154 52.0245 81.7388 52.088 81.6942 52.1691C81.4274 52.6529 80.8863 52.7793 80.3913 52.4835C80.2727 52.4134 80.1361 52.3732 79.9676 52.3236C79.88 52.2978 79.7838 52.2694 79.6769 52.2331L79.7004 52.3271L79.7008 52.3288C79.7596 52.5646 79.7975 52.7166 79.8653 52.9949C79.762 52.9345 79.6592 52.8867 79.5663 52.8435C79.3884 52.7609 79.247 52.6953 79.2088 52.5904C79.0512 52.1538 78.7378 52.1873 78.427 52.2206L78.4261 52.2207L78.4251 52.2208C78.4064 52.2228 78.3877 52.2247 78.3691 52.2266C77.7171 52.2912 77.3585 51.8922 77.4666 51.2258C77.4956 51.0432 77.4669 50.8475 77.439 50.6577L77.4302 50.5973L77.4277 50.5799ZM20.913 111.542C20.9278 111.47 20.9453 111.398 20.9628 111.327C21.0014 111.169 21.0402 111.01 21.0508 110.85C21.0675 110.581 21.0589 110.308 21.0503 110.036C21.0273 109.305 21.0043 108.575 21.4713 107.904C21.5368 107.81 21.4879 107.52 21.3991 107.459C21.3011 107.392 20.9957 107.433 20.9536 107.516C20.6482 108.117 20.1065 108.351 19.5654 108.584C19.2647 108.714 18.9642 108.844 18.7046 109.036C18.4911 109.195 18.0368 109.299 17.8624 109.179C17.3733 108.841 16.9793 108.992 16.5005 109.25C16.5421 109.366 16.5834 109.481 16.6245 109.596L16.625 109.597L16.6279 109.605C16.6822 109.757 16.7364 109.909 16.7908 110.059C16.6758 110.061 16.5654 110.061 16.4583 110.061C16.1975 110.061 15.9559 110.061 15.7156 110.082C15.6111 110.092 15.4546 110.205 15.4354 110.295C15.4161 110.384 15.5148 110.539 15.6061 110.602C15.7623 110.71 15.9458 110.791 16.1287 110.845C16.3813 110.919 16.636 110.986 16.8907 111.053C17.2645 111.152 17.6383 111.251 18.0054 111.371C18.0736 111.393 18.1411 111.417 18.2081 111.441C18.6879 111.61 19.1419 111.771 19.6376 111.321C20.0427 110.953 20.4702 111.029 20.913 111.542ZM70.2785 77.0412C70.1911 77.5565 69.5606 77.562 68.8452 77.0528L68.8439 77.0523C70.2253 76.5599 71.0053 75.1692 70.7808 73.7285C70.778 73.7107 70.775 73.6923 70.7718 73.6735C70.7679 73.6502 70.7638 73.6262 70.7595 73.6018C70.7142 73.3392 70.6596 73.0225 70.777 72.8969C71.2691 72.3683 71.4712 71.7217 71.6725 71.0777C71.7847 70.7185 71.8968 70.3601 72.0587 70.0235C72.24 69.6457 72.6175 69.3524 72.9779 69.0725C73.0505 69.0161 73.1225 68.9601 73.192 68.9042C73.3305 68.7923 73.5111 68.7347 73.715 68.6697C73.8151 68.6378 73.9209 68.6041 74.03 68.5613C74.0359 68.5959 74.0482 68.637 74.0615 68.6816C74.0944 68.7915 74.1336 68.9225 74.0979 69.0279C74.0517 69.161 74.009 69.2981 73.966 69.4358C73.8224 69.8963 73.6765 70.364 73.3947 70.7159C72.7588 71.5103 72.3662 72.3566 72.1514 73.3454C72.0967 73.5959 71.937 73.8211 71.7756 74.0486C71.6635 74.2067 71.5506 74.366 71.4714 74.5358C71.3581 74.7796 71.2718 75.1117 71.3433 75.3507C71.4768 75.8001 71.4086 76.0663 70.9685 76.2511C70.624 76.395 70.3579 76.574 70.2785 77.0412ZM43.4235 111.31C44.0456 110.023 43.8786 108.759 43.7119 107.497C43.6954 107.372 43.6789 107.247 43.6632 107.122C43.6072 106.674 43.5643 106.203 43.6388 105.763C43.7317 105.207 43.4772 105.151 43.0643 105.198C43.0455 105.201 43.0264 105.202 43.0072 105.204C42.9826 105.206 42.9577 105.208 42.9328 105.21C42.8045 105.218 42.6744 105.227 42.5715 105.285C42.4225 105.368 42.2028 105.557 42.2191 105.669C42.2865 106.135 42.2369 106.602 42.1872 107.071C42.1167 107.735 42.046 108.402 42.3089 109.069C42.3959 109.289 42.4482 109.525 42.5007 109.762C42.6307 110.348 42.7619 110.94 43.4235 111.31ZM10.2099 77.9438C10.1775 77.9402 10.1451 77.9366 10.1123 77.9331L10.1114 77.9314C10.108 77.8579 10.1053 77.7843 10.1026 77.7107C10.096 77.5285 10.0893 77.3462 10.0717 77.1652C10.065 77.097 10.0636 77.0211 10.0621 76.9442C10.0582 76.7378 10.0541 76.5242 9.94955 76.4331C9.46176 76.0056 9.61848 75.5478 9.84109 75.1167C10.1636 74.4916 10.1918 73.8297 10.22 73.168C10.2343 72.8316 10.2487 72.4953 10.3017 72.164C10.3616 71.7889 10.4545 71.4189 10.5474 71.0489C10.5885 70.8852 10.6295 70.7215 10.6678 70.5574L10.9814 70.5287C11.0323 70.6859 11.0942 70.8426 11.1561 70.9993C11.2954 71.3521 11.4349 71.7051 11.4484 72.0647L11.4509 72.1319C11.481 72.9183 11.5123 73.7384 10.7766 74.3678C10.6507 74.4754 10.6688 74.7546 10.687 75.0372C10.696 75.1761 10.705 75.3159 10.697 75.4366L10.6904 75.5377C10.6451 76.225 10.5998 76.9126 10.5311 77.5985C10.523 77.684 10.4573 77.7643 10.3918 77.8444C10.3618 77.881 10.3319 77.9176 10.3076 77.9545C10.2748 77.9511 10.2424 77.9474 10.2099 77.9438ZM55.8478 109.331C56.0498 109.672 56.2695 110.022 56.7291 109.736L56.7295 109.734C56.7782 109.664 56.8232 109.588 56.8681 109.513C56.9669 109.346 57.0657 109.18 57.2051 109.065C57.6413 108.703 57.5932 108.256 57.5252 107.794C57.4519 107.286 57.5511 106.883 58.2401 106.656C58.2366 106.775 58.2345 106.886 58.2325 106.993C58.2281 107.233 58.2241 107.448 58.2045 107.661C58.1925 107.793 58.1837 107.927 58.1748 108.061C58.1478 108.47 58.1207 108.881 58.0004 109.261C57.8812 109.637 57.6037 110.062 57.2771 110.251C56.6025 110.644 55.8617 110.934 55.1209 111.179C54.9529 111.234 54.7454 111.161 54.5378 111.089C54.4425 111.055 54.3471 111.022 54.2555 111.001C54.2873 110.942 54.3206 110.884 54.3538 110.827C54.4251 110.702 54.4963 110.578 54.5531 110.447C54.6006 110.338 54.681 110.235 54.7617 110.133C54.9758 109.862 55.1918 109.588 54.8001 109.159C54.7258 109.077 54.818 108.839 54.9099 108.601C54.9519 108.492 54.9938 108.384 55.0198 108.29C55.078 108.333 55.1393 108.373 55.2006 108.413C55.3443 108.507 55.4879 108.601 55.5916 108.728C55.6641 108.818 55.701 108.936 55.7383 109.055C55.7683 109.151 55.7985 109.248 55.8478 109.331ZM29.8597 69.1078C29.8396 69.3099 29.8192 69.5133 29.783 69.8695C28.7197 69.3897 28.0646 68.6469 27.7613 67.5497L27.5857 67.6255C27.5419 68.0838 27.4975 68.5424 27.4523 69.0086C27.4251 69.2893 27.3976 69.5732 27.3698 69.8609C28.3707 70.0276 28.3803 70.7093 28.3905 71.4308C28.3954 71.7793 28.4004 72.1371 28.5173 72.4506C28.581 72.3564 28.6269 72.2928 28.6602 72.2466C28.7085 72.1797 28.7305 72.1493 28.7422 72.1148C28.787 71.9789 28.8268 71.8405 28.8666 71.7021C28.9473 71.4217 29.028 71.1412 29.1497 70.8811C29.3289 70.4975 29.6174 70.543 29.9073 70.5887C30.0438 70.6102 30.1806 70.6317 30.3066 70.6087C30.4959 70.5743 30.8115 70.1636 30.7683 70.074C30.6336 69.793 30.4393 69.5426 30.2446 69.2917C30.1738 69.2005 30.103 69.1092 30.035 69.0164L29.8597 69.1078ZM63.5491 84.4635C63.5733 84.4451 63.5935 84.4301 63.6105 84.4175C63.6608 84.3801 63.683 84.3636 63.6964 84.342L63.6969 84.3411C63.7307 84.2865 63.77 84.2227 63.7728 84.1619C63.8174 82.9668 63.9964 81.8134 64.6384 80.764C64.7188 80.6332 64.658 80.3216 64.5504 80.1847C64.3381 79.9127 64.0974 79.6638 63.8245 79.3817L63.8237 79.3809C63.709 79.2623 63.5885 79.1378 63.4622 79.0033C63.4336 79.1011 63.4049 79.1893 63.3782 79.2715C63.3239 79.4385 63.2779 79.5803 63.2573 79.7257L63.2018 80.1087C63.0909 80.8697 62.98 81.6318 62.9117 82.397C62.8451 83.1492 63.071 83.8361 63.4809 84.5164C63.5066 84.4961 63.5292 84.4786 63.5491 84.4635ZM51.8249 122.671C52.3119 122.345 52.8177 122.005 53.4512 122.431L53.4525 122.432C53.5932 122.502 53.7394 122.565 53.8855 122.629C54.2249 122.777 54.5643 122.924 54.8368 123.153C55.0328 123.318 55.1416 123.588 55.2504 123.858C55.2987 123.978 55.347 124.098 55.4029 124.209C55.3547 124.233 55.3048 124.266 55.255 124.299C55.1474 124.37 55.04 124.441 54.9512 124.424C54.0941 124.25 53.2432 124.042 52.3953 123.83C52.1379 123.766 51.8771 123.68 51.6454 123.553C51.2039 123.312 51.33 122.994 51.6552 122.784C51.6786 122.769 51.7021 122.753 51.7256 122.738C51.7585 122.716 51.7918 122.693 51.8249 122.671ZM70.6054 27.3059C70.4099 27.8063 70.2107 28.3162 69.4527 28.41L69.4511 28.4109C69.4687 28.3373 69.4842 28.2645 69.4994 28.1927C69.5332 28.0339 69.5659 27.88 69.6184 27.7336C69.8127 27.1897 69.8718 26.6761 69.772 26.0744C69.7125 25.7125 69.8223 25.3197 69.9322 24.9269C69.9804 24.7545 70.0286 24.5821 70.0625 24.4124C70.1038 24.4074 70.1449 24.4027 70.1861 24.398C70.2272 24.3933 70.2683 24.3886 70.3096 24.3836L70.4294 24.6466C70.6734 25.1821 70.9171 25.7171 71.1571 26.254C71.1819 26.3076 71.1874 26.4224 71.1584 26.4423C70.8652 26.6411 70.7362 26.9714 70.6054 27.3059ZM55.8945 19.3274L55.8947 19.3266C55.9558 19.0713 56.0032 18.8734 55.9946 18.6787C55.9687 18.1008 56.0428 17.6656 56.7382 17.5834C56.795 17.5769 56.8351 17.4127 56.8753 17.2477C56.8944 17.1695 56.9136 17.0909 56.9346 17.029C56.8491 17.018 56.7633 17.003 56.6775 16.988C56.4684 16.9515 56.2593 16.915 56.0546 16.9354C55.9301 16.9466 55.7595 17.1752 55.7238 17.3296C55.6135 17.8061 55.4201 18.1102 54.8848 18.2031C54.3024 18.3041 54.1752 18.7974 54.6262 19.1657C54.8274 19.3303 55.0705 19.4419 55.3542 19.5722C55.4912 19.6351 55.6377 19.7024 55.7935 19.7821C55.8269 19.6096 55.8626 19.4606 55.8945 19.3274ZM73.9471 90.1507C73.942 90.2162 73.9364 90.2888 73.9256 90.3706L73.9248 90.3689C73.4099 90.185 73.1466 89.9752 73.3201 89.4638C73.537 88.8288 73.7439 88.1904 73.9366 87.5486C74.0694 87.1123 74.2338 86.7178 74.7832 86.9064C74.9793 86.9747 75.2495 87.1641 75.2714 87.3284C75.2999 87.5471 75.1687 87.9585 75.0188 88.0077C74.3597 88.2247 74.2596 88.7351 74.16 89.2434C74.1191 89.452 74.0783 89.6602 73.999 89.8477C73.964 89.9321 73.9565 90.0291 73.9471 90.1507ZM17.9975 61.1548C17.8158 62.0796 17.8156 62.0806 17.0014 61.9645L17.0018 61.9633C17.0228 61.8082 17.0409 61.653 17.0589 61.4982C17.102 61.1288 17.1448 60.7614 17.2271 60.4033C17.3056 60.0657 17.4863 59.746 17.6597 59.4394C17.6784 59.4048 18.0674 59.4893 18.0808 59.5602C18.1529 59.9407 18.1804 60.3342 18.1801 60.7238C18.1804 60.7982 18.1359 60.8711 18.0906 60.9453C18.0525 61.0078 18.0138 61.0712 18.0009 61.1372L17.9975 61.1548ZM50.5573 27.4086C49.8896 27.8417 49.8072 28.4487 49.7658 29.057C49.7383 29.4663 49.7317 29.8762 49.7248 30.2993C49.7216 30.4927 49.7184 30.6888 49.7132 30.889C49.755 30.8615 49.81 30.8348 49.8684 30.8064C50.0075 30.739 50.1656 30.6624 50.2079 30.5435C50.4059 29.9967 50.5776 29.4253 50.6452 28.8496C50.6838 28.5236 50.6437 28.1884 50.6037 27.8535C50.5859 27.705 50.5682 27.5563 50.5573 27.4086ZM17.6818 95.7763C17.688 95.7746 17.6942 95.773 17.7003 95.7713L17.7099 95.7687C17.8181 95.7397 17.924 95.7112 18.0298 95.683C17.993 95.5924 17.962 95.4965 17.9311 95.4007C17.9192 95.364 17.9073 95.3271 17.8951 95.2907L17.6818 95.7763ZM18.3239 69.3311L18.419 69.0975C18.3695 69.1739 18.3336 69.2575 18.3239 69.3311ZM17.082 36.4677C16.9005 36.6401 16.7161 36.8153 16.4853 36.9162L16.4849 36.9175C16.1911 36.4417 16.1447 35.9896 16.5144 35.5789C16.7999 35.261 17.8075 35.1298 18.0238 35.38C18.1012 35.4695 18.1066 35.6226 18.112 35.7756C18.1144 35.8452 18.1168 35.9147 18.1261 35.9783C17.6624 35.9164 17.376 36.1884 17.082 36.4677ZM22.9813 92.7382C24.0062 93.0686 24.3714 93.3775 24.0768 93.665C24.1484 93.8012 24.2119 93.9221 24.2708 94.0344L24.2713 94.0352C24.3447 94.1752 24.4113 94.3019 24.4782 94.4288C24.398 94.4062 24.3153 94.3879 24.2326 94.3695C24.0436 94.3276 23.8543 94.2856 23.6938 94.1926C23.4386 94.0449 23.1686 93.8386 23.0347 93.5868C22.9582 93.4412 22.9668 93.2483 22.9762 93.0387C22.9806 92.9411 22.9851 92.8399 22.9813 92.7382ZM24.942 89.9535C24.2438 89.5038 23.6015 89.0901 22.8451 88.6036L22.9112 88.5565C23.3089 88.2727 23.5111 88.1284 23.8188 88.4905C23.951 88.6449 24.1618 88.7279 24.3747 88.8116C24.4916 88.8577 24.6092 88.9039 24.7148 88.9624C25.1198 89.188 25.216 89.4975 24.942 89.9535ZM16.1476 39.7356C16.1205 39.7225 16.0934 39.7094 16.0665 39.6967C16.0534 39.3018 16.04 38.9068 16.0265 38.5118C16.0131 38.1167 15.9997 37.7217 15.9866 37.3267C16.0286 37.3071 16.0709 37.288 16.1131 37.2688C16.1553 37.2497 16.1976 37.2305 16.2396 37.2109C16.2808 37.2761 16.3326 37.3413 16.3846 37.4064C16.4988 37.5498 16.6133 37.6935 16.6137 37.8383C16.6137 37.9541 16.618 38.0718 16.6223 38.1902C16.6427 38.7535 16.6636 39.3311 16.2288 39.7746C16.2019 39.7619 16.1747 39.7488 16.1476 39.7356ZM61.1986 116.657C61.2581 116.606 61.3256 116.549 61.3911 116.483C61.478 116.607 61.5761 116.722 61.6684 116.831C61.8632 117.061 62.0326 117.26 62.0176 117.446C62.0037 117.618 61.779 117.773 61.5541 117.928C61.4548 117.997 61.3554 118.066 61.2742 118.136C61.2501 118.026 61.2246 117.917 61.1991 117.807C61.1272 117.498 61.0552 117.189 61.0149 116.876C61.008 116.819 61.0898 116.75 61.1986 116.657ZM25.7601 69.2589L25.5732 68.9799C25.4294 68.7652 25.3088 68.5851 25.1884 68.4045C25.118 68.4554 25.0329 68.5038 24.9478 68.5522C24.757 68.6606 24.5662 68.769 24.5406 68.9068C24.507 69.0887 24.6073 69.2948 24.7076 69.5008C24.7509 69.5897 24.7941 69.6785 24.8266 69.7654C25.0986 69.618 25.3689 69.4715 25.7601 69.2589ZM49.7784 34.5871C49.8284 34.7154 49.8831 34.8557 49.9504 34.9917C49.8272 35.0335 49.7113 35.0831 49.6098 35.1265C49.4257 35.2052 49.2887 35.2638 49.2401 35.2199C49.0608 35.0605 48.9222 34.8541 48.7835 34.6476C48.731 34.5694 48.6783 34.491 48.6236 34.4153C48.7104 34.3789 48.8 34.3302 48.8896 34.2816C49.097 34.1689 49.3041 34.0563 49.4754 34.0969C49.5986 34.1257 49.6792 34.3325 49.7784 34.5871ZM38.0059 117.825C37.9693 117.932 37.9376 118.036 37.9071 118.135C37.8419 118.348 37.7823 118.542 37.6932 118.722C37.5043 119.103 37.7633 119.2 38.008 119.292L38.0089 119.292C38.1192 119.334 38.2411 119.345 38.3629 119.356C38.4164 119.361 38.4699 119.366 38.5224 119.374C38.5259 119.297 38.5355 119.219 38.5452 119.14C38.5671 118.961 38.589 118.783 38.539 118.63C38.4825 118.457 38.3662 118.306 38.2244 118.121C38.1562 118.032 38.0821 117.935 38.0059 117.825ZM72.6324 90.5849C72.7397 90.5057 72.8593 90.4174 72.9895 90.3115C73.0174 90.4693 73.0524 90.6094 73.0837 90.7345C73.1462 90.9844 73.1939 91.1748 73.1398 91.3286C73.0797 91.5016 72.6856 91.6978 72.5072 91.6469C72.3276 91.5956 72.0683 91.1613 72.1269 91.0583C72.2255 90.8852 72.4 90.7564 72.6324 90.5849ZM15.44 106.116C15.3329 106.17 15.2136 106.23 15.0972 106.302C15.0436 106.163 14.9814 106.03 14.9263 105.913C14.8235 105.694 14.7453 105.528 14.7938 105.47C14.9101 105.33 15.1019 105.255 15.2941 105.18C15.373 105.15 15.452 105.119 15.5257 105.084C15.5578 105.158 15.5979 105.234 15.638 105.309C15.7335 105.488 15.8288 105.667 15.8141 105.837C15.8063 105.93 15.6458 106.011 15.44 106.116ZM29.4268 61.3865C29.4715 62.0445 29.9174 62.1202 30.3472 62.1452C30.4178 62.1496 30.6219 61.7771 30.575 61.6538C30.3778 61.1357 29.9916 61.2379 29.5663 61.3504C29.5202 61.3626 29.4737 61.3749 29.4268 61.3865ZM44.0215 118.504C44.0781 118.457 44.1432 118.402 44.2153 118.334L44.3025 118.551C44.3791 118.741 44.4477 118.912 44.5125 119.073C44.5814 119.245 44.6458 119.405 44.7105 119.566C44.6582 119.578 44.6027 119.597 44.5471 119.616C44.4257 119.658 44.304 119.699 44.2159 119.662C43.8211 119.492 43.5917 119.186 43.81 118.727C43.8474 118.648 43.9208 118.587 44.0215 118.504ZM59.0015 122.053C59.254 122.536 59.0304 122.945 58.6792 123.334C58.6407 123.222 58.571 123.114 58.5017 123.007C58.3249 122.735 58.1513 122.467 58.5079 122.142C58.6184 122.041 58.9759 122.002 59.0015 122.053ZM26.3009 78.6865C26.2943 78.6496 26.2877 78.6127 26.2808 78.5757L26.2821 78.5761C26.7297 77.9971 27.1919 77.9682 27.9303 78.6265C27.6091 78.6603 27.3252 78.6905 27.0598 78.7187C26.8019 78.7461 26.5614 78.7717 26.321 78.797C26.3173 78.7771 26.3136 78.7573 26.3101 78.7374C26.307 78.7204 26.304 78.7034 26.3009 78.6865ZM75.3039 74.0938C75.8164 73.8364 75.9671 73.3094 75.6371 72.9825C75.551 72.8967 75.3624 72.8635 75.2406 72.8912C75.1726 72.9075 75.091 73.1071 75.1041 73.2118C75.1297 73.4088 75.1795 73.6026 75.2347 73.8177L75.2516 73.8839C75.2689 73.9514 75.2865 74.0211 75.3039 74.0938ZM69.1251 37.6241L69.0577 37.6523L69.0585 37.6539C68.9956 37.5828 68.9298 37.5136 68.8641 37.4445C68.7077 37.2801 68.5517 37.116 68.4353 36.9262C68.3801 36.8353 68.3955 36.6995 68.4109 36.5634C68.4178 36.5021 68.4248 36.4406 68.4252 36.3833C68.4735 36.4041 68.529 36.4209 68.5845 36.4376C68.7071 36.4745 68.83 36.5116 68.8758 36.5933C68.9971 36.8081 69.0813 37.0447 69.1656 37.2815C69.1992 37.3762 69.2331 37.4714 69.2692 37.5647C69.221 37.584 69.1732 37.604 69.1251 37.6241ZM71.3866 37.1239C71.2586 36.6299 71.3469 36.2264 72.0149 35.988C71.9972 36.1077 71.9814 36.2213 71.9661 36.3303C71.9253 36.6227 71.8891 36.8821 71.8355 37.1385C71.8193 37.2149 71.6833 37.3211 71.6084 37.3167C71.5282 37.312 71.4082 37.2076 71.3866 37.1239ZM66.6899 107.009C66.0768 107.094 65.8813 107.445 65.9654 108.032C66.6692 107.941 66.8015 107.752 66.6899 107.009ZM69.0936 40.5608C69.0505 40.3442 69.0079 40.1263 68.9542 39.851L68.9554 39.8515L69.0868 39.7519C69.2255 39.6468 69.3449 39.5562 69.4651 39.4659C69.4799 39.5292 69.5032 39.5956 69.5264 39.6619C69.5786 39.8111 69.6307 39.9601 69.5869 40.0723C69.5335 40.2098 69.3982 40.3153 69.2628 40.421C69.2042 40.4667 69.1456 40.5125 69.0936 40.5608ZM69.1406 96.3903C69.161 96.4 69.1814 96.4097 69.2019 96.4193L69.2006 96.4189C69.1777 96.4675 69.1548 96.5162 69.132 96.5649L69.1305 96.5681C69.0114 96.8221 68.892 97.0768 68.7558 97.3208C68.7448 97.3411 68.4539 97.2575 68.4539 97.2208C68.4514 96.8231 68.5075 96.4412 68.9414 96.2953C68.9851 96.3158 69.0284 96.3366 69.0716 96.3573C69.0946 96.3683 69.1176 96.3793 69.1406 96.3903ZM24.172 66.1469C24.2416 66.2241 24.3177 66.3085 24.4039 66.4016L24.4026 66.4012C24.288 66.4267 24.1882 66.4552 24.106 66.4787C23.9656 66.5188 23.8767 66.5442 23.8534 66.5148C23.7268 66.3588 23.624 66.1826 23.521 66.0061C23.4823 65.9397 23.4435 65.8733 23.4035 65.808C23.4374 65.7929 23.4774 65.7706 23.5173 65.7484C23.6021 65.7011 23.6869 65.6538 23.7132 65.6763C23.8638 65.8052 23.9978 65.9538 24.172 66.1469ZM67.1917 105.473C67.5088 105.986 67.2449 106.306 66.853 106.651C66.4245 106.184 66.6721 106 66.913 105.82C67.0487 105.719 67.1822 105.62 67.1917 105.473ZM25.0015 92.8605C25.033 92.8687 25.0647 92.8769 25.0962 92.8855C25.1066 92.9304 25.124 92.9795 25.1413 93.0287C25.1801 93.1389 25.219 93.2493 25.1803 93.3124C25.1047 93.4371 24.9838 93.5344 24.8629 93.6317C24.8125 93.6723 24.7621 93.7129 24.715 93.7554C24.6955 93.7123 24.6682 93.6665 24.6409 93.6207C24.5805 93.5195 24.5203 93.4186 24.5454 93.3474C24.593 93.2127 24.6933 93.0973 24.7936 92.9818C24.8349 92.9342 24.8763 92.8865 24.914 92.8375L24.9544 92.8482L25.0015 92.8605ZM17.4798 41.9076C17.5475 41.8542 17.6277 41.7909 17.716 41.7104C17.7282 41.8388 17.7438 41.9482 17.7574 42.0436C17.7848 42.2355 17.8041 42.371 17.7715 42.4919C17.7542 42.5541 17.6351 42.5883 17.5163 42.6224C17.4627 42.6378 17.4091 42.6532 17.3651 42.6712C17.3529 42.6187 17.336 42.5653 17.319 42.5118C17.2793 42.3869 17.2395 42.2614 17.2599 42.1467C17.2744 42.0696 17.3565 42.0049 17.4798 41.9076ZM21.6457 105.853C21.1873 105.359 21.2052 105.245 21.8299 104.807L21.7665 105.166C21.7303 105.372 21.6914 105.593 21.6457 105.853ZM17.0007 100.804C17.0524 100.767 17.1041 100.73 17.1555 100.694L17.1567 100.694C17.229 100.788 17.3013 100.881 17.3737 100.975C17.446 101.068 17.5184 101.162 17.5906 101.256C17.5541 101.28 17.5085 101.313 17.4629 101.346C17.365 101.417 17.2666 101.489 17.257 101.478C17.1343 101.34 17.0298 101.186 16.9255 101.031C16.9086 101.006 16.8917 100.981 16.8747 100.956C16.8652 100.942 16.8556 100.928 16.846 100.914C16.8974 100.877 16.949 100.841 17.0007 100.804ZM16.262 53.1168C16.2379 52.4392 15.8501 52.2407 15.2796 52.5151C15.5839 52.7021 15.8837 52.8862 16.262 53.1168ZM13.678 109.666L13.8533 109.383L13.8537 109.382C14.1277 109.56 14.4022 109.737 14.6766 109.913C14.6644 109.933 14.6521 109.953 14.6397 109.973C14.6239 109.999 14.6079 110.025 14.592 110.05C14.5636 110.096 14.5353 110.142 14.5073 110.188C14.3688 110.101 14.2307 110.014 14.0926 109.927C13.9545 109.84 13.8165 109.753 13.678 109.666ZM53.1537 48.7333L53.3735 48.8421L53.0437 49.8142C53.0123 49.8042 52.9808 49.7946 52.9493 49.7849L52.9479 49.7845C52.917 49.775 52.8861 49.7655 52.8554 49.7557C52.9048 49.5854 52.9547 49.4148 53.0046 49.2443L53.0068 49.2366C53.0559 49.0687 53.105 48.9009 53.1537 48.7333Z" fill="#131313"/>
</svg>
