<svg width="134" height="86" viewBox="0 0 134 86" fill="none" xmlns="http://www.w3.org/2000/svg">
<path d="M63.6705 18.6557C63.6467 20.1338 63.1715 20.7575 62.1037 20.7077C60.4304 20.6302 59.6269 20.084 59.6507 19.0414C59.6764 17.8751 60.7387 16.8251 61.8945 16.8196C62.6211 16.8159 63.6815 17.912 63.6705 18.6557Z" fill="#131313"/>
<path d="M30.0688 46.6566L30.07 46.6601H30.0663L30.0688 46.6566Z" fill="#131313"/>
<path fill-rule="evenodd" clip-rule="evenodd" d="M121.434 37.5014L121.435 37.4983L121.436 37.4929L121.437 37.4878C121.48 37.3052 121.52 37.1346 121.561 36.963L121.574 36.9556C121.594 36.9764 121.615 36.9969 121.636 37.0173C121.656 37.0368 121.676 37.0561 121.696 37.0754L121.697 37.0764C121.717 37.0958 121.737 37.1152 121.757 37.1346C121.978 37.052 122.204 36.9765 122.429 36.901C122.943 36.7288 123.458 36.5566 123.926 36.2987C124.192 36.1527 124.415 35.9286 124.638 35.7049C124.866 35.476 125.093 35.2475 125.366 35.1029C126.121 34.702 126.909 34.3645 127.697 34.0271C128.041 33.88 128.384 33.7329 128.725 33.5805L128.778 33.5573L128.806 33.5449C128.844 33.528 128.883 33.5111 128.921 33.4942L128.93 33.4901C129.237 33.3554 129.545 33.2204 129.839 33.062C130.54 32.6843 131.238 32.2985 131.958 31.9005L131.963 31.8982L131.965 31.8971L131.966 31.8962C132.281 31.722 132.601 31.5454 132.927 31.3661C132.866 31.2511 132.81 31.1325 132.755 31.0147C132.633 30.751 132.512 30.4914 132.33 30.2848C132.088 30.0086 131.797 29.7757 131.506 29.5433L131.506 29.5429C131.381 29.4431 131.257 29.3434 131.136 29.2403C131.151 29.2348 130.905 29.3972 130.848 29.3474C130.778 29.2848 130.708 29.221 130.639 29.1572C130.033 28.602 129.437 28.0548 128.476 28.4653C128.178 27.919 127.862 28.0846 127.553 28.2467L127.529 28.2594L127.514 28.2668C127.505 28.2719 127.495 28.277 127.485 28.282C127.456 28.2971 127.426 28.3116 127.397 28.3251C126.827 28.1362 126.248 28.0666 125.669 27.997L125.573 27.9855C125.489 27.9745 125.388 27.9578 125.327 27.9062C125.304 27.8854 125.281 27.8657 125.26 27.847L125.22 27.8118C125.049 27.6618 124.962 27.5845 124.862 27.5277C124.756 27.4672 124.637 27.4299 124.39 27.3529L124.301 27.325C124.11 27.12 123.916 27.115 123.763 27.1111C123.651 27.1083 123.561 27.106 123.51 27.0275C123.111 26.4163 122.727 26.4823 122.514 26.5189C122.478 26.5252 122.447 26.5305 122.421 26.5316C122.301 26.5375 122.191 26.5457 122.091 26.5532C121.507 26.5969 121.258 26.6155 121.201 26.0055C121.034 26.0582 120.887 25.9122 120.758 25.7834C120.68 25.705 120.607 25.6329 120.541 25.6161C120.267 25.5476 120.008 25.5309 119.752 25.5145C119.422 25.4932 119.098 25.4724 118.759 25.3415C118.671 25.3072 118.58 25.2709 118.488 25.234L118.486 25.233C117.895 24.9964 117.249 24.7375 116.767 24.8411C116.137 24.9773 116.018 24.8643 115.812 24.6677C115.714 24.5739 115.595 24.4612 115.392 24.3474C115.192 24.2413 115.015 24.3302 114.83 24.4231C114.725 24.4759 114.617 24.5299 114.502 24.5502C113.464 23.8199 113.145 24.0132 112.481 24.4154L112.425 24.4489C112.319 24.2044 112.255 24.1701 112.102 24.0887C112.015 24.0423 111.899 23.9806 111.731 23.8559C111.442 23.6426 111.246 23.7232 111.067 23.7969C110.958 23.8418 110.855 23.8842 110.741 23.8559C110.496 23.7953 110.392 23.7732 110.289 23.7513C110.179 23.7278 110.071 23.7047 109.793 23.6351C109.435 22.8231 108.17 22.8678 107.454 22.946C106.738 23.0241 106.091 22.9884 105.531 22.4606C105.341 22.2819 105.124 22.1348 104.905 21.9872C104.754 21.8849 104.602 21.7824 104.46 21.669C104.421 21.6391 104.381 21.6091 104.341 21.5786C104.143 21.4303 103.931 21.2716 103.86 21.0711C103.366 19.6816 102.458 18.5855 101.458 17.5595C100.047 16.1129 98.6164 14.6846 97.1857 13.2561L97.1358 13.2062C96.9406 13.0113 96.7453 12.8164 96.5502 12.6214C96.3426 12.4136 96.1398 12.198 95.937 11.9822C95.4211 11.4334 94.904 10.8833 94.3009 10.4568C92.4313 9.1356 90.4975 7.90293 88.5473 6.70532C87.9068 6.31177 87.2409 5.95826 86.5756 5.60501C85.7715 5.17814 84.968 4.7515 84.21 4.25474C82.7588 3.30255 81.1773 2.71574 79.5756 2.13631C78.939 1.90619 78.3065 1.6642 77.6851 1.42642L77.684 1.42602L77.6828 1.42555C77.3882 1.31279 77.096 1.20099 76.807 1.09186C76.751 1.10415 76.6823 1.12809 76.6108 1.15301C76.4461 1.21043 76.2666 1.27302 76.1924 1.20996C75.4255 0.5641 74.5614 0.5641 73.6367 0.647139C73.235 0.683085 72.8221 0.61819 72.412 0.553736C72.2958 0.535474 72.1798 0.517247 72.0644 0.501359C71.6479 0.442309 71.2351 0.353733 70.8241 0.259622C70.7022 0.231542 70.5491 0.179016 70.402 0.128548C70.1528 0.0430599 69.9205 -0.0366411 69.8847 0.0178854C69.4661 0.654279 68.996 0.495725 68.4962 0.327162C68.4221 0.302171 68.3474 0.276959 68.272 0.254086C68.1496 0.21665 68.0035 0.258244 67.856 0.300254C67.7781 0.322438 67.6998 0.344738 67.6244 0.355579C67.3749 0.39064 67.1235 0.423855 66.8722 0.434927C66.7306 0.441571 66.5881 0.439428 66.4456 0.437286C66.3111 0.435263 66.1766 0.43324 66.0429 0.438618C65.9365 0.442466 65.8298 0.455946 65.7232 0.469415C65.5742 0.488239 65.4254 0.507043 65.2778 0.499513C65.0945 0.4905 64.9116 0.465838 64.7288 0.441204C64.5 0.410365 64.2715 0.379568 64.0431 0.379568C63.6718 0.381029 63.3 0.398981 62.9283 0.416928C62.3613 0.444307 61.7946 0.471673 61.2305 0.440463C59.5609 0.350043 57.9152 0.298374 56.3722 1.11031C56.2383 1.18044 56.0236 1.14722 55.864 1.10293C54.8219 0.813218 53.8715 1.16014 53.2642 2.01821C53.1358 2.20274 52.8734 2.319 52.6478 2.40204C52.1781 2.57365 51.6974 2.72128 51.213 2.84491C50.8896 2.9278 50.564 3.00292 50.2387 3.07798C49.7891 3.18171 49.3397 3.2854 48.8958 3.40958C48.7532 3.45 48.6317 3.56687 48.5105 3.68341C48.4602 3.73181 48.4099 3.78015 48.3583 3.82293C48.2669 3.89857 48.1776 3.97695 48.0884 4.0553C47.9447 4.18148 47.801 4.30769 47.6482 4.42266C47.4492 4.57147 47.2479 4.71308 47.0471 4.85432C46.4039 5.30679 45.7661 5.75541 45.2264 6.42483C44.4357 7.40469 43.3477 8.37164 41.7662 7.97305C41.5424 7.91585 41.1332 8.2886 40.9277 8.55433C40.8202 8.69344 40.761 8.87255 40.702 9.0508C40.6382 9.24375 40.5747 9.4357 40.4507 9.57479C40.1656 9.89399 39.8288 10.1658 39.4919 10.4375C39.3497 10.5523 39.2075 10.667 39.0692 10.7853C39.1202 10.8495 39.1695 10.9118 39.2187 10.9742L39.2196 10.9754C39.022 10.9188 38.8243 10.8639 38.728 10.8371L38.7077 10.8314C38.6201 10.9624 38.5462 11.092 38.4767 11.2139C38.3366 11.4595 38.214 11.6745 38.0326 11.8076C37.687 12.0598 37.3214 12.2853 36.956 12.5106C36.5299 12.7734 36.1039 13.0361 35.7099 13.3411C35.5014 13.5018 35.3336 13.7338 35.1685 13.9621C34.9544 14.2582 34.7448 14.548 34.4568 14.6679C33.1546 15.2107 32.6284 16.349 32.1229 17.4428C32.008 17.6913 31.8942 17.9376 31.7726 18.174C31.0461 19.5838 30.3379 20.9549 29.2132 22.0731C29.2994 22.1672 29.378 22.2524 29.4586 22.3397L29.462 22.3433C29.5226 22.4091 29.5845 22.4761 29.6517 22.5492C28.7582 22.7264 28.3601 23.411 28.2922 24.2524C28.228 25.0293 28.061 25.8708 27.6812 26.5351C27.3152 27.1761 26.8305 27.748 26.3459 28.3196C26.1358 28.5675 25.9258 28.8153 25.7254 29.0687C25.7071 29.0927 25.6961 29.1241 25.6906 29.1536C25.3879 30.5763 25.0209 31.9659 23.9256 33.0269C23.8764 33.0755 23.8632 33.1582 23.8498 33.2427C23.8376 33.3188 23.8253 33.3963 23.7862 33.4514C23.538 33.7962 23.3989 34.2076 23.2596 34.6196C23.0128 35.3495 22.7654 36.0813 21.9093 36.4482C21.6379 36.5645 21.3938 36.7361 21.149 36.9083C20.7219 37.2086 20.2928 37.5104 19.7131 37.5221C19.3664 37.5295 18.9903 37.5996 18.6876 37.7565C18.5029 37.8526 18.3355 37.991 18.1693 38.1284C17.9525 38.3077 17.7378 38.4853 17.4895 38.5647C16.8033 38.7843 16.2731 39.1183 15.8107 39.6738C15.5227 40.0188 15.0897 40.3768 14.6732 40.4525C13.5137 40.6629 12.8569 41.5375 12.4569 42.3993C12.1891 42.975 11.8937 43.2924 11.4111 43.4714C11.0131 43.6192 10.6906 43.9012 10.3687 44.1827C9.89078 44.6006 9.41421 45.0173 8.69396 44.992C8.44199 45.7635 7.82665 45.9475 7.20541 46.1332C7.00791 46.1923 6.8098 46.2515 6.62259 46.3298C6.48597 46.3878 6.40242 46.575 6.31874 46.7626C6.27994 46.8495 6.24111 46.9365 6.19694 47.0107L6.34188 47.0993C6.10669 47.2705 5.8715 47.4408 5.63305 47.6134L5.6296 47.6159L5.62821 47.617L5.33647 47.8282C5.42553 47.9256 5.49927 48.006 5.59002 48.105L5.59188 48.107C5.67271 48.1951 5.76716 48.2981 5.89789 48.4409C5.65735 48.5428 5.42412 48.636 5.19825 48.7261C4.6558 48.9427 4.15499 49.1426 3.69258 49.4097C3.52127 49.5086 3.42478 49.7395 3.30721 50.0209C3.24725 50.1644 3.1818 50.321 3.09814 50.4799C2.31656 50.6811 2.07255 51.0077 2.18446 51.995C2.04388 52.0268 1.88657 52.042 1.72746 52.0573C1.1681 52.1111 0.586601 52.167 0.63231 52.9601C0.672673 53.665 1.05246 54.3736 1.40839 55.0084C1.45366 55.0881 1.78941 55.0021 2.12438 54.9164C2.2781 54.8771 2.43167 54.8378 2.55691 54.8146C2.88493 54.8888 3.21208 55.0879 3.55483 55.2965C3.70668 55.3889 3.86159 55.4832 4.02099 55.5693C4.10426 55.6144 4.19219 55.6651 4.28264 55.7173C4.69639 55.9559 5.16275 56.2249 5.47591 56.1174C6.4061 55.7982 7.08677 55.9015 7.65553 56.6821C7.9399 57.0714 8.2041 57.2836 8.71965 57.0142C8.94532 56.8961 9.30492 56.9552 9.57645 57.0308C9.86073 57.1101 10.1417 57.215 10.422 57.3196C10.9178 57.5046 11.4119 57.6889 11.9194 57.7302C12.3052 57.7615 12.652 57.9408 12.9967 58.1191C13.5258 58.3926 14.0502 58.6638 14.7044 58.3945C14.7457 58.3781 14.8081 58.4238 14.8754 58.4729C14.9218 58.5069 14.9706 58.5425 15.0163 58.5606C15.0883 58.5885 15.1603 58.6171 15.2323 58.6458C15.4942 58.75 15.7571 58.8547 16.0291 58.9241C16.3843 59.0153 16.7556 59.0578 17.1218 59.0997L17.1354 59.1013C17.3341 59.1249 17.5345 59.1326 17.7751 59.1418L17.7758 59.1419C17.8926 59.1464 18.0189 59.1512 18.1592 59.1585C18.4747 60.238 19.3884 60.3616 20.4911 60.2029C21.2763 60.0904 22.0817 60.0424 22.8743 60.0775C23.237 60.0937 23.5973 60.1678 23.9577 60.2418C24.2936 60.3109 24.6296 60.38 24.9677 60.4022C25.6112 60.4437 26.2574 60.4342 26.8962 60.4249H26.8998C27.1704 60.4209 27.4397 60.417 27.7069 60.417C27.702 60.3969 27.6904 60.3611 27.6767 60.319C27.639 60.2028 27.5855 60.0383 27.6152 60.0221C27.7019 59.973 27.7887 59.9227 27.8756 59.8724L27.8767 59.8717C28.3282 59.6102 28.7852 59.3456 29.2756 59.2157C29.4428 59.1708 29.6603 59.3212 29.8799 59.473C29.9855 59.546 30.0916 59.6193 30.1929 59.6715C30.3012 59.7268 30.4149 59.773 30.5305 59.8099C30.8803 59.92 31.2318 60.0266 31.6169 60.1434C31.7934 60.197 31.977 60.2527 32.1707 60.3118C32.2502 60.3077 32.3446 60.3087 32.4489 60.3099C32.7205 60.3128 33.0593 60.3164 33.3761 60.2325C33.6865 60.1506 33.9767 59.9906 34.2667 59.8307C34.3949 59.76 34.5232 59.6892 34.6531 59.6253C35.3155 59.7899 36.0122 59.8149 36.7129 59.8401L36.7151 59.8402C36.7763 59.8424 36.8375 59.8446 36.8988 59.8469L36.9923 59.8505C37.1486 59.857 37.3045 59.889 37.4602 59.921C37.5695 59.9435 37.6789 59.966 37.7886 59.9796C37.8048 59.9816 37.821 59.9837 37.8374 59.9858L37.8397 59.986C38.0188 60.0086 38.2052 60.0321 38.3793 60.0018C38.5659 59.9692 38.7516 59.9189 38.9367 59.8688L38.9381 59.8685C39.2548 59.7828 39.5698 59.6975 39.8856 59.701C40.6652 59.7089 41.4447 59.7693 42.2375 59.8308H42.238L42.2387 59.8308C42.5576 59.8556 42.8787 59.8804 43.2028 59.9021C43.6724 59.2415 44.2265 59.3043 45.2851 60.2417C45.4263 60.1462 45.5705 60.0484 45.719 59.9476C45.828 59.8736 45.9394 59.7979 46.0536 59.7203L46.2667 59.5755C46.3024 59.6142 46.3431 59.6517 46.384 59.6893C46.4755 59.7735 46.5685 59.8591 46.6116 59.9649C47.0189 60.978 47.0409 60.989 47.8097 60.2232C47.8813 60.1522 47.945 60.0725 48.0086 59.9929C48.059 59.9298 48.1094 59.8668 48.1638 59.808C48.6316 59.3006 49.2591 59.2987 49.582 59.7877C49.9316 60.3143 50.284 60.2633 50.6827 60.2056L50.7141 60.201L50.7429 60.1969L50.7693 60.1932C50.7822 60.1915 50.795 60.1897 50.8079 60.1881C50.8224 60.1862 50.837 60.1844 50.8516 60.1826C50.8807 60.0389 50.9074 59.9056 50.9366 59.7596C50.9757 59.5646 51.0193 59.347 51.0791 59.0515C51.402 59.4833 51.5837 59.7268 51.813 60.035C52.0764 59.3759 52.4098 59.6319 52.7099 59.8623C52.7568 59.8983 52.8029 59.9337 52.8478 59.9649C53.2954 59.6007 54.2189 59.5011 55.6181 59.6659C55.6337 59.6545 55.6493 59.643 55.665 59.6314C55.6877 59.6146 55.7105 59.5976 55.7335 59.5806C56.088 59.3169 56.4664 59.0354 56.8419 59.0404C57.0141 59.0429 57.1837 59.3018 57.3596 59.5702C57.4404 59.6936 57.5226 59.819 57.607 59.9224C57.7225 59.6597 57.8518 59.3668 57.9593 59.123L58.0088 59.0109C58.9523 59.0747 59.8591 59.1358 60.754 59.1961L60.7551 59.1962L60.7562 59.1963L61.8653 59.271L61.9224 59.1088C61.9483 59.0354 61.9728 58.9658 61.9956 58.9013L61.997 58.8974L61.9972 58.8967C62.0546 58.7343 62.1005 58.6043 62.1276 58.5255C67.2043 58.3502 71.8992 57.053 76.5447 55.1578C76.9318 55.6136 77.5244 55.8314 77.9391 55.1523C78.3152 54.536 78.9151 54.3348 79.416 54.3883C80.7775 54.5331 82.0033 54.1227 83.2282 53.7126C83.7827 53.5269 84.337 53.3413 84.9036 53.2073C86.0796 52.9287 87.2556 52.6353 88.417 52.2939C88.9593 52.1335 89.4909 51.9356 90.0226 51.7376L90.0232 51.7374C90.317 51.628 90.6109 51.5186 90.9067 51.4155C91.2627 51.2919 91.6203 51.173 91.978 51.054L91.9793 51.0536L91.9797 51.0535C92.545 50.8655 93.1105 50.6774 93.6697 50.4707C93.8458 50.4059 94.0345 50.3583 94.2204 50.3113C94.7592 50.1754 95.2747 50.0454 95.3907 49.5185C95.6237 49.4431 95.8555 49.3847 96.0789 49.3285C96.5715 49.2044 97.0236 49.0906 97.3593 48.8265C97.4544 48.7518 97.5352 48.6709 97.6119 48.5941C97.8609 48.3448 98.0678 48.1377 98.5867 48.3154C98.7607 48.3747 98.9549 48.34 99.1583 48.3036C99.4484 48.2517 99.7572 48.1965 100.053 48.4058C100.124 48.4575 100.475 48.153 100.667 47.9814C100.723 47.9317 100.764 47.8534 100.803 47.7778C100.853 47.682 100.901 47.5907 100.974 47.568C101.466 47.4129 101.963 47.2707 102.46 47.1286L102.46 47.1284C102.991 46.9763 103.522 46.8243 104.049 46.6565C104.463 46.5236 104.867 46.3188 105.234 46.0826C105.502 45.9091 105.751 45.7041 106 45.499L106 45.4987C106.146 45.3788 106.292 45.2588 106.441 45.1451C106.545 45.0661 106.647 44.9775 106.75 44.8887C107.006 44.6664 107.263 44.4429 107.558 44.3664C107.751 44.3165 107.936 44.1691 108.12 44.0217C108.55 43.6786 108.98 43.335 109.522 44.2151C109.572 44.1378 109.619 44.0736 109.66 44.0168C109.737 43.9109 109.796 43.8309 109.824 43.7408C110.037 43.0876 111.309 42.0173 111.899 42.1908C112.39 42.335 112.771 42.075 113.147 41.8187C113.574 41.5274 113.994 41.2408 114.561 41.5578C114.563 41.5587 114.57 41.5477 114.579 41.5334C114.589 41.5175 114.602 41.4976 114.613 41.4859C114.741 41.3445 114.911 41.2377 115.082 41.1305C115.453 40.8976 115.827 40.6632 115.778 40.0705C115.778 40.0576 116.183 39.9949 116.4 39.9801C116.493 39.9741 116.597 39.9855 116.699 39.9967C116.882 40.0169 117.062 40.0366 117.174 39.9561C117.712 39.5699 118.239 39.1672 118.766 38.7645C119.309 38.3493 119.853 37.9341 120.409 37.5369C120.512 37.4623 120.705 37.5124 120.896 37.562C120.979 37.5836 121.062 37.6051 121.137 37.6162C121.193 37.624 121.248 37.6397 121.308 37.6573C121.335 37.665 121.363 37.673 121.392 37.6808L121.434 37.5014ZM55.8255 41.1506C55.8255 41.0417 55.8268 40.9345 55.8279 40.8285V40.8259C55.8304 40.6113 55.8328 40.4013 55.8255 40.1905C55.8116 39.8187 55.8179 39.4406 55.8242 39.0624C55.8387 38.1922 55.8533 37.3213 55.6218 36.5238C55.0549 34.5659 54.5687 32.6283 54.5705 30.5837C54.5705 30.0781 54.3357 29.757 53.8165 29.7607C53.7375 29.761 53.6577 29.7605 53.5775 29.76C53.1439 29.7571 52.699 29.7542 52.301 29.8788C50.6736 30.3881 49.0169 30.6243 47.3235 30.5339C47.1232 30.5233 46.9236 30.5162 46.725 30.5091L46.7244 30.5091C45.3692 30.4608 44.0579 30.414 42.8707 29.2699C41.4855 27.9339 40.7571 26.0941 41.5754 24.3908C41.6419 24.251 41.6831 24.0994 41.7243 23.9479C41.7467 23.8656 41.7691 23.7831 41.7955 23.7025C41.8584 23.5082 41.9206 23.3134 41.9827 23.1186L41.9828 23.1183L41.983 23.1177L41.9831 23.1174L41.9834 23.1166C42.1948 22.454 42.4064 21.7906 42.6487 21.1394C42.7037 20.9918 42.9587 20.894 43.1422 20.8257C43.5023 20.6928 43.8681 20.5723 44.2336 20.4519C44.9591 20.2129 45.6837 19.9742 46.3621 19.6392C46.8813 19.383 47.4454 19.3274 48.0071 19.272C48.6998 19.2037 49.3889 19.1358 49.9856 18.6925C50.018 18.6683 50.0803 18.692 50.1471 18.7174C50.2126 18.7424 50.2824 18.7689 50.3324 18.7534C50.4949 18.7025 50.6844 18.662 50.8757 18.6212C51.3432 18.5213 51.8211 18.4193 51.9396 18.1574C52.3201 17.3102 52.5942 16.4159 52.8687 15.5206C53.0283 15 53.188 14.4788 53.3688 13.9666C53.5094 13.5666 53.7156 13.1895 53.9215 12.8127C54.0139 12.6437 54.1062 12.4749 54.1926 12.304C54.53 12.5951 54.5629 12.4118 54.5986 12.2128C54.6106 12.1456 54.623 12.0766 54.6476 12.0235L54.66 11.9966L54.6871 11.9377C54.8115 11.6669 54.9392 11.3892 55.1283 11.1673C55.3618 10.891 55.6398 10.6504 55.9157 10.4116C55.9714 10.3634 56.0271 10.3152 56.0823 10.2668C56.0946 10.256 56.1069 10.2453 56.1192 10.2346C56.2761 9.67264 56.4077 9.30317 56.6861 8.88464C56.9615 8.47058 56.9974 8.44067 57.2938 8.19349C57.4234 8.08545 57.6028 7.93575 57.8737 7.6945C58.3008 7.31401 58.4776 7.04756 58.6005 6.86234C58.7338 6.66133 58.8037 6.55599 59.0613 6.50437C59.1637 6.48385 59.3127 6.45484 59.4872 6.42085L59.4877 6.42075C60.1568 6.29046 61.201 6.08712 61.4364 6.00848C61.7333 5.90931 63.0199 5.71095 63.3168 5.71095H65.2961C65.692 5.71095 66.8466 6.2399 67.3744 6.50437C67.7703 6.70273 68.6412 7.21845 68.9579 7.6945C69.2647 8.15576 69.8096 8.67679 70.2234 9.07247C70.3434 9.18718 70.4524 9.29137 70.5413 9.38053C70.6313 9.47073 70.7469 9.57119 70.873 9.68074C71.3013 10.053 71.8504 10.5302 71.9269 11.0665C72.0258 11.7608 72.4217 13.4468 72.5206 13.8435C72.5998 14.1609 72.7516 14.9675 72.8175 15.3312C72.9825 15.4304 73.4113 15.6684 73.8072 15.8271C74.302 16.0254 74.9948 16.8189 75.0938 17.0172C75.1084 17.0466 75.1319 17.0914 75.1611 17.1472L75.1622 17.1493C75.3303 17.4704 75.6876 18.1529 75.6876 18.4057V19.7942C75.6876 19.9925 75.6133 20.2653 75.5391 20.538C75.4649 20.8108 75.3907 21.0835 75.3907 21.2819C75.3907 21.4747 75.281 21.6407 75.195 21.771C75.1605 21.8232 75.1299 21.8696 75.1115 21.9097C75.2299 22.2356 75.3486 22.5613 75.4677 22.8869C75.4784 22.9164 75.4888 22.9477 75.4994 22.9797L75.4995 22.9801C75.547 23.1236 75.5987 23.2797 75.7007 23.3445C76.4676 23.8409 76.6052 24.7765 76.6328 25.439C76.675 26.4484 77.0511 27.216 77.462 28.052C77.6224 28.379 77.7157 28.7392 77.8093 29.1003C77.872 29.3423 77.9348 29.5847 78.0179 29.8179C78.1457 30.175 78.299 30.5238 78.4804 30.9368L78.4809 30.9378C78.5704 31.1414 78.6667 31.3607 78.7702 31.6042C78.7785 31.6577 78.7836 31.731 78.7895 31.8176C78.8073 32.074 78.833 32.4467 78.9757 32.7667C79.1103 33.0686 79.3408 33.3105 79.5728 33.5541C79.9067 33.9046 80.2437 34.2584 80.3021 34.7984C80.3095 34.8593 80.5131 34.9608 80.6049 34.9424C80.837 34.8915 81.0701 34.843 81.3034 34.7944C82.0342 34.6423 82.7664 34.4899 83.4743 34.2633C84.3114 33.9945 85.1349 33.6843 85.9587 33.374L85.959 33.3739C86.4586 33.1857 86.9583 32.9974 87.4611 32.8184C87.7183 32.7268 87.9812 32.6509 88.2438 32.5751C88.5843 32.4769 88.9245 32.3787 89.2518 32.2464C89.7388 32.0486 90.2053 31.801 90.6709 31.5539L90.6728 31.5529C90.7801 31.4959 90.8873 31.439 90.9948 31.3828C91.1875 31.2814 91.3769 31.1726 91.5662 31.0638L91.5665 31.0636C91.8563 30.8971 92.146 30.7306 92.4478 30.5911C92.7549 30.4501 93.0708 30.326 93.3864 30.2019C93.8515 30.0191 94.3161 29.8365 94.7522 29.6002C94.8972 29.5218 95.0613 29.4573 95.2272 29.3921C95.8469 29.1485 96.4922 28.8947 96.2622 27.873C96.2255 27.7124 96.4548 27.4282 96.6328 27.3138C96.6842 27.281 96.8222 27.3862 96.9617 27.4925C97.0263 27.5417 97.0915 27.5914 97.1483 27.6275C97.1807 27.5815 97.2157 27.5363 97.2509 27.4907C97.3272 27.392 97.4044 27.2921 97.4584 27.181C97.7189 26.6495 97.9391 26.2103 98.6968 26.1365C99.1114 26.0959 99.8196 25.4131 99.7811 25.0939C99.6752 24.2018 99.3109 23.3273 98.9584 22.4809L98.9353 22.4256C98.6546 21.7502 98.2565 21.1892 97.6272 20.6818C97.1476 20.2942 96.7998 19.747 96.4499 19.1964C96.2416 18.8687 96.0325 18.5397 95.7943 18.2422C95.5882 17.9856 95.318 17.7808 94.997 17.5376C94.8381 17.4172 94.6666 17.2872 94.4843 17.1369C94.4961 15.7775 93.3712 15.0435 92.3147 14.3542C92.0575 14.1864 91.8044 14.0213 91.5727 13.8504C91.104 13.5044 90.6911 13.1034 90.2805 12.7048C89.7669 12.2061 89.2571 11.711 88.6463 11.3315C88.537 11.264 88.4091 11.227 88.2815 11.1901C88.2207 11.1725 88.16 11.1549 88.1014 11.1341C88.0824 11.1796 88.0639 11.2256 88.0453 11.2716L88.0446 11.2733C88.0258 11.3199 88.007 11.3666 87.9877 11.4127C87.774 11.1916 87.5648 10.9648 87.3557 10.7381C86.881 10.2235 86.4064 9.70889 85.8778 9.25924C85.3546 8.81399 84.7451 8.46584 84.141 8.12079C84.0292 8.05694 83.9173 7.99301 83.8064 7.92876C82.867 7.38439 81.9148 6.86032 80.9479 6.36578C80.6883 6.23354 80.4147 6.12826 80.1414 6.02307C79.8121 5.89633 79.4831 5.76972 79.1793 5.59628C77.3776 4.56475 75.5319 3.6956 73.4019 3.66054C73.2276 3.65685 72.9725 3.64393 72.8918 3.53322C72.4769 2.96199 71.95 3.0319 71.405 3.1042C71.0223 3.15498 70.6306 3.20694 70.2627 3.03867C69.8682 2.85779 69.4094 2.88599 68.932 2.91534C68.3769 2.94946 67.7966 2.98514 67.263 2.69544C67.0685 2.59026 66.4355 2.56442 66.5162 3.21951C66.5177 3.23238 66.464 3.25299 66.4304 3.26591L66.421 3.26953L66.4164 3.27134L66.4114 3.27338L66.408 3.27487C66.2938 3.17975 66.1847 3.08828 66.0925 3.01099L66.0921 3.01059L66.0718 2.99358C66.0257 2.95495 65.9843 2.92029 65.9493 2.89105C65.8882 2.97385 65.8272 3.07001 65.7696 3.16077C65.6527 3.34505 65.5497 3.50745 65.487 3.49262C65.2781 3.44382 65.088 3.31335 64.9196 3.1978C64.8588 3.1561 64.8007 3.11622 64.7458 3.08296C64.6383 3.13137 64.5337 3.18631 64.4305 3.24055C64.1954 3.36409 63.9672 3.48399 63.7275 3.51476C63.5793 3.53339 63.418 3.47612 63.2589 3.41961C63.0869 3.35856 62.9175 3.29839 62.7698 3.33577C62.6045 3.3783 62.4398 3.4236 62.2753 3.46885C61.3477 3.72395 60.4259 3.97747 59.438 3.72513C59.4056 3.71724 59.366 3.74989 59.3232 3.78511C59.2859 3.81584 59.2461 3.84853 59.2068 3.85799C58.8722 3.94212 58.5355 4.01856 58.1992 4.09492C58.0708 4.12407 57.9425 4.15321 57.8143 4.18277C57.6318 4.19653 57.4614 4.22598 57.2951 4.25472C57.1939 4.27221 57.0941 4.28945 56.9942 4.30271C56.8924 4.31685 56.7846 4.31674 56.6773 4.31664C56.4906 4.31645 56.3056 4.31627 56.1575 4.39129C55.7223 4.61362 55.2978 4.85726 54.8733 5.10096C54.498 5.31643 54.1225 5.53195 53.7394 5.73284C53.6391 5.78506 53.5097 5.78676 53.3816 5.78844C53.2428 5.79026 53.1056 5.79206 53.0092 5.85832C52.8617 5.95928 52.7229 6.11008 52.5879 6.25974C51.5081 6.65015 50.3508 7.16429 49.8575 7.39697C49.8245 7.49615 49.6199 7.75401 49.0657 7.99204C48.5115 8.23006 46.9874 8.7524 46.2947 8.98381C46.0638 9.14911 45.3644 9.59872 44.4143 10.0748C43.2872 10.6395 42.8732 10.9363 42.2417 11.389C42.2079 11.4133 42.1734 11.438 42.1381 11.4633C41.7491 11.7417 41.4537 12.0515 41.1117 12.4101C40.8447 12.69 40.5493 12.9998 40.1588 13.3476C39.4462 13.9824 38.8722 14.8022 38.6743 15.1328L37.1898 16.7197V17.4139C37.0578 17.6453 36.7148 18.1875 36.3981 18.5049C36.0814 18.8222 35.3424 19.8934 35.0125 20.3893V21.1827L33.627 22.3728V23.1662L32.6374 23.8605L31.9446 24.8523V26.0424L30.9549 26.7366V27.3317L30.4601 27.8276L29.8663 29.0177C30.0972 29.183 30.4205 29.6326 29.8663 30.1087C29.3121 30.5847 28.6457 31.6955 28.3818 32.1914V35.1667C28.1509 35.3982 27.8276 35.9205 28.3818 36.1585L30.4601 37.0511L31.9327 37.7398C32.07 37.91 32.2193 38.0635 32.3891 38.1883C32.7133 38.4266 33.1519 38.5048 33.5936 38.5836C33.829 38.6256 34.0655 38.6678 34.2861 38.7345C34.5852 38.8249 34.9411 38.9356 35.1283 39.1589C35.5025 39.6092 35.7374 39.5354 36.0603 39.1276C36.163 38.9965 36.552 38.8914 36.5868 38.9412C36.9458 39.4268 37.4688 39.5491 37.9903 39.6711C38.3882 39.7642 38.7853 39.8571 39.1077 40.1111C39.1615 40.1544 39.2667 40.1407 39.3598 40.1286L39.361 40.1285L39.3826 40.1257C39.3927 40.1244 39.4027 40.1232 39.4123 40.1222C39.5598 40.1079 39.7265 40.0706 39.8927 40.0334C40.2432 39.9548 40.5916 39.8768 40.7534 40.017C41.4267 40.6026 41.5724 40.1769 41.6946 39.8198C41.7153 39.7594 41.7353 39.701 41.757 39.6498L42.1724 39.75C43.6901 40.1161 45.151 40.4685 46.6428 40.8271C46.655 40.7681 46.6683 40.7029 46.683 40.631L46.6833 40.6297L46.6837 40.6277C46.72 40.4507 46.7644 40.2339 46.8189 39.9727C46.9013 40.0197 46.975 40.0638 47.0435 40.1047C47.1794 40.186 47.2951 40.2552 47.417 40.3104C47.6319 40.409 47.8459 40.5269 48.0601 40.6449C48.5594 40.9201 49.0598 41.1958 49.5747 41.2294C50.1336 41.266 50.6987 41.1581 51.2659 41.0498C51.7282 40.9615 52.1921 40.8729 52.6551 40.8622C53.3712 40.8468 54.0899 40.9384 54.8319 41.033L54.8322 41.033C55.1582 41.0746 55.4888 41.1167 55.8255 41.1506ZM60.4064 7.7698C60.6503 7.67644 61.2495 7.29779 61.4364 7.29779H64.0096C64.4384 7.33085 65.2961 7.45648 65.2961 7.6945C65.2961 7.94891 66.0922 8.20336 66.6941 8.39576L66.6954 8.39619C66.7969 8.42863 66.8929 8.45931 66.9786 8.48793C67.4445 8.64359 67.7277 8.98248 67.9236 9.21702C67.9774 9.28135 68.0246 9.33783 68.0672 9.38053C68.2028 9.51645 68.5708 9.88522 68.8845 10.3592C68.5365 10.2446 68.3118 10.0411 68.1032 9.67997C68.039 9.56741 67.6849 9.48068 67.595 9.5508C67.0334 9.98979 66.6599 9.65524 66.3062 9.33852C66.2555 9.29311 66.2052 9.24807 66.1548 9.20572C65.9568 9.03997 65.7988 8.82587 65.6387 8.60897C65.5689 8.51438 65.4987 8.41925 65.4246 8.32735L65.4122 8.34031C64.8637 8.91401 64.409 9.3896 63.7844 8.5654C63.6816 8.42884 63.3697 8.41777 63.1532 8.41408C62.9576 8.41037 62.7611 8.43488 62.4991 8.46757C62.3704 8.48362 62.2259 8.50164 62.0579 8.51927C61.8268 8.79606 61.4066 8.93631 60.7443 8.68903C60.4505 8.5794 60.0729 8.68579 59.7009 8.79062C59.9593 8.46757 60.0481 7.90692 60.4064 7.7698ZM68.6702 15.1901C68.762 15.3282 68.8514 15.4682 68.9388 15.6096C68.8291 15.622 68.7326 15.6287 68.661 15.6287C68.4106 15.6287 68.3185 15.7082 68.1344 15.8669C68.0275 15.9591 67.8895 16.078 67.6713 16.2238C67.1963 16.5412 67.1435 17.0833 67.1765 17.3147C66.9126 17.5792 66.3847 18.1677 66.3847 18.4057V20.8851C66.4503 21.6074 66.4724 21.6342 66.6809 21.8863C66.7874 22.015 66.9424 22.2025 67.1765 22.5712C67.2535 22.687 67.3081 22.7728 67.3482 22.8358C67.4265 22.9589 67.4496 22.9952 67.4773 22.9992C67.4889 23.0009 67.5013 22.9969 67.5189 22.9913C67.5483 22.9819 67.5923 22.9679 67.6713 22.9679C67.8175 22.9679 68.0116 23.2082 68.2183 23.4641C68.4314 23.7281 68.6579 24.0085 68.8589 24.0588C68.8753 24.063 68.8916 24.0671 68.9078 24.0712L68.9569 24.0837C69.3095 24.174 69.6347 24.2572 70.5413 24.2572H71.432C71.6656 24.2572 71.792 24.2572 71.9136 24.233C72.057 24.2046 72.1937 24.1425 72.4915 24.0074C72.5449 23.9832 72.6034 23.9566 72.668 23.9275C72.69 23.9176 72.7127 23.9074 72.7361 23.8969L72.8048 24.2035C72.9741 24.9585 73.1433 25.7134 73.3193 26.4668C73.3409 26.559 73.3624 26.6511 73.384 26.7432L73.4498 27.025C73.7506 28.3117 74.0514 29.5987 74.3816 30.8771C74.477 31.2462 74.6696 31.6042 74.8825 31.9234C75.5496 32.9193 75.5238 34.0156 75.4979 35.1142C75.4926 35.3388 75.4873 35.5636 75.4879 35.7875C75.4879 35.878 75.4732 36.0403 75.4384 36.0477C74.85 36.1799 74.6242 36.6287 74.399 37.076C74.247 37.3778 74.0954 37.679 73.833 37.882C73.6972 37.9853 73.5211 38.096 73.3615 38.1016C71.8671 38.1592 70.459 38.5628 69.0366 38.9705L69.0339 38.9713L68.9342 38.9999C68.7981 39.0389 68.6618 39.0779 68.5252 39.1165C68.3545 39.1647 68.1809 39.2211 68.0049 39.2784C67.1426 39.5588 66.2213 39.8585 65.2797 39.2992C65.1962 39.2493 65.0107 39.3718 64.7931 39.5155C64.6806 39.5899 64.5594 39.6699 64.4394 39.7347C64.4375 39.731 64.3183 39.5741 64.1972 39.4173C63.9145 39.851 63.4745 39.847 63.0298 39.843C62.5569 39.8387 62.0788 39.8344 61.7791 40.3565C61.5857 40.2025 61.4003 40.0539 61.2183 39.908L61.2114 39.9026C61.0796 39.797 60.9496 39.6928 60.8195 39.5889C60.8105 39.5955 60.8014 39.6021 60.7922 39.6087C60.7809 39.6168 60.7695 39.625 60.758 39.6332L60.7432 39.6438C60.7275 39.655 60.7119 39.6662 60.6966 39.6775C60.7608 39.8362 60.825 39.9949 60.9204 40.2311C60.3119 40.4162 59.7145 40.5998 59.1753 40.7654L59.0527 40.8031C58.9534 40.2068 58.8525 39.625 58.7534 39.0531L58.7531 39.0515L58.753 39.0508C58.5187 37.6997 58.2939 36.4035 58.1225 35.1011C58.0466 34.5253 58.0686 33.936 58.0906 33.3463C58.1011 33.0666 58.1115 32.7868 58.1115 32.5084C58.1115 32.3647 58.1071 32.2213 58.1028 32.0781V32.0755C58.0974 31.8979 58.0919 31.7206 58.095 31.5433C58.0987 31.3275 58.1107 31.1109 58.1227 30.8945C58.1464 30.4672 58.17 30.04 58.1298 29.6186C58.0878 29.1793 57.9814 28.7457 57.875 28.3118C57.8236 28.1025 57.7722 27.8931 57.728 27.6829C57.7043 27.5707 57.6675 27.452 57.6304 27.3329C57.5414 27.0466 57.4515 26.7573 57.5409 26.5462C57.8487 25.8158 57.4542 25.7508 56.9363 25.6654L56.9023 25.6598C56.8824 25.6565 56.8622 25.6531 56.8419 25.6497L56.8419 25.6494H56.84L56.8419 25.6497C56.8585 25.7666 56.874 25.8723 56.8926 25.9997C56.9013 26.0597 56.9108 26.1245 56.9214 26.1975L56.9428 26.345C56.7112 26.2006 56.51 26.0746 56.3192 25.955L56.3181 25.9543C56.1313 25.8372 55.9544 25.7264 55.7686 25.6106C55.7358 25.7125 55.6998 25.8205 55.6647 25.9262L55.6639 25.9285L55.6638 25.929L55.6636 25.9295C55.652 25.9644 55.6405 25.9991 55.6292 26.0332C55.0054 25.8357 54.3962 25.642 53.7596 25.439C53.2532 25.9944 52.279 26.1254 51.3928 25.7324C51.2864 25.6844 51.0791 25.725 50.9929 25.8062L50.9671 25.8306C50.5085 26.2641 50.5026 26.2697 49.7838 26.0867C49.7704 26.1385 49.7571 26.1906 49.7434 26.2441L49.7008 26.4109C49.6867 26.4662 49.6719 26.5239 49.6563 26.5849C49.6421 26.6403 49.6272 26.6985 49.6114 26.7602H47.1804C46.9162 27.2622 46.4208 27.2216 45.6484 26.4447L45.5622 26.6537C45.5119 26.7755 45.4646 26.8902 45.4172 27.0057C44.0871 26.2417 43.8889 25.546 44.8925 24.4757C44.9459 24.4188 45.0007 24.352 45.0583 24.2816L45.0586 24.2812C45.3373 23.9409 45.6838 23.5178 46.2795 23.7302C46.4671 23.1266 46.8865 23.1917 47.3106 23.2575C47.6541 23.3108 48.0008 23.3646 48.2298 23.0641C48.257 23.028 48.4279 23.1024 48.6146 23.1835C48.7052 23.2229 48.7996 23.264 48.883 23.2947C48.9361 23.2134 48.9981 23.1199 49.0634 23.0212C49.1062 22.9565 49.1505 22.8896 49.1949 22.8223C50.0498 23.1268 50.9543 22.85 51.5451 22.1026C51.9818 21.5509 53.2679 21.4808 53.5651 22.0399C54.6164 21.1984 55.2365 20.2315 55.3613 18.7977C55.5191 16.969 56.0401 15.1569 57.1373 13.6456C57.3546 13.346 57.7515 13.1856 58.1548 13.0226C58.3949 12.9256 58.6373 12.8277 58.8454 12.6989C59.7022 12.1712 60.6195 12.0254 61.6029 12.042C61.7515 12.0444 61.9018 11.9232 62.0795 11.7799C62.1693 11.7074 62.2662 11.6292 62.3735 11.5585C62.4675 11.6384 62.5883 11.7404 62.7261 11.8567L62.7284 11.8586L62.7305 11.8604L62.7315 11.8613L62.8253 11.9405C62.9011 12.0045 62.9809 12.0719 63.0633 12.1416C63.187 12.0774 63.3106 12.0011 63.4352 11.924C63.719 11.7486 64.0084 11.5696 64.3183 11.5234C64.8008 11.4515 65.3402 11.5511 65.5347 12.2136L65.5357 12.217C65.6713 12.6797 65.841 13.2587 66.5548 12.7801C66.619 12.7358 66.8208 12.7967 66.8813 12.8724C67.0113 13.0345 67.1425 13.1959 67.2738 13.3573L67.2742 13.3578C67.7598 13.955 68.2456 14.5525 68.6702 15.1901ZM69.8098 17.1786C69.7419 17.0448 69.6731 16.9113 69.603 16.7785C69.2276 16.925 68.7329 17.3094 68.4902 17.5231C68.3685 17.7642 68.1069 18.3105 68.0339 18.5676C67.9426 18.889 67.8514 19.3711 67.8514 19.7728C67.8514 19.9171 67.8279 20.0407 67.8061 20.1547C67.7674 20.3581 67.7344 20.531 67.8514 20.737C67.9402 20.8935 68.1805 21.2213 68.4037 21.5259C68.6389 21.8469 68.8551 22.142 68.8551 22.1832C68.8551 22.2636 69.3114 22.6653 69.5852 22.7457C69.6681 22.77 69.7845 22.8091 69.9115 22.8517C70.204 22.9499 70.5529 23.0671 70.6802 23.0671H71.5014L72.3227 22.826C71.684 22.7725 70.3699 22.6171 70.2239 22.4243C70.155 22.3333 70.0991 22.2308 70.0464 22.1342C69.9595 21.9749 69.8813 21.8315 69.7677 21.7815C69.5852 21.7012 69.4939 21.6208 69.4027 21.4601C69.3688 21.4005 69.3099 21.352 69.2445 21.2981C69.1335 21.2067 69.0038 21.0998 68.9464 20.8976C68.9049 20.7515 68.8823 20.6718 68.8699 20.5905C68.8551 20.4932 68.8551 20.3936 68.8551 20.1746C68.8551 19.7728 68.8551 19.6925 68.7639 19.0497C68.6726 18.407 68.7639 18.0052 68.8551 17.7642C68.9281 17.5714 69.4939 17.3089 69.7677 17.2018L69.8098 17.1786ZM30.3799 46.1673C30.2843 46.3231 30.1836 46.4872 30.0688 46.6566C30.0229 46.5252 29.9851 46.4202 29.9528 46.3304L29.9527 46.33L29.9526 46.3297C29.9066 46.202 29.8718 46.1051 29.8407 46.0069C29.6315 45.3352 29.1013 45.0639 28.6628 45.5511C28.0445 46.2357 27.7968 45.8962 27.5088 45.2023C27.4073 45.3546 27.3187 45.4874 27.2275 45.6241C27.0975 45.8189 26.9621 46.0217 26.7767 46.3003H29.5746V47.8707C28.8353 48.5645 28.2078 49.3783 27.6042 50.2068C27.5361 50.3007 27.495 50.4155 27.4541 50.5299C27.4089 50.6561 27.3639 50.7818 27.2831 50.8785C27.1796 51.0037 27.0294 51.1225 26.8835 51.2379C26.6467 51.4253 26.4211 51.6037 26.4245 51.7864C26.4392 52.5568 25.9268 52.7679 25.4504 52.9642C25.273 53.0373 25.1006 53.1083 24.9622 53.2055C24.4448 53.5709 24.2925 53.8421 24.3311 54.4216C24.3379 54.524 24.3535 54.6328 24.3693 54.7431C24.4463 55.2803 24.5281 55.8509 23.6284 55.8738C23.5805 56.0584 23.5608 56.254 23.5414 56.4467C23.484 57.0149 23.4292 57.5579 22.6633 57.7191C22.8248 59.0773 23.0853 59.1788 24.8063 58.5551C24.676 57.5752 24.9952 57.2301 26.2153 57.1286C26.7786 57.0807 26.951 56.8408 26.8409 56.2964C26.7713 55.9577 26.7296 55.6128 26.6876 55.2648C26.6687 55.1085 26.6497 54.9516 26.6281 54.7943C26.8822 54.7371 27.1106 54.6864 27.339 54.6356C27.5674 54.5849 27.7959 54.5341 28.05 54.4769C27.9442 54.4094 27.8242 54.3632 27.7134 54.3205C27.3611 54.1849 27.1027 54.0855 27.6959 53.4509C27.7438 53.3998 27.7921 53.3484 27.8408 53.2968L27.8412 53.2963C28.769 52.3107 29.8037 51.2115 29.7636 49.6496C29.9829 49.6599 30.2007 49.6711 30.3618 49.6793L30.5234 49.6875C30.545 49.6885 30.5634 49.6894 30.5782 49.6901C30.6424 49.4535 30.6846 49.1958 30.7251 48.9488C30.8096 48.4329 30.8865 47.9636 31.1396 47.8301C31.9634 47.3946 32.2533 46.7432 32.5395 45.9349C33.1843 46.3626 33.2715 45.8983 33.35 45.4805C33.4047 45.1898 33.4551 44.9216 33.6862 44.992C33.7823 44.859 33.8886 44.7383 33.9887 44.6247C34.1886 44.3978 34.3638 44.199 34.3834 43.9863C34.4431 43.3276 34.433 42.6634 34.422 41.9432C34.4174 41.6464 34.4127 41.3402 34.4127 41.0208C34.2294 41.1253 34.0324 41.1859 33.8491 41.2423C33.3974 41.3812 33.028 41.4949 33.1468 42.176C33.1545 42.2197 33.0917 42.2694 33.0219 42.3248C32.959 42.3748 32.8903 42.4292 32.8624 42.4879C32.6441 42.9572 32.436 43.4314 32.2282 43.9048L32.2281 43.9051C32.1443 44.096 32.0606 44.2868 31.9762 44.4771C31.5029 44.186 31.3771 44.5249 31.2492 44.8692C31.1858 45.04 31.1219 45.2121 31.0149 45.3094C30.7674 45.5356 30.5855 45.8321 30.3799 46.1673ZM107.436 38.1119C107.317 38.1384 107.194 38.1659 107.081 38.1791H107.08C107.024 38.1209 106.96 38.0546 106.89 37.982C106.696 37.7827 106.457 37.536 106.23 37.2804C105.989 37.0096 105.754 36.7321 105.519 36.4546L105.519 36.4543C105.062 35.913 104.604 35.3718 104.098 34.8815C103.217 34.0271 102.291 33.2078 101.295 32.4973C100.504 31.9327 99.7903 30.9897 99.9132 30.4675C100.062 30.4675 100.208 30.4655 100.351 30.4636H100.352C100.689 30.459 101.011 30.4547 101.333 30.4767C101.542 30.4915 101.801 30.5542 101.941 30.6926C102.396 31.145 102.828 31.6206 103.26 32.0965C103.36 32.2068 103.46 32.3172 103.561 32.4272C103.615 32.4872 103.663 32.5569 103.711 32.6263C103.787 32.7384 103.864 32.8497 103.968 32.9181C105.008 33.6008 105.924 34.3593 106.678 35.4056C106.849 35.6429 107.091 35.8373 107.342 36.0387C107.7 36.3259 108.076 36.6275 108.289 37.0885C108.33 37.0111 108.367 36.943 108.386 36.9078C108.565 37.0341 108.744 37.1642 108.923 37.2948L108.923 37.295C109.33 37.5916 109.74 37.8907 110.173 38.1532C110.756 38.5075 111.391 40.0059 111.281 40.9526C110.641 41.3456 110.349 41.0762 109.973 40.4765C109.426 39.6073 108.705 38.8415 107.995 38.0942C107.912 38.0057 107.683 38.0569 107.436 38.1119ZM66.3603 43.5582C65.9787 42.7462 66.0924 42.4344 67.0813 41.9306V41.9324C67.1744 42.1632 67.2585 42.3695 67.3401 42.5697C67.3679 42.6379 67.3954 42.7053 67.4229 42.7728C67.4413 42.8181 67.4597 42.8634 67.4782 42.9089L67.5088 42.9843C67.5201 42.968 67.5309 42.9524 67.5413 42.9374C67.5757 42.8879 67.6057 42.8451 67.6334 42.8056C67.6629 42.7636 67.6897 42.7254 67.7161 42.6872C67.7351 42.7042 67.752 42.7172 67.7661 42.728C67.7903 42.7465 67.8062 42.7588 67.8097 42.7739C67.8747 43.0512 67.9377 43.329 68.0007 43.6067L68.0011 43.6084L68.0014 43.6102C68.1126 44.1001 68.2238 44.5901 68.3454 45.0769C68.5461 45.8746 68.7514 46.6718 68.9568 47.469C69.14 48.1803 69.3232 48.8917 69.5031 49.6034C69.5528 49.7994 69.5933 49.9977 69.6338 50.196L69.6339 50.1966C69.689 50.4666 69.7441 50.7366 69.8224 51.0003C70.0914 51.9008 70.3724 52.7975 70.6794 53.7773L70.6797 53.7782L70.6848 53.7946C70.8114 54.1989 70.9426 54.6175 71.0791 55.0563C70.8378 55.0875 70.5991 55.1405 70.381 55.1889C69.9538 55.2836 69.6049 55.3611 69.4664 55.2243C69.0059 54.7666 68.6683 54.0949 68.4959 53.4528C68.3535 52.927 68.2871 52.3812 68.2205 51.8346C68.1696 51.4162 68.1187 50.9974 68.0335 50.587C67.6741 48.862 67.2806 47.1435 66.8874 45.4261L66.8873 45.4256L66.78 44.9569C66.7434 44.797 66.7069 44.637 66.6703 44.4771C66.5988 44.1634 66.4979 43.8479 66.3603 43.5582ZM98.9462 38.8997C98.5166 39.1553 98.1256 39.3879 97.9538 38.2953L97.9519 38.2972C97.9465 38.3316 97.9411 38.366 97.9355 38.4013C97.9278 38.4495 97.9198 38.4994 97.9112 38.553L97.8818 38.7359C97.8568 38.8912 97.8261 39.082 97.785 39.3398C97.6531 39.1428 97.5306 38.9618 97.4157 38.7921L97.4156 38.7918C97.0895 38.3103 96.8257 37.9205 96.5869 37.5166C96.5447 37.4446 96.7117 37.1383 96.8328 37.0977C97.2767 36.9502 97.7293 36.8319 98.2273 36.7018L98.2277 36.7017L98.2287 36.7015C98.4156 36.6527 98.6089 36.6022 98.8106 36.5478C99.0821 37.2121 99.3518 37.8709 99.6839 38.681C99.4476 38.6013 99.1907 38.7542 98.9462 38.8997ZM85.9898 44.3453C86.1122 44.4563 86.2346 44.5672 86.3548 44.6801V44.682C86.0446 44.9772 85.7926 45.2184 85.5037 45.495L85.5024 45.4962L85.1017 45.8796C84.5311 45.4367 83.8431 44.9016 83.1129 44.3332C83.1698 44.2689 83.227 44.2137 83.2799 44.1625C83.3803 44.0654 83.4652 43.9833 83.5037 43.8829C83.8706 42.9363 84.4999 42.8293 85.1971 43.584C85.4463 43.8524 85.7182 44.099 85.9898 44.3453ZM75.7044 49.6311C75.0329 49.0689 74.828 48.4556 75.0898 47.7913L75.0916 47.7932C75.498 48.085 75.9135 48.3838 76.3335 48.6859C76.6891 48.9416 77.0478 49.1996 77.407 49.4576C77.3667 49.5028 77.3264 49.5484 77.2861 49.5939L77.2853 49.5948C77.2452 49.6403 77.205 49.6857 77.1648 49.7307C77.023 49.6422 76.8825 49.5548 76.7471 49.4707L76.6548 49.4134L76.6022 49.5296C76.5183 49.7153 76.4333 49.9032 76.3484 50.0924C76.2788 50.0428 76.2078 49.9945 76.1369 49.9462C75.9889 49.8454 75.8408 49.7446 75.7044 49.6311ZM16.9455 56.7051C17.1173 56.7638 17.2843 56.8208 17.4455 56.8703C16.7006 57.7062 14.576 57.5918 13.866 56.3185C14.0773 56.3185 14.2796 56.3108 14.4746 56.3034C14.8909 56.2875 15.2746 56.2729 15.6456 56.337C16.0959 56.4151 16.5344 56.5648 16.9455 56.7051ZM21.7139 46.7095C21.6502 46.6799 21.5866 46.651 21.5224 46.6219L21.4686 46.5975C21.451 46.5895 21.4334 46.5815 21.4157 46.5734C20.1608 47.6105 19.0985 49.4244 19.4343 50.2585C20.2357 49.0116 20.9748 47.8605 21.7139 46.7095ZM83.5547 47.5565C83.5347 47.5731 83.5146 47.5898 83.4945 47.6068C83.0666 47.343 82.6382 47.0793 82.2007 46.8099C81.7904 46.5573 81.3721 46.2998 80.9388 46.0327C80.9423 45.9967 80.946 45.9596 80.9499 45.9209C80.9549 45.8707 80.9603 45.8176 80.9661 45.7602L80.9911 45.5163C81.0097 45.3354 81.0325 45.1132 81.0617 44.8241C81.7228 45.4939 82.3001 46.0803 82.8499 46.6387L83.6633 47.4647C83.6277 47.4957 83.5913 47.526 83.5547 47.5565ZM60.7682 47.4704C60.2877 48.0135 59.8629 48.4949 59.4585 48.9531C59.215 49.229 58.979 49.4965 58.7426 49.764C58.7685 49.7875 58.7943 49.8109 58.8201 49.8342L58.8238 49.8375L58.8243 49.838C58.8758 49.8846 58.927 49.9309 58.9775 49.978C59.1651 49.7742 59.4171 49.6301 59.6737 49.4834C60.2977 49.1266 60.9488 48.7543 60.7682 47.4704ZM15.351 52.705L15.351 52.7054C15.3558 52.751 15.3606 52.7965 15.3649 52.842C15.242 52.8759 15.1114 52.9271 14.9808 52.9783C14.6788 53.0966 14.3763 53.2152 14.165 53.1224C13.9746 53.0389 13.8718 52.7544 13.7439 52.3999C13.6795 52.2217 13.6088 52.0258 13.5174 51.8289C14.2142 52.1048 14.7725 52.3276 15.3303 52.5502L15.3356 52.5522C15.3404 52.6034 15.3457 52.654 15.3509 52.7044L15.351 52.705ZM79.7572 47.6289C79.0546 48.9391 79.1628 49.2122 80.2765 49.227C80.0912 48.6586 79.9242 48.1438 79.7572 47.6289ZM25.8759 48.8671C25.8777 48.8088 25.8791 48.7509 25.8804 48.6932V48.6926C25.8814 48.653 25.8823 48.6133 25.8834 48.5737C25.8839 48.5547 25.8845 48.5356 25.8851 48.5165C26.4703 48.2951 27.0538 48.1013 27.7088 48.8671H25.8759ZM12.7846 52.7722L12.8251 52.799C13.0767 52.9651 13.3292 53.1318 13.5816 53.2978C12.5811 53.3297 12.153 53.0474 12.2973 52.4508C12.4589 52.5573 12.6211 52.6643 12.7836 52.7716L12.7846 52.7722ZM40.0326 50.5516C40.0416 50.5379 40.0505 50.5241 40.0595 50.5103C40.0734 50.4889 40.0873 50.4673 40.1012 50.4458L40.1411 50.384L40.1569 50.3597L40.17 50.3397C40.1067 50.2839 40.0454 50.2194 39.9843 50.1551C39.8435 50.007 39.7027 49.8588 39.5352 49.8138C39.3946 49.7752 39.222 49.8566 39.0502 49.9377C38.9754 49.973 38.9007 50.0082 38.8288 50.0334C38.8334 50.0845 38.8379 50.1352 38.8425 50.1859L38.8426 50.1869C38.8472 50.2383 38.8518 50.2897 38.8564 50.3415L40.0326 50.5516ZM77.707 46.3887C78.0826 45.6258 78.3429 45.0985 78.6051 44.5694C78.561 44.5565 78.517 44.5436 78.4729 44.5288L77.5281 45.385C77.4798 45.3612 77.4315 45.3369 77.3832 45.3126L77.3822 45.3121C77.3336 45.2877 77.285 45.2632 77.2364 45.2392L77.2536 45.2814C77.3727 45.5719 77.4958 45.8724 77.707 46.3887ZM70.5413 15.232L69.7496 15.4304L69.9475 14.7361V13.0501C69.9475 12.8121 69.6176 11.7608 69.4527 11.2649C69.5517 11.4633 69.7892 11.9591 69.9475 12.3559C69.9617 12.3842 69.9758 12.4105 69.99 12.4368C70.0748 12.5947 70.1596 12.7526 70.2444 13.3476C70.3236 13.903 70.4753 14.8353 70.5413 15.232Z" fill="#131313"/>
<path d="M87.567 55.5747L87.5584 55.5768L87.5675 55.5712L87.567 55.5747Z" fill="#131313"/>
<path d="M87.567 55.5747C87.7826 55.5241 87.9977 55.4731 88.2128 55.4221L88.2145 55.4217L88.2179 55.4209L88.2249 55.4192L88.2301 55.418C88.4458 55.3668 88.6614 55.3157 88.8775 55.2649L88.8858 55.263C89.3068 55.164 89.7279 55.065 90.1471 54.966C90.1551 54.9794 90.163 54.9929 90.1709 55.0064L90.1816 55.0246C90.1955 55.0484 90.2094 55.0722 90.2233 55.0961C90.2366 55.1191 90.25 55.142 90.2634 55.165C90.2753 55.1854 90.2873 55.2058 90.2994 55.2262L90.4327 54.9366C90.498 54.7945 90.5673 54.6438 90.6462 54.4733C91.2533 54.8694 91.7985 54.647 92.3598 54.4181C92.4889 54.3655 92.6188 54.3125 92.7506 54.2666C92.901 54.2141 93.1 54.2508 93.2891 54.2856C93.499 54.3242 93.6966 54.3606 93.8018 54.2703C94.2756 53.8636 94.8586 53.7837 95.4262 53.7058C95.9378 53.6356 96.437 53.5672 96.8328 53.2628C97.7386 52.5638 98.7453 52.2492 99.7748 51.9274C99.8733 51.8966 99.9721 51.8658 100.071 51.8345C100.253 51.7766 100.424 51.6874 100.596 51.598C100.736 51.525 100.876 51.4517 101.023 51.3953C101.365 51.263 101.713 51.1454 102.132 51.0036L102.134 51.003C102.329 50.9372 102.538 50.8663 102.77 50.7863C102.815 50.7276 102.867 50.6594 102.925 50.5839C103.148 50.2918 103.454 49.8898 103.775 49.4983C103.836 49.4227 104.038 49.3599 104.094 49.4005C104.844 49.9323 105.202 49.4936 105.55 49.0667C105.767 48.8004 105.981 48.5387 106.283 48.5203C106.536 48.5048 106.748 48.3334 106.958 48.1627C107.326 47.8646 107.691 47.5691 108.268 48.1125C108.397 47.8449 108.505 47.6216 108.615 47.3983C109.355 47.5958 109.938 47.2323 110.307 46.4259C110.391 46.2432 110.698 46.0199 110.868 46.0457C111.5 46.142 111.765 45.7617 112.03 45.3814C112.12 45.2514 112.211 45.1214 112.316 45.0105C113.606 45.5143 114.547 45.1895 114.637 44.1303C114.731 44.1556 114.825 44.1805 114.92 44.2056C114.994 44.2251 115.068 44.2447 115.144 44.2648L115.153 44.2672L115.156 44.2678L115.174 44.2726C115.32 44.311 115.472 44.3514 115.64 44.396C115.666 43.6191 115.871 43.0618 116.814 43.346C116.945 43.3856 117.124 43.2747 117.296 43.1687C117.356 43.1315 117.415 43.0948 117.471 43.0655C118.077 42.7481 118.678 42.4289 119.275 42.0967L119.289 42.0887L119.313 42.0758C119.46 41.9944 119.643 41.8935 119.68 41.7646C119.994 40.6721 120.709 40.8364 121.462 41.1667C121.746 40.8723 122.1 40.674 122.452 40.4772C122.982 40.1806 123.505 39.8877 123.77 39.2753C124.36 39.6105 124.75 39.2555 125.135 38.9056C125.515 38.5603 125.89 38.2201 126.445 38.5537C126.516 38.4118 126.559 38.253 126.6 38.0995C126.723 37.6442 126.833 37.2345 127.652 37.4428C128.028 37.5389 128.476 37.3537 128.921 37.1699C129.108 37.0924 129.295 37.0152 129.476 36.9594C129.547 36.9372 129.621 36.8431 129.648 36.7656C129.864 36.1712 130.291 36.0771 130.705 35.9858C130.877 35.9481 131.045 35.9109 131.197 35.8393C131.442 35.686 131.688 35.5326 131.932 35.3804L132.387 35.0962C132.952 34.7438 133.498 34.4027 134 34.0899V36.3523C133.918 36.4066 133.834 36.4529 133.754 36.4971C133.589 36.5878 133.441 36.6698 133.354 36.7951C133.145 37.094 132.955 37.4114 132.764 37.7282C132.384 38.3603 132.006 38.9903 131.486 39.4672C131.233 39.7 130.94 39.9167 130.643 40.1364C130.389 40.3242 130.132 40.5142 129.894 40.7183C129.812 40.7887 129.725 40.8545 129.637 40.9202C129.468 41.0472 129.299 41.1741 129.171 41.3346C129.114 41.4056 129.064 41.4803 129.016 41.5537C128.828 41.835 128.655 42.0955 128.146 42.0414C128.013 42.0276 127.844 42.3521 127.662 42.7039C127.575 42.8719 127.485 43.0461 127.393 43.1929C127.38 43.1855 127.19 43.0803 126.887 42.9142L126.426 43.5894L126.422 43.5961L126.096 44.0732C125.952 44.2853 125.82 44.4788 125.709 44.6414C124.775 45.5401 124.001 46.2856 123.221 47.0367C123.227 47.0426 123.224 47.0397 123.214 47.0297L123.211 47.0266L123.21 47.0259L123.209 47.0246C123.189 47.0057 123.151 46.9701 123.103 46.9238C123.052 46.8749 122.988 46.8142 122.92 46.7488C122.798 46.8895 122.685 47.0334 122.573 47.1747C122.332 47.4799 122.1 47.773 121.816 47.9962C121.378 48.3393 120.918 48.6581 120.459 48.9767C119.731 49.4822 119.003 49.9871 118.363 50.587C117.702 51.2071 116.961 51.3547 116.2 51.5061L116.2 51.5062C116.01 51.544 115.819 51.5821 115.627 51.6278C115.332 51.6979 115.044 51.9563 114.835 52.1999C114.486 52.604 114.167 52.8346 113.642 52.2774C113.606 52.5984 113.578 52.8476 113.565 52.9675C113.346 53.0549 113.133 53.1393 112.928 53.2208L112.79 53.2759L112.789 53.2761L112.773 53.2826L112.771 53.2831C112.426 53.4204 112.103 53.5486 111.808 53.6669C110.744 55.426 111.623 56.8212 112.508 58.2266L112.527 58.2562C112.634 58.4267 112.687 58.6322 112.739 58.8376C112.761 58.9233 112.783 59.009 112.809 59.0921C112.879 59.3126 112.947 59.5341 113.014 59.7556L113.016 59.7603L113.016 59.7619L113.017 59.764C113.218 60.4242 113.419 61.0844 113.681 61.718C113.743 61.8675 114.376 61.9782 114.549 61.8453C115.13 61.4025 115.354 61.6829 115.563 62.1904C115.626 62.342 115.686 62.4121 115.756 62.4938C115.843 62.5952 115.945 62.7144 116.087 63.029C116.35 63.0243 116.483 63.5249 116.582 64.12L116.585 64.1396C116.624 64.3752 116.644 64.4922 116.702 64.5844C116.76 64.6753 116.855 64.7421 117.045 64.8748C117.13 64.9346 117.234 65.0077 117.363 65.1023C117.757 65.392 117.814 65.8146 117.37 66.084C117.023 66.2943 116.656 66.4726 116.29 66.651C115.952 66.8153 115.615 66.9797 115.292 67.1691C114.993 67.3445 114.71 67.5483 114.428 67.7523C114.149 67.9538 113.87 68.1555 113.574 68.3298C113.301 68.4903 112.881 68.6453 112.637 68.542C112.362 68.4276 112.143 68.0438 112.017 67.7301C111.858 67.3372 111.753 66.9228 111.647 66.509L111.646 66.5071L111.646 66.5055C111.614 66.3783 111.581 66.2511 111.547 66.1246C111.518 66.0151 111.477 65.9013 111.436 65.7868L111.436 65.7865C111.334 65.502 111.23 65.2136 111.296 64.9768C111.632 63.7782 111.049 62.9384 110.47 62.1052C110.234 61.7647 109.998 61.4253 109.826 61.0629C109.511 60.3994 109.074 59.795 108.637 59.1906C108.436 58.9142 108.236 58.6378 108.048 58.3558C107.569 57.6364 106.816 57.4217 106.064 57.2073C106.033 57.1983 106.001 57.1893 105.969 57.1802C105.933 57.1699 105.897 57.1595 105.861 57.149C105.693 57.0996 105.521 57.0659 105.341 57.0307C105.252 57.0134 105.161 56.9957 105.069 56.9755C104.958 57.7921 104.454 57.6735 103.922 57.5485L103.877 57.5378C103.86 57.5339 103.844 57.5301 103.827 57.5263C103.783 57.5163 103.74 57.5066 103.696 57.4978L103.558 57.736L103.556 57.7392L103.464 57.8972L103.403 58.0024C103.385 58.0348 103.366 58.0679 103.346 58.1019L103.322 58.1436C103.225 58.0889 103.123 58.2309 103.013 58.3833C102.885 58.5599 102.748 58.7505 102.597 58.6653C102.575 59.0141 102.559 59.2706 102.548 59.4366C101.555 59.2072 100.628 59.463 99.694 59.7206C99.0208 59.9063 98.3443 60.0929 97.6379 60.0991C97.6067 60.4239 97.5792 60.7173 97.5498 61.0476C97.1388 60.9812 96.7645 60.9203 96.3572 60.8538C96.3 60.9141 96.2459 60.9909 96.1908 61.0694C95.9774 61.3729 95.7469 61.7007 95.2454 61.186C95.2293 61.1685 95.0381 61.3236 94.8532 61.4738L94.8528 61.4741L94.851 61.4755C94.7635 61.5465 94.6776 61.6162 94.6124 61.6658C94.4767 61.6992 94.3372 61.7284 94.1965 61.7579C93.8636 61.8276 93.5236 61.8989 93.2089 62.0312C93.0459 62.0996 92.8765 62.1388 92.7064 62.1782C92.3078 62.2705 91.9054 62.3637 91.5724 62.8357C91.3684 63.125 90.7852 63.1501 90.2133 63.1746C89.9826 63.1845 89.7538 63.1943 89.5524 63.2214C89.4486 63.2354 89.3393 63.2397 89.2304 63.2439C88.7389 63.2629 88.2535 63.2816 88.2956 64.2031C88.133 64.0867 87.9939 63.9869 87.8622 63.8923L87.8405 63.8767C87.7621 63.8204 87.686 63.7658 87.6088 63.7105L87.4727 63.6131C87.4371 63.5876 87.4008 63.5616 87.3636 63.5351C87.1141 64.2252 86.7526 64.467 86.2334 63.7122C86.1211 63.9668 86.0388 64.1515 85.9418 64.369L85.894 64.4762C85.8525 64.4309 85.8139 64.3887 85.7775 64.3488C85.73 64.2968 85.6863 64.2489 85.645 64.2036C85.5705 64.1219 85.5038 64.0488 85.4371 63.9761C85.1879 64.0807 84.9549 64.2222 84.7231 64.3629C84.1904 64.6862 83.664 65.0057 82.9621 64.8656C82.8909 64.8518 82.8089 64.9372 82.7192 65.0304C82.6402 65.1125 82.5553 65.2008 82.4668 65.2328C82.0561 65.3828 81.6408 65.5185 81.2255 65.6543L81.2251 65.6544L81.2244 65.6546C80.8942 65.7625 80.5639 65.8705 80.2358 65.9857C80.0858 66.0385 79.9452 66.1204 79.8047 66.2022C79.7658 66.2249 79.727 66.2475 79.688 66.2695C79.6732 66.2778 79.6584 66.286 79.6436 66.2941C79.6313 66.3009 79.6189 66.3076 79.6065 66.3141C79.5567 66.3406 79.5033 66.3773 79.45 66.4141C79.3321 66.4951 79.2139 66.5764 79.1331 66.5485C78.069 66.1831 77.2232 66.2865 76.515 67.318C76.3536 67.5523 75.5977 67.4804 75.15 67.3881C74.3739 67.2276 73.9134 67.4545 73.985 68.2185C74.0529 68.9511 74.1354 69.7723 74.5097 70.3646C75.0317 71.1928 75.1839 72.0794 75.3378 72.977C75.3695 73.1614 75.4012 73.3463 75.4362 73.5312C75.4698 73.7061 75.5857 73.8649 75.7066 74.0306C75.7643 74.1096 75.8232 74.1902 75.8747 74.2748L75.8196 74.3972L75.8194 74.3977C75.7388 74.5763 75.6496 74.7741 75.5665 74.9742C75.5463 75.0259 75.5426 75.1145 75.5738 75.1532C76.0399 75.7277 76.139 76.4547 76.2329 77.144C76.3308 77.8629 76.4231 78.5408 76.9205 78.9619C77.2341 78.9516 77.5253 78.9189 77.7933 78.8888C78.3343 78.8282 78.7804 78.7781 79.124 78.9435C79.7423 79.2424 80.3807 79.6853 80.2982 80.7427C80.2514 81.3335 80.4691 81.9444 80.6931 82.573C80.7944 82.8574 80.897 83.1454 80.977 83.4368C80.9291 83.4832 80.8803 83.5304 80.8307 83.5784L80.6445 83.7586C80.2516 84.1391 79.8188 84.5582 79.3826 84.974C79.3221 85.0331 79.2285 85.0847 79.1478 85.0921C78.587 85.142 78.0262 85.1892 77.4654 85.2363C76.8245 85.2902 76.1836 85.344 75.5426 85.4021C75.2835 85.4261 75.0261 85.4649 74.7261 85.5101C74.5885 85.5309 74.442 85.5529 74.2822 85.5756C74.2805 85.5799 74.2771 85.5892 74.2722 85.6029L74.2522 85.6583L74.2517 85.6597C74.2236 85.7377 74.1791 85.8611 74.1281 86L73.8321 85.6364L73.7116 85.4888C73.6243 85.5893 73.5442 85.6805 73.4694 85.7657L73.4686 85.7665L73.4681 85.7672L73.4665 85.7689C73.4009 85.8437 73.3393 85.9138 73.2804 85.9815C73.2443 85.9683 73.2087 85.9587 73.1774 85.9502C73.1212 85.935 73.079 85.9235 73.0731 85.9022C72.9845 85.5318 72.8938 85.1618 72.803 84.7917C72.5197 83.6369 72.2363 82.4816 72.0182 81.3147C71.9246 80.811 72.031 80.2057 72.2383 79.7314C72.3211 79.5414 72.5733 79.4266 72.8642 79.2943C73.0056 79.2299 73.156 79.1615 73.3006 79.0782C73.1503 78.5176 72.9976 77.9493 72.8432 77.375L72.8295 77.3242L72.8294 77.3237L72.8288 77.3215C72.2695 75.2414 71.6891 73.0826 71.1265 70.9182C71.0822 70.7495 71.0879 70.5556 71.0935 70.3662C71.1011 70.1081 71.1085 69.8581 70.9889 69.6911C70.7598 69.3709 70.432 69.1231 70.1038 68.8749C69.9458 68.7555 69.7877 68.636 69.6404 68.5082C69.1616 68.093 68.7029 67.7793 68.1616 68.44C68.0938 68.523 67.7342 68.5119 67.6626 68.4215C67.3122 67.9842 66.9654 67.8033 66.4792 68.213C66.4473 68.2399 66.4153 68.2665 66.3832 68.2933L66.3813 68.2949C66.0943 68.5338 65.8008 68.7781 65.5472 69.2187C65.3777 69.1865 65.2083 69.1539 65.0389 69.1213L65.0325 69.1201C64.4854 69.0148 63.9385 68.9095 63.3896 68.8182C63.2263 68.7905 62.9621 68.7924 62.8924 68.8884C62.6538 69.2209 62.3341 69.2026 62.0108 69.1841C61.7797 69.1709 61.5467 69.1576 61.3402 69.2722C61.2386 69.3288 61.0225 69.1767 60.7772 69.004C60.655 68.9179 60.5253 68.8267 60.399 68.7537C60.3138 68.791 60.2263 68.873 60.1332 68.9603C59.8673 69.2095 59.5549 69.5024 59.1148 68.9271C59.0689 68.8681 58.7808 68.9511 58.6341 69.0268C57.8947 69.3995 57.126 69.3552 56.3334 69.2833C56.1675 69.2683 55.9892 69.3793 55.7977 69.4985C55.7054 69.556 55.6099 69.6153 55.5114 69.6634C55.0508 69.0884 54.5813 69.365 54.1458 69.6216C54.0557 69.6746 53.9671 69.7268 53.8804 69.7704C53.1593 70.1339 52.53 70.0989 51.8934 69.6449C51.8752 69.632 51.8574 69.6133 51.84 69.595C51.8101 69.5635 51.7811 69.5331 51.7521 69.5342C51.5571 69.5411 51.362 69.5472 51.1669 69.5533C50.4736 69.5749 49.7801 69.5966 49.09 69.6542C48.903 69.6699 48.7033 69.7325 48.5077 69.7938C48.1986 69.8906 47.8998 69.9843 47.6773 69.8848C46.9856 69.5767 46.648 69.6542 46.4058 70.3554C46.3655 70.4716 46.171 70.5344 46.0792 70.3425C45.8736 70.3066 45.668 70.2693 45.4624 70.2319C44.8428 70.1193 44.2228 70.0067 43.5987 69.9347C43.4868 69.9217 43.3015 70.2539 43.2079 70.4532C42.997 70.9071 42.7933 70.9957 42.4044 70.599C42.2033 70.3936 42.0514 70.1748 41.9226 69.9894C41.6059 69.5334 41.4292 69.279 41.0066 69.9204C39.7269 69.0875 38.4835 69.5293 37.2517 69.967L37.2509 69.9673L37.2498 69.9677C37.0959 70.0223 36.9422 70.0769 36.7887 70.129C36.2548 70.3098 36.1373 71.9669 36.3116 72.5463C36.3116 72.6798 36.3085 72.8137 36.3053 72.9473C36.2982 73.2439 36.2912 73.5399 36.319 73.8325C36.3453 74.113 36.3878 74.3932 36.4302 74.673C36.5059 75.1719 36.5813 75.6696 36.5648 76.165C36.5588 76.3361 36.3297 76.5009 36.0432 76.707C35.894 76.8143 35.7293 76.9328 35.5723 77.0692C35.636 77.109 35.7024 77.146 35.7688 77.183C35.9146 77.264 36.0605 77.3452 36.1777 77.4567C36.6676 77.9162 36.9941 78.4311 36.9648 79.1729C36.9299 79.9977 37.1134 80.7857 37.5335 81.5441C37.6455 81.7489 37.2785 82.4243 36.9703 82.6126C36.4804 82.9096 35.8566 83.0905 35.2824 83.1126C34.8702 83.1292 34.4509 83.0051 34.0351 82.882L34.0348 82.8819C33.8954 82.8407 33.7565 82.7995 33.6183 82.7639C33.5531 82.7466 33.4874 82.6885 33.4261 82.6343C33.3563 82.5726 33.2921 82.5158 33.2404 82.5295C32.2256 82.7984 31.8682 82.0747 31.553 81.4363L31.5528 81.436L31.5527 81.4357C31.5175 81.3645 31.4828 81.2943 31.4479 81.2267C31.1706 80.695 30.9985 80.1077 30.8265 79.5205C30.7537 79.2722 30.6809 79.0239 30.6002 78.7798L30.5847 78.7325L30.5845 78.7319C30.5254 78.5521 30.4656 78.3702 30.4168 78.1856C30.1893 77.3368 30.703 76.6743 31.5378 76.8146C32.2698 76.9382 32.4331 76.5119 32.5542 75.9583C32.6234 75.6367 32.6974 75.316 32.7714 74.9953L32.7716 74.9945L32.7717 74.9937C32.9133 74.38 33.0549 73.7662 33.1633 73.1461C33.2101 72.8791 33.1913 72.6016 33.1724 72.3236C33.1617 72.1655 33.151 72.0072 33.1523 71.8506C33.1528 71.7316 33.1445 71.6068 33.1362 71.4815C33.1146 71.1562 33.0927 70.8272 33.2238 70.5848C33.5846 69.9175 33.2315 69.6317 32.9308 69.3883L32.9304 69.3879C32.9086 69.3703 32.887 69.3528 32.8661 69.3355C32.7016 69.3493 32.5465 69.3742 32.4012 69.3975C32.0991 69.446 31.8389 69.4878 31.6222 69.4093C31.4103 69.3319 31.2461 69.1247 31.073 68.9062C30.9943 68.8068 30.9137 68.705 30.8259 68.6121C30.1691 69.3318 29.6168 69.8356 28.7472 69.0827C28.609 68.9635 28.3116 69.0305 27.9876 69.1034C27.8298 69.1389 27.6657 69.1759 27.5106 69.1934C27.4941 69.2395 27.4372 69.3982 27.3638 69.5994C26.4024 68.7856 25.3952 68.8188 24.3403 69.3115C24.2357 69.3613 24.032 69.3041 23.9256 69.2248C23.5186 68.9209 23.1199 68.6044 22.6975 68.2692L22.6966 68.2685C22.5576 68.1582 22.416 68.0458 22.2707 67.9312C22.2152 68.0917 22.1681 68.2269 22.1048 68.4085L22.0377 68.601C21.5266 67.6451 20.9306 67.8739 20.297 68.1172C20.2028 68.1533 20.1079 68.1898 20.0122 68.2228C19.866 68.2734 19.6641 68.1594 19.4077 68.0146L19.4071 68.0143C19.2712 67.9375 19.12 67.8521 18.9536 67.778C18.4729 68.136 17.8601 68.0493 17.0363 67.6175C16.6094 67.3946 16.0862 67.3745 15.5562 67.3542C15.1296 67.3378 14.6986 67.3212 14.31 67.1986C13.9256 67.0774 13.5344 66.9781 13.1419 66.8785C12.5601 66.7307 11.9753 66.5823 11.4056 66.3608C11.0349 66.217 10.7596 65.9992 10.4891 65.7851C10.2562 65.6009 10.0269 65.4194 9.74341 65.2905C9.70171 65.3444 9.65899 65.4002 9.61339 65.4598C9.55265 65.5393 9.48678 65.6254 9.41133 65.7223C9.38227 65.6371 9.35201 65.5569 9.32286 65.4796L9.32255 65.4788C9.26348 65.3222 9.209 65.1778 9.17833 65.0285C8.98385 64.0616 8.49031 63.5873 7.42803 63.6667C7.02421 63.6971 6.59724 63.4079 6.22779 63.1576L6.22611 63.1564C6.19329 63.1342 6.16092 63.1123 6.12906 63.0909C5.98592 62.9934 5.84545 62.8909 5.70504 62.7885C5.39371 62.5613 5.08273 62.3344 4.74386 62.1627C4.60634 62.0929 4.46622 62.0275 4.32644 61.9623C3.66061 61.6514 3.00242 61.3442 2.66882 60.5831C2.60094 60.4281 2.44316 60.2528 2.29088 60.2048C1.27942 59.8842 0.952865 59.0618 0.62689 58.2408C0.46505 57.8332 0.303353 57.426 0.0580521 57.0807C-0.0726964 56.8969 0.0459007 56.5344 0.135153 56.2617C0.168635 56.1594 0.197987 56.0697 0.208497 56.0067C0.490355 56.1687 0.77113 56.3724 1.04952 56.5744C1.65908 57.0167 2.25722 57.4507 2.83028 57.4203C3.51509 57.3827 4.00538 57.7169 4.4821 58.0419C4.94284 58.3559 5.39089 58.6613 5.98962 58.6142C6.18279 58.5994 6.3783 58.6081 6.5752 58.6168C6.8196 58.6277 7.06638 58.6387 7.31427 58.605C7.48683 58.6505 7.62894 58.7614 7.77392 58.8745C8.05747 59.0956 8.352 59.3253 8.90679 59.0921C9.13489 58.9971 9.50497 59.2468 9.87549 59.4968C9.98206 59.5687 10.0887 59.6406 10.192 59.7044L10.259 59.4353C10.3609 59.5033 10.4653 59.5596 10.5636 59.6127C10.7591 59.7183 10.9306 59.8109 11.0112 59.9557C11.448 60.7414 12.1515 60.841 12.9344 60.9518L12.9633 60.9559C13.488 61.0297 14.0916 61.277 14.4512 61.6479C15.1448 62.3657 15.4493 61.9763 15.8383 61.2696C15.8877 61.3451 15.9298 61.4227 15.97 61.4968C16.0536 61.6511 16.1291 61.7903 16.2456 61.8638C16.5777 62.0723 16.9464 62.2531 17.3262 62.3436C17.6009 62.4092 17.8879 62.4225 18.2251 62.4381L18.2255 62.4381C18.3905 62.4457 18.5675 62.4539 18.7609 62.469C19.1756 62.0465 20.014 62.0852 20.9626 62.7477C21.557 62.1184 21.8634 62.1443 22.234 62.7975C22.3569 63.0153 22.678 63.329 22.8083 63.2884C22.968 63.237 23.0904 63.0691 23.2194 62.8921C23.2756 62.8151 23.333 62.7363 23.3954 62.6646L23.47 62.7555C23.5639 62.87 23.6762 63.0067 23.7807 63.1334C23.923 63.0227 24.0609 62.9159 24.1983 62.8094L24.1996 62.8085L24.2015 62.807L24.2041 62.8049C24.3923 62.6591 24.5798 62.5139 24.7769 62.3602C25.2492 63.61 25.2503 63.6096 26.3973 63.1992L26.4318 63.1869C26.5596 63.1415 26.7156 63.1753 26.8736 63.2096C26.947 63.2254 27.0207 63.2414 27.0923 63.2496C27.3473 62.4321 27.65 62.3916 28.3344 63.0429C28.4202 62.9934 28.5025 62.9355 28.5828 62.8791C28.7566 62.757 28.9209 62.6415 29.0903 62.6314C29.178 62.6265 29.2679 62.6358 29.3561 62.645L29.3564 62.645C29.6295 62.6734 29.8856 62.7 30.0076 62.2956C30.136 62.3491 30.2643 62.4028 30.3928 62.4567C30.5746 62.5329 30.7569 62.6093 30.9397 62.6849C30.9351 62.6692 30.93 62.6531 30.925 62.6369C30.9199 62.6208 30.9149 62.6047 30.9103 62.589C31.7914 62.6462 32.6734 62.7043 33.5595 62.7626L34.6788 62.8363C34.6957 62.7872 34.7168 62.726 34.744 62.6471L34.8228 62.4185C34.8529 62.3312 34.8877 62.2303 34.9283 62.1129C35.2182 62.5263 35.4108 62.8012 35.6108 63.0872C36.2419 62.458 36.9501 62.3694 37.7794 62.6499C38.5371 62.9045 39.326 63.0891 40.115 63.2109C40.2474 63.2311 40.4019 63.1034 40.6129 62.929C40.7293 62.8328 40.8629 62.7224 41.0195 62.6148C41.1243 62.5797 41.2605 62.6771 41.4166 62.7887C41.7027 62.9934 42.0556 63.2459 42.4047 62.816L42.5006 62.8159L42.7337 62.8153C42.8123 62.815 42.8909 62.8147 42.9695 62.8144H42.9725C43.4227 62.8125 43.8723 62.8105 44.3219 62.8197C44.4501 62.8222 44.5782 62.8202 44.7058 62.8182C45.3071 62.8085 45.899 62.799 46.4483 63.2755C46.7162 63.508 47.6317 63.5061 47.6941 63.364C47.8534 62.9981 48.1661 63.0431 48.4163 63.0791C48.5926 63.1045 48.7379 63.1254 48.7766 62.995C48.9257 63.0185 49.0809 63.0571 49.2254 63.093L49.2257 63.0931L49.226 63.0932C49.5113 63.1641 49.7548 63.2246 49.8278 63.1389C50.1452 62.7665 50.5557 62.7391 50.9614 62.7119C51.2734 62.691 51.5825 62.6703 51.8442 62.493C51.9857 62.3973 52.1395 62.3187 52.3032 62.235C52.3857 62.1928 52.4706 62.1494 52.5579 62.1018C53.2349 62.8713 54.0807 62.6665 54.6146 61.3969C54.6683 61.4404 54.7253 61.4795 54.781 61.5177C54.9004 61.5997 55.0138 61.6775 55.0751 61.7844C55.3539 62.2698 55.6365 62.3067 56.1098 61.9966C56.5483 61.7106 57.0419 61.5464 57.5061 62.1166C57.617 62.253 57.8465 62.2928 58.0998 62.3366C58.2234 62.358 58.3526 62.3804 58.4766 62.4155V61.2936C58.7418 62.2476 59.1615 62.1245 59.5782 62.0022C59.7064 61.9646 59.8342 61.9271 59.9572 61.921C61.2782 61.8564 62.5643 61.6959 63.7624 61.0629C63.858 61.0124 64.0114 61.0724 64.2004 61.1463C64.3015 61.1859 64.4128 61.2294 64.5311 61.2622C65.0476 60.431 65.738 60.6147 66.4508 60.8043C66.8267 60.9044 67.2087 61.006 67.5748 60.9614C67.8666 60.1735 68.483 59.9502 69.6297 60.2657C69.7077 60.2874 69.7855 60.3296 69.8617 60.3709C70.0904 60.4949 70.3044 60.6109 70.4627 60.1403C70.4675 60.127 70.6664 60.1793 70.8747 60.2341L70.8753 60.2342C70.9851 60.2631 71.0976 60.2927 71.1855 60.3137C71.2756 60.2286 71.3461 60.0938 71.4169 59.9585C71.6088 59.5918 71.8026 59.2214 72.3909 59.8266C72.4368 59.8727 72.6368 59.8376 72.7102 59.7749C73.3681 59.2056 74.1694 58.9996 74.9703 58.7937C75.3845 58.6872 75.7985 58.5807 76.1924 58.4241C76.7066 58.2203 77.2865 58.1855 77.8677 58.1507C78.1492 58.1339 78.4312 58.117 78.706 58.0809C78.8027 58.0682 78.8959 58.033 78.9895 57.9977C79.0593 57.9714 79.1293 57.945 79.2013 57.9277C79.3787 57.8858 79.5574 57.8481 79.7358 57.8105L79.7378 57.8101C80.0145 57.7518 80.2909 57.6935 80.5627 57.6195C80.7246 57.5753 80.8793 57.5054 81.0345 57.4353C81.1253 57.3943 81.2166 57.353 81.3094 57.3169C81.3587 57.2977 81.4106 57.2725 81.463 57.2471C81.6019 57.1797 81.7446 57.1105 81.8525 57.1453C82.4854 57.3483 82.9588 57.1269 83.5367 56.8408C84.4418 56.3917 85.4106 56.0693 86.376 55.7481C86.5926 55.676 86.809 55.604 87.0245 55.5307C87.1098 55.5016 87.2362 55.596 87.3628 55.6904C87.4214 55.7341 87.48 55.7778 87.5345 55.8093L87.567 55.5747Z" fill="#131313"/>
</svg>
