<svg width="84" height="23" viewBox="0 0 84 23" fill="none" xmlns="http://www.w3.org/2000/svg">
<path fill-rule="evenodd" clip-rule="evenodd" d="M33.3777 0C40.273 0 45.4928 4.89762 45.4928 11.4385C45.4928 17.9472 40.273 22.9415 33.3777 22.9415C26.4823 22.9415 21.2625 17.9794 21.2625 11.4385C21.2625 4.8654 26.4823 0 33.3777 0ZM33.4421 4.44653C29.64 4.44653 26.4823 7.47532 26.4823 11.4385C26.4823 15.4017 29.6722 18.495 33.4421 18.495C37.212 18.495 40.273 15.4017 40.273 11.4385C40.273 7.47532 37.212 4.44653 33.4421 4.44653Z" fill="#131313"/>
<path fill-rule="evenodd" clip-rule="evenodd" d="M60.9352 18.2694H51.3463V0.161106H46.2553V22.7159H64.2561L66.0283 18.3339H76.468L78.2401 22.7159H83.6855L74.0514 0.161106H68.7993L60.9352 18.2694ZM71.2804 5.4776L74.8247 14.2418H67.7038L71.2804 5.4776Z" fill="#131313"/>
<path d="M8.86083 22.7159H14.1129L23.0704 0.161106H17.8183L11.6319 17.1739L5.47761 0.161106H0L8.86083 22.7159Z" fill="#131313"/>
</svg>
