<svg width="84" height="24" viewBox="0 0 84 24" fill="none" xmlns="http://www.w3.org/2000/svg">
<path fill-rule="evenodd" clip-rule="evenodd" d="M33.4519 0.305908C40.3472 0.305908 45.5671 5.20353 45.5671 11.7444C45.5671 18.2531 40.3472 23.2474 33.4519 23.2474C26.5565 23.2474 21.3367 18.2853 21.3367 11.7444C21.3367 5.17131 26.5565 0.305908 33.4519 0.305908ZM33.5163 4.75243C29.7142 4.75243 26.5565 7.78123 26.5565 11.7444C26.5565 15.7076 29.7464 18.8009 33.5163 18.8009C37.2862 18.8009 40.3472 15.7076 40.3472 11.7444C40.3472 7.78123 37.2862 4.75243 33.5163 4.75243Z" fill="white"/>
<path fill-rule="evenodd" clip-rule="evenodd" d="M61.0094 18.5753H51.4205V0.467014H46.3295V23.0219H64.3304L66.1025 18.6398H76.5422L78.3144 23.0219H83.7598L74.1256 0.467014H68.8736L61.0094 18.5753ZM71.3546 5.78351L74.8989 14.5477H67.778L71.3546 5.78351Z" fill="white"/>
<path d="M8.93505 23.0219H14.1871L23.1446 0.467014H17.8925L11.7061 17.4798L5.55182 0.467014H0.0742188L8.93505 23.0219Z" fill="white"/>
</svg>
